<svg width="471" height="397" viewBox="0 0 471 397" fill="none" xmlns="http://www.w3.org/2000/svg">
<g clip-path="url(#clip0)">
<path d="M250.96 118.175C250.574 118.563 250.219 118.98 249.899 119.424L200.858 117.694L195.248 107.19L178.267 113.57L186.386 133.134C187.042 134.714 188.194 136.039 189.668 136.91C191.142 137.781 192.86 138.151 194.563 137.964L250.058 131.88C251.348 133.548 253.116 134.784 255.126 135.424C257.136 136.064 259.294 136.078 261.313 135.463C263.331 134.849 265.114 133.635 266.425 131.984C267.736 130.333 268.512 128.322 268.65 126.22C268.789 124.117 268.282 122.023 267.199 120.214C266.116 118.406 264.507 116.97 262.587 116.097C260.666 115.224 258.525 114.956 256.448 115.328C254.371 115.7 252.457 116.695 250.96 118.18V118.175Z" fill="#A0616A"/>
<path d="M157.043 67.1322C172.858 67.1322 185.679 54.3303 185.679 38.5383C185.679 22.7464 172.858 9.94446 157.043 9.94446C141.227 9.94446 128.407 22.7464 128.407 38.5383C128.407 54.3303 141.227 67.1322 157.043 67.1322Z" fill="#2F2E41"/>
<path d="M134.691 23.1213C139.318 18.5006 140.256 11.9455 136.785 8.47998C133.315 5.01448 126.75 5.95094 122.123 10.5716C117.495 15.1923 116.557 21.7474 120.028 25.2129C123.498 28.6784 130.063 27.7419 134.691 23.1213Z" fill="#2F2E41"/>
<path d="M186.889 14.0409C188.817 9.53389 185.501 3.79936 179.483 1.2324C173.465 -1.33456 167.023 0.238098 165.095 4.74508C163.167 9.25205 166.483 14.9866 172.501 17.5536C178.519 20.1206 184.961 18.5478 186.889 14.0409Z" fill="#2F2E41"/>
<path d="M198.707 115.745L176.731 125.557C176.106 125.837 175.428 125.978 174.743 125.972C174.058 125.966 173.383 125.812 172.762 125.522C172.142 125.232 171.592 124.811 171.149 124.289C170.707 123.768 170.382 123.157 170.197 122.498L163.716 99.4243C162.308 96.2225 162.227 92.5937 163.492 89.3328C164.758 86.0718 167.266 83.4445 170.467 82.0263C173.669 80.608 177.302 80.5145 180.573 81.7662C183.843 83.0178 186.483 85.5126 187.915 88.7041L200.78 108.842C201.148 109.419 201.387 110.068 201.482 110.746C201.576 111.423 201.523 112.113 201.326 112.768C201.129 113.423 200.794 114.028 200.342 114.542C199.889 115.056 199.332 115.466 198.707 115.745H198.707Z" fill="#CCCCCC"/>
<path d="M97.2164 212.288C98.7301 211.936 100.148 211.258 101.371 210.301C102.594 209.343 103.592 208.13 104.294 206.745C104.996 205.361 105.386 203.84 105.436 202.289C105.486 200.738 105.195 199.195 104.583 197.769L143.769 109.367L121.352 103.729L89.8824 192.398C87.5508 193.583 85.7357 195.582 84.7809 198.014C83.8262 200.446 83.7981 203.144 84.7021 205.596C85.6062 208.047 87.3794 210.082 89.6858 211.316C91.9923 212.549 94.6717 212.895 97.2164 212.288V212.288Z" fill="#A0616A"/>
<path d="M86.5344 372.524L97.9334 376.668L119.367 334.737L102.542 328.621L86.5344 372.524Z" fill="#A0616A"/>
<path d="M116.063 395.23L80.2378 382.205L85.2775 368.384L107.261 376.376C110.932 377.711 113.922 380.447 115.573 383.983C117.223 387.518 117.4 391.564 116.063 395.23V395.23L116.063 395.23Z" fill="#2F2E41"/>
<path d="M113.497 348.394C112.797 348.394 112.107 348.24 111.474 347.941L98.3742 341.745C97.3002 341.241 96.4539 340.355 96.0018 339.26C95.5497 338.164 95.5247 336.94 95.9316 335.827L132.903 233.596C133.209 232.749 133.749 232.007 134.461 231.455C135.173 230.902 136.027 230.563 136.925 230.476C137.822 230.389 138.726 230.558 139.531 230.963C140.336 231.368 141.009 231.993 141.473 232.765L161.027 265.308C161.463 266.033 161.697 266.861 161.706 267.706C161.715 268.551 161.498 269.383 161.079 270.118L117.653 346.001C117.232 346.73 116.626 347.335 115.896 347.755C115.167 348.175 114.339 348.395 113.497 348.394V348.394Z" fill="#2F2E41"/>
<path d="M157.951 69.6316C171.373 69.6316 182.254 58.7668 182.254 45.3643C182.254 31.9618 171.373 21.097 157.951 21.097C144.529 21.097 133.648 31.9618 133.648 45.3643C133.648 58.7668 144.529 69.6316 157.951 69.6316Z" fill="#A0616A"/>
<path d="M192.333 155.698L149.302 143.882L126.415 98.1764C125.316 95.9807 124.796 93.5408 124.907 91.0884C125.017 88.636 125.754 86.2525 127.046 84.1642C128.339 82.076 130.145 80.3523 132.292 79.1569C134.439 77.9615 136.857 77.334 139.316 77.3341H173.552C177.105 77.3318 180.534 78.6414 183.18 81.011C192.363 89.226 211.658 112.91 192.519 155.285L192.333 155.698Z" fill="#CCCCCC"/>
<path d="M138.464 125.177L116.662 114.987C116.042 114.697 115.492 114.277 115.049 113.755C114.605 113.234 114.28 112.623 114.095 111.965C113.909 111.306 113.868 110.616 113.974 109.94C114.08 109.264 114.331 108.619 114.709 108.049L127.959 88.0682C129.463 84.9095 132.161 82.4753 135.46 81.2989C138.759 80.1225 142.39 80.2998 145.559 81.792C148.727 83.2841 151.174 85.9695 152.363 89.2597C153.552 92.5498 153.386 96.1765 151.902 99.3451L145.051 122.231C144.855 122.886 144.519 123.491 144.068 124.005C143.616 124.52 143.058 124.93 142.433 125.21C141.808 125.49 141.13 125.631 140.445 125.626C139.76 125.62 139.085 125.467 138.464 125.177H138.464Z" fill="#CCCCCC"/>
<path d="M164.841 383.981H176.972L182.744 337.259L164.839 337.26L164.841 383.981Z" fill="#A0616A"/>
<path d="M200.369 395.228L162.243 395.23L162.242 380.521L185.637 380.52C189.544 380.52 193.291 382.069 196.054 384.828C198.816 387.586 200.368 391.327 200.369 395.228V395.228V395.228Z" fill="#2F2E41"/>
<path d="M169.422 366.177C168.331 366.179 167.274 365.805 166.427 365.118C165.58 364.432 164.996 363.475 164.774 362.408C161.287 346.003 143.177 261.973 129.042 218.689C114.66 174.652 139.153 154.593 144.209 151.02C144.747 150.64 145.175 150.124 145.448 149.525L149.122 141.457C149.502 140.624 150.115 139.918 150.887 139.423C151.658 138.927 152.556 138.664 153.473 138.664H153.502C181.039 138.828 190.296 147.496 192.997 151.215C193.396 151.769 193.669 152.403 193.798 153.073C193.927 153.742 193.908 154.432 193.743 155.094L176.32 226.87C176.212 227.315 176.188 227.776 176.248 228.23L193.583 358.553C193.666 359.179 193.623 359.816 193.458 360.426C193.292 361.036 193.006 361.607 192.617 362.105C192.228 362.603 191.744 363.02 191.192 363.329C190.641 363.639 190.033 363.836 189.404 363.908L169.982 366.145C169.796 366.167 169.609 366.177 169.422 366.177Z" fill="#2F2E41"/>
<path d="M132.414 30.1002C137.968 33.9223 144.559 35.9564 151.304 35.9295C148.898 37.5953 146.159 38.7205 143.276 39.2276C152.244 41.1484 161.512 41.2004 170.501 39.3803C172.499 39.0604 174.427 38.3992 176.2 37.4257C177.084 36.933 177.854 36.26 178.46 35.4506C179.066 34.6413 179.494 33.7136 179.718 32.7279C180.315 29.3206 177.656 26.2251 174.893 24.1388C170.662 20.9933 165.785 18.8262 160.612 17.7941C155.44 16.7621 150.102 16.8909 144.986 18.1713C141.645 19.0336 138.299 20.4905 136.129 23.1695C133.959 25.8485 133.316 29.9786 135.383 32.7372L132.414 30.1002Z" fill="#2F2E41"/>
<path d="M417.682 303.443V396.054L393.623 395.36H270.538V319.807L306.453 303.443H417.682Z" fill="#CCCCCC"/>
<path opacity="0.1" d="M417.682 303.443V303.732L409.045 309.504L393.623 319.807H270.538L306.453 303.443H417.682Z" fill="black"/>
<path opacity="0.1" d="M417.682 303.443V396.054L393.623 395.36L393.798 319.632L409.045 309.504L417.542 303.443H417.682Z" fill="black"/>
<path d="M385.254 313.365H310.288L315.867 310.232H387.695L385.254 313.365Z" fill="white"/>
<path d="M470.011 397H0.989496C0.727065 397 0.475397 396.896 0.289831 396.711C0.104265 396.525 0 396.274 0 396.012C0 395.75 0.104265 395.499 0.289831 395.313C0.475397 395.128 0.727065 395.024 0.989496 395.024H470.011C470.273 395.024 470.525 395.128 470.71 395.313C470.896 395.499 471 395.75 471 396.012C471 396.274 470.896 396.525 470.71 396.711C470.525 396.896 470.273 397 470.011 397Z" fill="#E6E6E6"/>
<path d="M345.393 134.997H264.254C261.893 134.995 259.629 134.057 257.96 132.39C256.29 130.723 255.351 128.463 255.349 126.105V38.1693C255.351 35.8118 256.29 33.5515 257.96 31.8845C259.629 30.2174 261.893 29.2797 264.254 29.277H345.393C347.754 29.2797 350.017 30.2174 351.687 31.8845C353.356 33.5515 354.295 35.8118 354.298 38.1693V126.105C354.295 128.463 353.356 130.723 351.687 132.39C350.017 134.057 347.754 134.995 345.393 134.997V134.997ZM264.254 31.2531C262.418 31.2551 260.657 31.9845 259.359 33.2811C258.06 34.5777 257.33 36.3357 257.328 38.1693V126.105C257.33 127.939 258.06 129.697 259.359 130.993C260.657 132.29 262.418 133.019 264.254 133.021H345.393C347.229 133.019 348.99 132.29 350.288 130.993C351.587 129.697 352.317 127.939 352.319 126.105V38.1693C352.317 36.3357 351.587 34.5777 350.288 33.2811C348.99 31.9845 347.229 31.2551 345.393 31.2531H264.254Z" fill="#3F3D56"/>
<path d="M280.596 65.8346H272.68C271.499 65.8332 270.367 65.3644 269.533 64.5308C268.698 63.6973 268.228 62.5672 268.227 61.3884V53.484C268.228 52.3052 268.698 51.1751 269.533 50.3415C270.367 49.508 271.499 49.0391 272.68 49.0378H280.596C281.776 49.0391 282.908 49.508 283.743 50.3415C284.578 51.1751 285.047 52.3052 285.048 53.484V61.3884C285.047 62.5672 284.578 63.6973 283.743 64.5308C282.908 65.3644 281.776 65.8332 280.596 65.8346V65.8346Z" fill="#6C63FF"/>
<path d="M280.596 90.5355H272.68C271.499 90.5342 270.367 90.0653 269.533 89.2318C268.698 88.3982 268.228 87.2681 268.227 86.0893V78.185C268.228 77.0062 268.698 75.876 269.533 75.0424C270.367 74.2089 271.499 73.7401 272.68 73.7388H280.596C281.776 73.7401 282.908 74.2089 283.743 75.0424C284.578 75.876 285.047 77.0062 285.048 78.185V86.0893C285.047 87.2681 284.578 88.3982 283.743 89.2318C282.908 90.0653 281.776 90.5342 280.596 90.5355V90.5355Z" fill="#CCCCCC"/>
<path d="M338.451 61.0297H301.494C300.707 61.0289 299.953 60.7163 299.396 60.1606C298.84 59.6049 298.527 58.8515 298.526 58.0656V56.8069C298.527 56.021 298.84 55.2676 299.396 54.7119C299.953 54.1562 300.707 53.8436 301.494 53.8428H338.451C339.238 53.8436 339.993 54.1562 340.549 54.7119C341.106 55.2676 341.419 56.021 341.42 56.8069V58.0656C341.419 58.8515 341.106 59.6049 340.549 60.1606C339.993 60.7163 339.238 61.0289 338.451 61.0297V61.0297Z" fill="#6C63FF"/>
<path d="M338.451 85.7306H301.494C300.707 85.7298 299.953 85.4172 299.396 84.8615C298.84 84.3058 298.527 83.5524 298.526 82.7665V81.5078C298.527 80.722 298.84 79.9685 299.396 79.4128C299.953 78.8571 300.707 78.5446 301.494 78.5437H338.451C339.238 78.5446 339.993 78.8571 340.549 79.4128C341.106 79.9685 341.419 80.722 341.42 81.5078V82.7665C341.419 83.5524 341.106 84.3058 340.549 84.8615C339.993 85.4172 339.238 85.7298 338.451 85.7306V85.7306Z" fill="#CCCCCC"/>
<path d="M280.596 115.237H272.68C271.499 115.235 270.367 114.766 269.533 113.933C268.698 113.099 268.228 111.969 268.227 110.79V102.886C268.228 101.707 268.698 100.577 269.533 99.7436C270.367 98.9101 271.499 98.4412 272.68 98.4399H280.596C281.776 98.4412 282.908 98.9101 283.743 99.7436C284.578 100.577 285.047 101.707 285.048 102.886V110.79C285.047 111.969 284.578 113.099 283.743 113.933C282.908 114.766 281.776 115.235 280.596 115.237V115.237Z" fill="#CCCCCC"/>
<path d="M338.451 110.432H301.494C300.707 110.431 299.953 110.118 299.396 109.563C298.84 109.007 298.527 108.253 298.526 107.468V106.209C298.527 105.423 298.84 104.67 299.396 104.114C299.953 103.558 300.707 103.246 301.494 103.245H338.451C339.238 103.246 339.993 103.558 340.549 104.114C341.106 104.67 341.419 105.423 341.42 106.209V107.468C341.419 108.253 341.106 109.007 340.549 109.563C339.993 110.118 339.238 110.431 338.451 110.432Z" fill="#CCCCCC"/>
</g>
<defs>
<clipPath id="clip0">
<rect width="471" height="397" fill="white"/>
</clipPath>
</defs>
</svg>
