<svg width="24" height="24" viewBox="0 0 24 24" fill="none" xmlns="http://www.w3.org/2000/svg">
<circle cx="12" cy="12" r="12" fill="#BDE0FF"/>
<path d="M6.51429 12.9425C7.22437 12.9425 7.8 12.3669 7.8 11.6568C7.8 10.9467 7.22437 10.3711 6.51429 10.3711C5.80421 10.3711 5.22858 10.9467 5.22858 11.6568C5.22858 12.3669 5.80421 12.9425 6.51429 12.9425Z" fill="#539BE0"/>
<path d="M11.6571 12.9425C12.3672 12.9425 12.9429 12.3669 12.9429 11.6568C12.9429 10.9467 12.3672 10.3711 11.6571 10.3711C10.9471 10.3711 10.3714 10.9467 10.3714 11.6568C10.3714 12.3669 10.9471 12.9425 11.6571 12.9425Z" fill="#539BE0"/>
<path d="M16.8 12.9425C17.5101 12.9425 18.0857 12.3669 18.0857 11.6568C18.0857 10.9467 17.5101 10.3711 16.8 10.3711C16.0899 10.3711 15.5143 10.9467 15.5143 11.6568C15.5143 12.3669 16.0899 12.9425 16.8 12.9425Z" fill="#539BE0"/>
</svg>
