<svg width="40" height="40" viewBox="0 0 40 40" fill="none" xmlns="http://www.w3.org/2000/svg">
<path d="M38.4443 32.4556L23.0109 4.05561C22.7037 3.48961 22.2494 3.01702 21.696 2.68771C21.1426 2.3584 20.5105 2.18457 19.8665 2.18457C19.2225 2.18457 18.5904 2.3584 18.037 2.68771C17.4836 3.01702 17.0293 3.48961 16.7221 4.05561L1.29983 32.4556C0.994855 33.0017 0.838366 33.6182 0.845967 34.2436C0.853568 34.869 1.02499 35.4815 1.34315 36.02C1.6613 36.5585 2.11507 37.0042 2.6592 37.3126C3.20334 37.6211 3.81882 37.7815 4.44427 37.7778H35.2998C35.9189 37.7772 36.5273 37.6159 37.0654 37.3098C37.6035 37.0037 38.0529 36.5631 38.3698 36.0313C38.6867 35.4994 38.8601 34.8945 38.8732 34.2755C38.8862 33.6565 38.7384 33.0448 38.4443 32.5V32.4556ZM18.4443 11.1112C18.4443 10.6986 18.6082 10.3029 18.8999 10.0112C19.1916 9.7195 19.5873 9.55561 19.9998 9.55561C20.4124 9.55561 20.8081 9.7195 21.0998 10.0112C21.3915 10.3029 21.5554 10.6986 21.5554 11.1112V24.4445C21.5554 24.8571 21.3915 25.2527 21.0998 25.5444C20.8081 25.8362 20.4124 26 19.9998 26C19.5873 26 19.1916 25.8362 18.8999 25.5444C18.6082 25.2527 18.4443 24.8571 18.4443 24.4445V11.1112ZM19.9998 33.1667C19.6043 33.1667 19.2176 33.0494 18.8887 32.8297C18.5598 32.6099 18.3034 32.2975 18.1521 31.9321C18.0007 31.5666 17.9611 31.1645 18.0383 30.7765C18.1154 30.3886 18.3059 30.0322 18.5856 29.7525C18.8653 29.4728 19.2217 29.2823 19.6097 29.2051C19.9976 29.128 20.3997 29.1676 20.7652 29.319C21.1306 29.4703 21.443 29.7267 21.6628 30.0556C21.8825 30.3845 21.9998 30.7712 21.9998 31.1667C21.9998 31.4294 21.9481 31.6894 21.8476 31.9321C21.7471 32.1747 21.5998 32.3952 21.414 32.5809C21.2283 32.7666 21.0078 32.914 20.7652 33.0145C20.5225 33.115 20.2625 33.1667 19.9998 33.1667Z" fill="#FF7070"/>
</svg>
