<svg width="24" height="24" viewBox="0 0 24 24" fill="none" xmlns="http://www.w3.org/2000/svg">
<path fill-rule="evenodd" clip-rule="evenodd" d="M16.325 14.8987L21.705 20.2787C21.8941 20.468 22.0003 20.7246 22.0002 20.9921C22.0001 21.2596 21.8937 21.5161 21.7045 21.7052C21.5153 21.8943 21.2587 22.0005 20.9911 22.0004C20.7236 22.0003 20.4671 21.894 20.278 21.7047L14.898 16.3247C13.2897 17.5704 11.2673 18.1566 9.24213 17.9641C7.21698 17.7716 5.34123 16.8148 3.99648 15.2884C2.65173 13.7619 1.93899 11.7806 2.00325 9.74729C2.06751 7.71402 2.90395 5.7816 4.34241 4.34315C5.78086 2.9047 7.71328 2.06826 9.74655 2.004C11.7798 1.93973 13.7612 2.65248 15.2876 3.99723C16.814 5.34198 17.7708 7.21772 17.9633 9.24287C18.1559 11.268 17.5697 13.2905 16.324 14.8987H16.325ZM10 15.9997C11.5913 15.9997 13.1174 15.3676 14.2426 14.2424C15.3679 13.1172 16 11.591 16 9.99974C16 8.40845 15.3679 6.88232 14.2426 5.7571C13.1174 4.63189 11.5913 3.99974 10 3.99974C8.4087 3.99974 6.88258 4.63189 5.75736 5.7571C4.63214 6.88232 4 8.40845 4 9.99974C4 11.591 4.63214 13.1172 5.75736 14.2424C6.88258 15.3676 8.4087 15.9997 10 15.9997Z" fill="#539BE0"/>
</svg>
