<svg width="184" height="175" viewBox="0 0 184 175" fill="none" xmlns="http://www.w3.org/2000/svg">
<g clip-path="url(#clip0)">
<path d="M104.806 154.818C103.536 152.717 101.815 151.179 99.6525 150.604C97.7666 150.102 95.8273 150.187 93.9103 150.205L69.6699 150.425C67.5938 150.444 65.6033 152.568 65.6998 155.114C65.7955 157.638 67.4446 159.823 69.6699 159.803C76.7706 159.738 83.8714 159.674 90.9721 159.609C92.6461 159.594 94.3211 159.558 95.9953 159.564C96.3712 159.566 96.7456 159.589 97.1212 159.594C97.2122 159.596 97.2778 159.595 97.3242 159.592C97.3359 159.596 97.3457 159.6 97.3608 159.605C97.5567 159.669 97.7577 159.713 97.9548 159.773C97.8858 159.775 98.0827 159.92 98.1815 159.97C98.1951 160.001 98.2241 160.057 98.2724 160.144C98.3399 160.293 98.5397 160.747 98.5479 160.733C98.8481 161.629 99.0957 162.549 99.289 163.485C99.7504 165.551 99.8518 165.982 99.9182 167.92C100.002 170.367 101.684 172.725 103.888 172.609C105.967 172.499 107.948 170.545 107.858 167.92C107.707 163.497 107.049 158.528 104.806 154.818Z" fill="#E6E6E6"/>
<path d="M71.0948 165.399C70.6395 162.14 70.1929 158.88 69.7287 155.623C69.2578 152.319 68.2959 149.294 66.119 147.125C65.5373 146.546 64.9342 146.005 64.3285 145.466C64.1155 145.277 63.9029 145.087 63.6924 144.893C63.6798 144.881 63.6718 144.874 63.6609 144.864C63.6378 144.841 63.61 144.813 63.5727 144.775C62.6654 143.868 61.7887 142.921 60.9536 141.914C60.2119 141.02 59.5027 140.088 58.8259 139.117C58.6568 138.875 58.4898 138.63 58.325 138.383C58.2967 138.341 58.144 138.108 58.0435 137.956C57.9499 137.804 57.779 137.529 57.7503 137.481C57.5578 137.16 57.3687 136.835 57.183 136.508C55.9185 134.27 54.8236 131.905 53.9109 129.441C53.8204 129.196 53.7321 128.95 53.6458 128.703C53.6227 128.627 53.5928 128.531 53.553 128.401C53.3691 127.804 53.1856 127.208 53.0174 126.603C52.6601 125.319 52.3529 124.017 52.0959 122.695C51.9688 122.042 51.8544 121.387 51.7526 120.727C51.7002 120.388 51.6511 120.049 51.6054 119.708C51.5979 119.652 51.5533 119.284 51.527 119.077C51.5077 118.868 51.4716 118.499 51.4667 118.442C51.4376 118.099 51.4118 117.755 51.3893 117.412C51.3385 116.638 51.3042 115.863 51.2863 115.087C51.2558 113.707 51.2767 112.328 51.3491 110.948C51.3903 110.173 51.4489 109.4 51.5211 108.629C51.5255 108.581 51.5289 108.544 51.532 108.51C51.5364 108.475 51.5415 108.436 51.5475 108.387C51.601 107.961 51.6572 107.535 51.7201 107.111C51.9582 105.499 52.2679 103.903 52.6479 102.33C52.8278 101.586 53.0232 100.848 53.2342 100.116C53.3282 99.7912 53.4252 99.4675 53.5252 99.145C53.5186 99.1658 53.8185 98.2613 53.8225 98.2309C55.0123 94.9109 56.9583 91.8844 56.961 88.113C56.9628 85.5596 55.1337 83.1136 52.9909 83.2316C51.9225 83.2791 50.9115 83.8146 50.1709 84.7252C49.4303 85.6358 49.018 86.8504 49.0208 88.113C49.0208 88.1704 49.0206 88.2193 49.0204 88.2668C49.0004 88.3463 48.9837 88.4126 48.9687 88.4712C48.7367 89.0667 48.4524 89.6325 48.1978 90.2132C47.5004 91.8025 46.9052 93.444 46.3397 95.1096C45.414 97.8219 44.7055 100.631 44.2233 103.499C43.1754 109.784 43.094 116.24 43.9832 122.559C45.5225 133.64 50.5988 144.247 57.6559 151.377C58.2684 151.995 58.8957 152.593 59.529 153.179C59.7911 153.422 60.0553 153.66 60.3209 153.896C60.4464 154.008 60.9664 154.492 60.7377 154.257C61.2296 154.753 61.4366 155.003 61.563 155.368C61.5813 155.452 61.6062 155.566 61.64 155.723C61.7291 156.135 61.8137 156.545 61.8839 156.963C62.4982 160.612 62.9252 164.322 63.4383 167.994C63.7909 170.518 66.4213 172.16 68.322 171.404C70.5343 170.523 71.4727 168.103 71.0948 165.399Z" fill="#E6E6E6"/>
<path d="M105.208 174.863C103.541 174.868 101.94 174.092 100.756 172.705C99.5729 171.318 98.9037 169.433 98.8956 167.464V162.115C94.1541 162.742 77.9179 162.597 73.2638 161.714V167.25C73.2513 169.217 72.5807 171.099 71.3983 172.485C70.2158 173.871 68.6173 174.649 66.9513 174.649C65.2853 174.649 63.6868 173.871 62.5043 172.485C61.3219 171.099 60.6513 169.217 60.6388 167.25V156.38C54.3353 152.244 49.0803 146.197 45.4164 138.862C41.7524 131.527 39.8122 123.17 39.7959 114.654C39.7959 100.051 45.3994 86.4292 55.1697 77.2805C61.5223 71.3119 69.2406 67.7224 77.3333 66.973C78.4318 66.8713 79.5369 66.8198 80.6183 66.8198C84.4276 66.8198 101.615 67.5148 105.927 68.98L115.76 57.4569C115.904 57.2852 116.089 57.1682 116.29 57.1209C116.491 57.0736 116.7 57.0981 116.889 57.1912C117.08 57.2808 117.243 57.4364 117.357 57.6376C117.472 57.8387 117.532 58.0761 117.53 58.3185V60.1506L119.445 57.9111C119.589 57.7392 119.773 57.6221 119.974 57.5747C120.175 57.5272 120.384 57.5517 120.573 57.6449C120.764 57.7345 120.927 57.8901 121.042 58.0914C121.156 58.2926 121.217 58.5301 121.215 58.7726V79.2462C126.149 84.4995 129.909 91.1091 132.163 98.4893C134.417 105.869 135.095 113.792 134.136 121.556C133.177 129.319 130.612 136.683 126.667 142.996C122.722 149.308 117.519 154.374 111.52 157.743V167.464C111.512 169.433 110.843 171.318 109.66 172.705C108.476 174.092 106.875 174.868 105.208 174.863ZM99.3918 161.45V167.464C99.4043 169.276 100.023 171.009 101.112 172.285C102.201 173.561 103.674 174.277 105.208 174.277C106.742 174.277 108.215 173.561 109.304 172.285C110.393 171.009 111.012 169.276 111.024 167.464V157.373L111.166 157.294C117.897 153.522 123.611 147.62 127.674 140.244C132.851 130.832 135.004 119.542 133.744 108.417C132.483 97.2922 127.892 87.0681 120.801 79.5951L120.719 79.5076V58.7726C120.72 58.6466 120.689 58.523 120.63 58.4185C120.57 58.3139 120.485 58.2334 120.386 58.1878C120.287 58.1379 120.178 58.1244 120.072 58.1492C119.967 58.1739 119.87 58.2357 119.795 58.3265L117.034 61.556V58.3185C117.036 58.1925 117.005 58.0689 116.945 57.9643C116.886 57.8597 116.8 57.7792 116.701 57.7336C116.602 57.6838 116.492 57.6705 116.387 57.6954C116.281 57.7203 116.184 57.7823 116.109 57.8733L106.066 69.6431L105.923 69.5903C101.914 68.1085 84.4566 67.4059 80.6182 67.4059C79.5498 67.4059 78.4577 67.4568 77.3723 67.5574C69.3779 68.2976 61.7534 71.8435 55.4781 77.7396C45.8272 86.7766 40.2921 100.231 40.2921 114.654C40.3086 123.095 42.2385 131.376 45.8813 138.639C49.524 145.901 54.7468 151.879 61.0071 155.951L61.1351 156.035V167.25C61.1479 169.062 61.7663 170.794 62.8556 172.07C63.945 173.346 65.4171 174.062 66.9513 174.062C68.4855 174.062 69.9576 173.346 71.0469 172.07C72.1363 170.794 72.7547 169.062 72.7675 167.25V161.012L73.0615 161.077C77.2439 162.007 94.8552 162.153 99.1114 161.494L99.3918 161.45Z" fill="#3F3D56"/>
<path d="M71.569 34.907L44.0911 44.6596C43.2171 44.9711 42.4835 45.6795 42.0516 46.6293C41.6196 47.5791 41.5245 48.6926 41.7872 49.7251C42.0499 50.7576 42.6489 51.6248 43.4527 52.136C44.2564 52.6473 45.1991 52.7608 46.0737 52.4517L70.1199 43.9153L70.6237 43.7365C70.7256 40.6708 71.4298 37.6751 72.6807 34.9861C72.5237 34.9027 72.3559 34.8512 72.1844 34.8338C71.9772 34.8101 71.7681 34.835 71.569 34.907Z" fill="#6C63FF"/>
<path d="M45.5985 54.5309C45.2337 54.5299 44.8784 54.3935 44.5829 54.141C44.2873 53.8885 44.0664 53.5327 43.9514 53.1239L42.2332 47.0004C42.1614 46.7447 42.133 46.4748 42.1495 46.2061C42.1661 45.9374 42.2273 45.6752 42.3297 45.4345C42.4321 45.1937 42.5736 44.9792 42.7462 44.803C42.9188 44.6269 43.1191 44.4926 43.3357 44.4079L65.6999 35.6546C65.9164 35.5698 66.145 35.5363 66.3724 35.5558C66.5999 35.5754 66.8219 35.6476 67.0258 35.7685C67.2296 35.8894 67.4113 36.0565 67.5604 36.2603C67.7096 36.4641 67.8233 36.7006 67.8951 36.9563L69.6133 43.0798C69.7563 43.5834 69.7276 44.133 69.5334 44.6122C69.3392 45.0913 68.9947 45.4623 68.5729 45.6467C68.5522 45.6558 68.5314 45.6644 68.5103 45.6726L46.1465 54.4256C45.9698 54.4952 45.7847 54.5307 45.5985 54.5309Z" fill="#2F2E41"/>
<path d="M87.4816 24.0321C82.9678 24.0342 78.6319 26.1104 75.3915 29.8215C72.151 33.5325 70.2605 38.5871 70.1199 43.9153C70.1149 44.1234 70.1125 44.3344 70.1125 44.5454C70.1125 48.6025 71.1312 52.5685 73.0397 55.9419C74.9482 59.3153 77.6609 61.9445 80.8347 63.4971C84.0085 65.0497 87.5009 65.456 90.8701 64.6644C94.2394 63.8729 97.3343 61.9192 99.7634 59.0504C102.193 56.1816 103.847 52.5265 104.517 48.5473C105.187 44.5681 104.843 40.4436 103.529 36.6953C102.214 32.947 99.9877 29.7432 97.1313 27.4892C94.275 25.2352 90.9169 24.0321 87.4816 24.0321ZM87.4816 64.4725C83.0081 64.467 78.7191 62.3658 75.5558 58.6299C72.3926 54.894 70.6134 49.8287 70.6087 44.5454C70.6087 44.2728 70.6137 44.0032 70.6236 43.7365C70.758 39.8331 71.861 36.0624 73.7953 32.8934C75.7297 29.7243 78.4101 27.2967 81.5034 25.9124C84.5966 24.528 87.9661 24.2481 91.193 25.1073C94.4199 25.9665 97.3617 27.9271 99.6527 30.7451C101.944 33.5631 103.483 37.1143 104.079 40.957C104.674 44.7998 104.3 48.7646 103.004 52.3585C101.707 55.9524 99.5439 59.0167 96.7841 61.1706C94.0244 63.3244 90.7895 64.4726 87.4816 64.4725Z" fill="#3F3D56"/>
<path d="M102.121 44.5453C102.121 49.1308 100.579 53.5285 97.8334 56.771C95.0879 60.0134 91.3643 61.835 87.4816 61.835C83.5989 61.835 79.8752 60.0134 77.1298 56.771C74.3843 53.5285 72.8419 49.1308 72.8419 44.5453C72.8419 43.9973 72.8642 43.4581 72.9064 42.9247C73.2592 38.4992 75.0416 34.4042 77.8836 31.49C80.7256 28.5757 84.4088 27.0661 88.1684 27.2747C91.928 27.4832 95.4752 29.3939 98.0734 32.6099C100.672 35.8259 102.121 40.1002 102.121 44.5453Z" fill="#E6E6E6"/>
<path d="M91.8411 45.6941C91.4863 45.143 91.0195 44.7066 90.4839 44.4252C89.8234 44.0964 89.1412 43.8318 88.4443 43.6339V38.9276C89.5156 39.1184 90.5204 39.6594 91.3449 40.4896L92.1539 38.4529C91.6886 37.9634 91.1545 37.5736 90.5757 37.3012C89.9341 36.9944 89.2607 36.7904 88.5733 36.6946V34.3092H86.6999V36.718C85.9766 36.814 85.2787 37.0907 84.6529 37.5298C84.0875 37.925 83.6116 38.476 83.2657 39.1357C82.9357 39.7795 82.7647 40.5195 82.772 41.272C82.7398 42.0875 82.9398 42.8923 83.3402 43.5578C83.7088 44.1339 84.1955 44.5898 84.7545 44.8823C85.4256 45.2208 86.1195 45.4923 86.829 45.6941V50.2041C85.5647 50.0914 84.3601 49.5238 83.3775 48.5776L82.5686 50.6172C83.118 51.1537 83.7429 51.5723 84.4147 51.8539C85.1508 52.165 85.9199 52.3544 86.7 52.4165V54.7814H88.5733V52.3726C89.6139 52.2383 90.5896 51.7099 91.3548 50.8663C91.6918 50.4847 91.958 50.0245 92.1365 49.515C92.3151 49.0056 92.4021 48.4578 92.3921 47.9066C92.4232 47.117 92.2292 46.338 91.8411 45.6941ZM86.829 43.1358C86.3726 42.9723 85.9484 42.7034 85.5808 42.3445C85.4352 42.1915 85.3201 42.0023 85.2437 41.7905C85.1674 41.5788 85.1317 41.3496 85.1392 41.1196C85.1257 40.5977 85.2881 40.0907 85.5908 39.7101C85.9263 39.3107 86.3593 39.0453 86.829 38.9511V43.1358ZM89.6204 49.3718C89.3039 49.7552 88.8917 50.0089 88.4443 50.0956V46.2157C88.8719 46.3512 89.272 46.5874 89.6204 46.9102C89.7525 47.0434 89.8575 47.2101 89.9275 47.3978C89.9975 47.5855 90.0308 47.7895 90.0249 47.9945C90.0421 48.4974 89.8976 48.9894 89.6204 49.3718Z" fill="#6C63FF"/>
<path d="M46.3959 79.3487C46.0123 79.348 45.6396 79.1978 45.3357 78.9214C45.0318 78.6451 44.8135 78.258 44.7148 77.8202L43.7793 73.6385C43.6622 73.1129 43.7264 72.5539 43.9578 72.0841C44.1893 71.6143 44.569 71.2721 45.0138 71.1326L74.5265 61.9222C74.9719 61.785 75.4451 61.8616 75.8428 62.1354C76.2404 62.4092 76.53 62.8578 76.6483 63.3831L77.4408 66.926L77.2923 66.9396C69.7232 67.6347 62.4811 70.8757 56.4227 76.2793L56.3797 76.3039L46.8365 79.2812C46.6927 79.326 46.5446 79.3487 46.3959 79.3487Z" fill="#2F2E41"/>
<path d="M41.5081 100.005C38.0461 99.4005 34.735 97.9219 31.8007 95.6697C30.3469 94.5548 29.0011 93.2548 27.7874 91.7932C26.5895 90.3502 25.4435 88.71 24.8501 86.7882C24.2792 85.0102 24.3087 83.0411 24.9323 81.288C25.5475 79.5456 26.7225 78.1623 28.1999 77.4416C29.6861 76.7416 31.4817 76.6667 32.9281 77.4333C33.6173 77.7901 34.2138 78.3571 34.6562 79.0761C34.8618 79.4075 35.0141 79.7809 35.1053 80.1774C35.1901 80.5367 35.1978 80.9153 35.1278 81.279C35.043 81.6421 34.8934 81.9796 34.6891 82.2688C34.4848 82.5581 34.2305 82.7924 33.9432 82.9561C33.311 83.3391 32.626 83.5859 31.9204 83.6847C31.2108 83.799 30.1913 83.903 29.6208 83.2302C29.5033 83.0971 29.411 82.9362 29.3497 82.7581C29.3068 82.6218 29.2921 82.4753 29.3069 82.3308C29.2986 82.3945 29.3413 82.1924 29.3389 82.2005C29.3299 82.2304 29.2908 82.3032 29.3463 82.1913C29.3637 82.1544 29.383 82.1189 29.4042 82.0849C29.3853 82.1137 29.3439 82.1618 29.4178 82.0793C29.479 82.0003 29.5575 81.943 29.6447 81.9139C29.679 81.9021 29.7139 81.8927 29.7483 81.8816C29.8359 81.8533 29.6611 81.8831 29.7506 81.8797C29.7852 81.8784 29.8202 81.8794 29.8546 81.8776C29.9424 81.8729 29.7679 81.8493 29.8521 81.8743C29.8848 81.884 29.9172 81.8935 29.9494 81.9055C30.0194 81.9315 29.8998 81.8448 29.9473 81.9097C30.0028 81.9857 29.8889 81.8358 29.9521 81.9094C29.9835 81.9458 30.0131 81.9844 30.0408 82.0249C30.1504 82.1527 30.2981 82.2243 30.4521 82.2243C30.6061 82.2243 30.7538 82.1527 30.8634 82.0249C30.9692 81.8941 31.0283 81.7201 31.0283 81.5392C31.0283 81.3583 30.9692 81.1843 30.8634 81.0535C30.2898 80.2138 29.157 80.4213 28.5768 81.1309C27.8369 82.036 28.1299 83.4704 28.8496 84.2601C29.6644 85.1541 30.8184 85.2162 31.8665 85.0663C32.7522 84.9661 33.6154 84.678 34.4146 84.2159C35.2086 83.7551 35.8296 82.9627 36.1574 81.9922C36.3054 81.4742 36.3586 80.9251 36.3134 80.381C36.2682 79.837 36.1257 79.3105 35.8953 78.8364C34.9699 76.7818 33.0538 75.7284 31.1599 75.546C30.1848 75.4558 29.2042 75.5948 28.2749 75.9551C27.3456 76.3154 26.4861 76.8898 25.746 77.645C24.3195 79.1617 23.4411 81.2678 23.2924 83.5279C23.1271 85.8711 23.8969 88.1467 25.0192 90.0377C26.1942 91.9591 27.5963 93.6716 29.1827 95.123C32.2842 98.0474 35.9222 100.074 39.8056 101.04C40.2676 101.153 40.732 101.249 41.1988 101.329C41.3474 101.372 41.5041 101.346 41.637 101.257C41.7699 101.168 41.8691 101.022 41.9143 100.85C41.9542 100.674 41.9339 100.487 41.8579 100.329C41.7819 100.171 41.6562 100.054 41.5081 100.005L41.5081 100.005Z" fill="#3F3D56"/>
<path d="M96.9366 70.15C91.8643 70.0654 86.808 70.2175 81.7677 70.6061C80.0448 70.7389 78.5542 71.4581 78.5542 72.6668C78.5542 73.6774 80.033 74.8613 81.7677 74.7275C86.8054 74.339 91.8617 74.1869 96.9366 74.2714C101.074 74.3404 101.071 70.2189 96.9366 70.15Z" fill="#CCCCCC"/>
<path d="M89.4397 74.0673C88.8915 74.0673 76.0145 74.0431 76.0145 71.9424C76.0145 69.8418 88.8915 69.8176 89.4397 69.8176C89.9879 69.8176 102.865 69.8418 102.865 71.9424C102.865 74.0431 89.9879 74.0673 89.4397 74.0673ZM76.518 71.9424C76.8704 72.5793 81.6038 73.4812 89.4397 73.4812C97.2757 73.4812 102.009 72.5793 102.361 71.9424C102.009 71.3056 97.2757 70.4037 89.4397 70.4037C81.6038 70.4037 76.8704 71.3056 76.518 71.9424V71.9424Z" fill="#3F3D56"/>
<path d="M130.295 129.292C133.146 129.198 136.694 129.082 139.427 126.724C140.241 125.993 140.909 125.061 141.386 123.992C141.863 122.924 142.136 121.746 142.186 120.539C142.242 118.677 141.672 117.052 140.582 115.964C139.154 114.539 137.07 114.205 134.823 114.985L137.151 94.897L135.442 94.6205L132.706 118.236L134.133 117.463C135.787 116.567 138.058 116.111 139.469 117.519C139.815 117.887 140.085 118.345 140.258 118.856C140.43 119.368 140.5 119.919 140.463 120.468C140.421 121.365 140.216 122.242 139.862 123.038C139.507 123.833 139.012 124.529 138.409 125.079C136.282 126.914 133.455 127.15 130.247 127.256L130.295 129.292Z" fill="#3F3D56"/>
<path d="M125.571 96.6294H116.283V98.6661H125.571V96.6294Z" fill="#3F3D56"/>
<path d="M50.5989 88.7161C50.1855 88.7146 49.7861 88.5392 49.4721 88.2214C49.1582 87.9037 48.9504 87.4643 48.8858 86.982L48.3189 82.709C48.2481 82.1716 48.3607 81.6229 48.632 81.1834C48.9033 80.7439 49.3111 80.4495 49.766 80.3648L79.9216 74.7844C80.3767 74.7008 80.8412 74.8338 81.2133 75.1542C81.5854 75.4746 81.8347 75.9563 81.9064 76.4935L82.4733 80.7667C82.5442 81.3041 82.4316 81.8527 82.1603 82.2922C81.889 82.7317 81.4812 83.0261 81.0263 83.1109L50.8707 88.6911C50.7808 88.7077 50.6899 88.7161 50.5989 88.7161Z" fill="#2F2E41"/>
<path d="M38.119 38.6396C45.1079 38.6396 50.7736 31.9484 50.7736 23.6943C50.7736 15.4402 45.1079 8.7489 38.119 8.7489C31.13 8.7489 25.4644 15.4402 25.4644 23.6943C25.4644 31.9484 31.13 38.6396 38.119 38.6396Z" fill="#6C63FF"/>
<path d="M45.2839 27.5611C45.6883 27.394 46.0578 27.1266 46.3674 26.7769C46.5723 26.5275 46.7285 26.2282 46.8252 25.9001C46.9218 25.5719 46.9565 25.2227 46.9269 24.877C46.9097 24.6307 46.8445 24.3923 46.7364 24.1806C46.6282 23.9689 46.4801 23.7896 46.3036 23.6568C45.8456 23.3241 45.2404 23.3367 44.6295 23.6712L44.559 17.8373L44.0628 17.8456L44.1456 24.704L44.5234 24.4114C44.9614 24.0727 45.5908 23.8271 46.0436 24.156C46.1556 24.2431 46.249 24.3595 46.3167 24.4962C46.3844 24.6329 46.4245 24.7862 46.4339 24.9442C46.4547 25.2017 46.4284 25.4615 46.3566 25.706C46.2848 25.9504 46.1693 26.1737 46.0179 26.3607C45.48 26.991 44.6838 27.2023 43.775 27.3954L43.863 27.9722C44.3461 27.8856 44.8216 27.748 45.2839 27.5611Z" fill="#2F2E41"/>
<path d="M49.6688 17.4279L47.0262 17.9005L47.1005 18.4799L49.7431 18.0073L49.6688 17.4279Z" fill="#2F2E41"/>
<path d="M41.3275 18.9194L38.6848 19.3921L38.7591 19.9715L41.4018 19.4988L41.3275 18.9194Z" fill="#2F2E41"/>
<path d="M46.4817 88.4548C46.0266 88.4536 45.5826 88.2888 45.2087 87.9823C44.8349 87.6758 44.5489 87.2422 44.3889 86.739L35.6639 59.1431C34.5975 55.7587 34.7113 52.0128 35.9805 48.7274C37.2497 45.442 39.5706 42.8853 42.4339 41.6183L49.5284 38.4897C49.8027 38.3679 50.0947 38.3113 50.3876 38.3234C50.6805 38.3354 50.9685 38.4157 51.235 38.5596C51.5009 38.6999 51.7404 38.9014 51.9396 39.1523C52.1388 39.4031 52.2936 39.6984 52.3951 40.0207L68.5574 76.0607C68.6624 76.3857 68.7118 76.732 68.703 77.0796C68.6942 77.4273 68.6272 77.7694 68.506 78.0864C68.3848 78.4034 68.2117 78.6889 67.9967 78.9266C67.7816 79.1643 67.5289 79.3493 67.2531 79.4712L47.2622 88.2872C47.0126 88.3978 46.7483 88.4545 46.4817 88.4548Z" fill="#2F2E41"/>
<path d="M47.3759 39.439L63.4122 64.7657L52.5611 39.7048C52.4715 39.4124 52.334 39.1437 52.1564 38.9141C51.9789 38.6844 51.7647 38.4984 51.5263 38.3665C51.2878 38.2346 51.0297 38.1595 50.7666 38.1455C50.5036 38.1314 50.2408 38.1788 49.9932 38.2847L47.3759 39.439Z" fill="#E6E6E6"/>
<path d="M72.7675 58.673L44.1345 56.4948C43.6831 56.4604 43.242 56.3214 42.8361 56.0857C42.4303 55.85 42.0677 55.5223 41.7691 55.1211C41.4706 54.7199 41.2418 54.2532 41.0959 53.7476C40.9501 53.242 40.89 52.7074 40.919 52.1744C40.9481 51.6414 41.0658 51.1203 41.2654 50.641C41.4649 50.1617 41.7425 49.7335 42.0822 49.3809C42.4219 49.0283 42.8171 48.7581 43.2451 48.5859C43.6732 48.4136 44.1259 48.3426 44.5772 48.3769L73.2102 50.555C73.4216 50.5711 73.6282 50.6362 73.8183 50.7465C74.0084 50.8569 74.1782 51.0104 74.318 51.1983C74.4578 51.3862 74.565 51.6047 74.6333 51.8415C74.7016 52.0783 74.7297 52.3286 74.7161 52.5782L74.4807 56.8946C74.4532 57.3987 74.2573 57.8693 73.936 58.2028C73.6147 58.5363 73.1944 58.7055 72.7675 58.673Z" fill="#6C63FF"/>
<path d="M65.1164 60.0694C65.0786 60.0694 65.0407 60.068 65.0027 60.0651H65.0026L41.4908 58.2765C41.2632 58.2592 41.0406 58.1891 40.8359 58.0703C40.6312 57.9514 40.4484 57.7861 40.2978 57.5838C40.1472 57.3815 40.0318 57.1461 39.9583 56.8911C39.8847 56.6361 39.8544 56.3665 39.8691 56.0977L40.2711 48.7251C40.2858 48.4563 40.3452 48.1935 40.4458 47.9518C40.5465 47.71 40.6865 47.4941 40.8578 47.3163C41.0291 47.1384 41.2285 47.0022 41.4444 46.9153C41.6603 46.8285 41.8886 46.7927 42.1162 46.81L65.628 48.5985C66.0875 48.6341 66.5163 48.8834 66.8203 49.2919C67.1243 49.7004 67.2787 50.2346 67.2497 50.7773L66.8477 58.15C66.8255 58.545 66.7073 58.9241 66.5072 59.2418C66.3071 59.5594 66.0336 59.8021 65.7196 59.9407C65.5267 60.026 65.3224 60.0695 65.1164 60.0694Z" fill="#2F2E41"/>
<path d="M37.9739 13.7557C39.6387 12.0648 41.9248 13.5774 43.8339 13.3126C45.6604 13.0593 47.1027 11.1243 47.4712 9.06864C47.901 6.67035 46.847 4.26761 45.2934 2.77232C43.5919 1.1346 41.3352 0.664457 39.1967 0.967446C36.7458 1.31471 34.5043 2.66399 32.493 4.29602C30.5516 5.82254 28.7663 7.60922 27.1727 9.62043C25.7457 11.4818 24.5366 13.7004 24.1505 16.2051C23.7997 18.4814 24.0676 21.0037 25.2069 22.932C25.8111 23.9204 26.6208 24.7081 27.5578 25.2193C28.5348 25.7859 29.5769 26.191 30.5235 26.8316C31.9546 27.8002 33.3456 29.8086 32.8973 31.8986C32.8012 32.3552 32.6115 32.7769 32.3449 33.1265C32.0247 33.5464 31.447 32.9915 31.7681 32.5706C32.3321 31.8312 32.3099 30.8451 32.0093 29.9624C31.6519 28.9677 31.0191 28.1458 30.2145 27.6314C29.2237 26.9624 28.1298 26.5495 27.1143 25.9401C26.1424 25.3834 25.2986 24.5577 24.655 23.5331C23.4396 21.5383 23.0761 18.9422 23.3517 16.5407C23.65 13.9418 24.7806 11.5802 26.1979 9.6012C27.7404 7.44748 29.635 5.6244 31.5706 3.98662C33.6474 2.22927 35.9419 0.743544 38.481 0.206181C40.682 -0.259627 43.0676 0.0271539 44.9923 1.4437C46.7888 2.76595 48.1664 5.04048 48.3034 7.58205C48.3526 8.73845 48.14 9.88946 47.6875 10.9166C47.235 11.9437 46.5589 12.8099 45.7288 13.426C44.877 14.028 43.8867 14.2989 42.8976 14.2006C41.8402 14.1207 40.7817 13.7383 39.7175 13.8444C39.236 13.879 38.7771 14.0979 38.4104 14.4682C38.0466 14.8376 37.6132 14.1222 37.9739 13.7558V13.7557Z" fill="#2F2E41"/>
<path d="M183.596 175H0.403599C0.32539 175 0.250464 174.963 0.195242 174.897C0.140021 174.832 0.109009 174.743 0.109009 174.651C0.109009 174.559 0.140021 174.47 0.195242 174.405C0.250464 174.339 0.32539 174.302 0.403599 174.302H183.596C183.675 174.302 183.75 174.339 183.805 174.404C183.861 174.47 183.892 174.559 183.892 174.651C183.892 174.744 183.861 174.832 183.805 174.898C183.75 174.963 183.675 175 183.596 175Z" fill="#3F3D56"/>
</g>
<defs>
<clipPath id="clip0">
<rect width="183.784" height="175" fill="white" transform="translate(0.108093)"/>
</clipPath>
</defs>
</svg>
