<svg width="184" height="175" viewBox="0 0 184 175" fill="none" xmlns="http://www.w3.org/2000/svg">
<g clip-path="url(#clip0)">
<path d="M176.708 117.114C175.381 119.198 173.735 120.75 171.949 121.955H171.947C171.779 122.069 171.611 122.181 171.441 122.286H171.439L171.436 122.289L171.434 122.286H171.432C171.432 122.287 171.432 122.287 171.432 122.287C171.432 122.288 171.432 122.288 171.432 122.288C171.431 122.289 171.431 122.289 171.431 122.289C171.431 122.289 171.43 122.289 171.43 122.289H171.428L171.426 122.286C171.424 122.289 171.424 122.289 171.421 122.286L171.419 122.289L171.417 122.286H171.415C171.413 122.289 171.413 122.289 171.411 122.286H171.409C170.213 123.03 168.986 123.661 167.733 124.176C160.37 127.179 152.631 127.76 145.09 125.876C144.946 125.839 144.803 125.802 144.659 125.765V100.642C144.801 100.555 144.946 100.469 145.09 100.385C146.031 99.8243 146.984 99.3091 147.949 98.8393C149.336 98.1579 150.743 97.5736 152.169 97.0862C156.822 95.4671 161.622 94.909 166.396 95.4322C167.264 95.5252 168.13 95.6594 168.994 95.8349C170.801 96.1973 172.697 96.8292 174.364 97.9256H174.366C174.61 98.0898 174.849 98.2601 175.086 98.4429C176.568 99.5982 177.817 101.187 178.58 103.365C178.854 104.147 179.051 104.979 179.166 105.839V105.846C179.209 106.143 179.239 106.443 179.263 106.741C179.534 110.408 178.477 114.332 176.708 117.114Z" fill="#F2F2F2"/>
<path d="M179.263 106.741C179.242 106.748 179.22 106.752 179.198 106.753C175.508 106.985 171.823 107.33 168.143 107.788H168.136C168.121 107.791 168.108 107.791 168.093 107.794C164.315 108.265 160.544 108.854 156.781 109.562C156.622 109.593 156.464 109.624 156.307 109.652C153.705 110.151 151.108 110.704 148.515 111.312C147.371 111.582 146.229 111.863 145.09 112.155C144.946 112.192 144.803 112.226 144.659 112.266V111.328C144.803 111.288 144.948 111.254 145.09 111.216C148.886 110.25 152.694 109.407 156.516 108.686C157.477 108.5 158.439 108.325 159.403 108.159C162.186 107.676 164.974 107.259 167.766 106.908C167.97 106.883 168.173 106.858 168.378 106.834C171.951 106.397 175.53 106.066 179.114 105.839C179.132 105.838 179.149 105.84 179.166 105.846C179.511 105.889 179.584 106.632 179.263 106.741Z" fill="white"/>
<path d="M171.599 121.374C167.002 121.422 162.473 118.619 159.221 113.98C158.304 112.666 157.495 111.204 156.812 109.622C156.593 109.117 156.08 109.674 156.297 110.175C158.823 115.999 163.029 120.147 167.667 121.672C168.984 122.101 170.332 122.308 171.682 122.29C172.094 122.285 172.009 121.369 171.599 121.373V121.374Z" fill="white"/>
<path d="M152.169 97.0863C152.149 97.1734 152.114 97.2515 152.067 97.3129C152.019 97.3743 151.962 97.4169 151.9 97.4363C150.846 97.8332 149.828 98.4049 148.866 99.1398C147.462 100.206 146.187 101.592 145.09 103.244C145.032 103.327 144.976 103.411 144.922 103.498C144.831 103.634 144.745 103.773 144.659 103.916V102.566C144.797 102.355 144.941 102.147 145.09 101.949C145.956 100.757 146.915 99.7134 147.949 98.8394C149.336 98.158 150.743 97.5736 152.169 97.0863Z" fill="white"/>
<path d="M174.745 97.6816C171.821 99.4887 169.374 102.591 167.761 106.536C167.728 106.648 167.728 106.775 167.76 106.889C167.792 107.002 167.853 107.092 167.931 107.141C168.01 107.185 168.098 107.185 168.176 107.139C168.254 107.093 168.318 107.006 168.352 106.895C169.892 103.169 172.215 100.243 174.987 98.5375C175.367 98.3039 175.126 97.4475 174.745 97.6816L174.745 97.6816Z" fill="white"/>
<path d="M183.561 71.3752C183.061 74.1071 182.102 76.5819 180.911 78.8398L180.909 78.8429C180.799 79.0536 180.685 79.2673 180.566 79.4717V79.4748C179.739 80.9398 178.846 82.3253 177.893 83.6221C174.466 88.3173 170.595 92.2932 166.396 95.4323C159.788 100.394 152.404 103.327 145.09 103.495C145.034 103.498 144.978 103.498 144.922 103.498C144.834 103.501 144.745 103.501 144.659 103.501V89.4235C144.799 89.0394 144.943 88.6553 145.09 88.2744C146.991 83.3572 149.308 78.7981 151.99 74.7018C152.055 74.5996 152.121 74.4974 152.188 74.3982C153.196 72.8682 154.253 71.4114 155.359 70.0279C159.614 64.6497 164.53 60.4634 169.855 57.685C171.572 56.7991 173.455 56.0898 175.286 55.9505C175.555 55.9288 175.823 55.9195 176.092 55.9226C177.779 55.9566 179.397 56.5297 180.777 57.9482C181.272 58.4589 181.716 59.0643 182.096 59.7478C182.229 59.9863 182.352 60.231 182.471 60.4819V60.485C183.897 63.5513 184.229 67.7297 183.561 71.3752Z" fill="#F2F2F2"/>
<path d="M182.471 60.4819V60.485C182.455 60.505 182.437 60.5226 182.419 60.5376C179.231 63.2044 176.083 65.9683 172.975 68.8292C172.97 68.8323 172.968 68.8354 172.964 68.8385C172.951 68.851 172.939 68.8623 172.925 68.8726C169.73 71.815 166.581 74.8566 163.477 77.9973C163.347 78.1274 163.216 78.2606 163.084 78.3938C160.941 80.5712 158.82 82.7951 156.721 85.0655C152.757 89.3584 148.88 93.8103 145.09 98.4212C144.946 98.5947 144.803 98.7712 144.659 98.9478V97.7429C144.801 97.5664 144.946 97.3898 145.09 97.2164C146.542 95.454 148.007 93.7164 149.485 92.0035C149.926 91.4925 150.37 90.9814 150.814 90.4765C154.756 85.9637 158.787 81.6192 162.906 77.4429H162.908C163.718 76.6221 164.529 75.8085 165.342 75.0022C167.651 72.7164 169.987 70.4853 172.348 68.3088C172.518 68.1509 172.69 67.9929 172.863 67.835C175.885 65.0597 178.947 62.3754 182.048 59.7819C182.064 59.7686 182.079 59.7572 182.096 59.7478C182.419 59.5619 182.723 60.1752 182.471 60.4819Z" fill="white"/>
<path d="M180.413 78.559C176.358 81.6724 171.441 82.2153 167.063 80.2789C165.826 79.728 164.637 78.9729 163.521 78.0288C163.164 77.7276 162.89 78.5636 163.244 78.8622C167.362 82.3323 172.427 83.1963 177.027 81.4494C178.332 80.9498 179.592 80.2335 180.782 79.3151C181.146 79.0359 180.774 78.2817 180.413 78.559V78.559Z" fill="white"/>
<path d="M150.071 89.8918C149.87 88.2703 149.801 86.6208 149.866 84.9765C150.011 81.2265 150.809 77.5891 152.188 74.3989C153.197 72.8693 154.255 71.4123 155.36 70.0278C155.37 70.1184 155.364 70.2113 155.342 70.2973C155.32 70.3834 155.282 70.4597 155.234 70.5187C154.429 71.574 153.713 72.7597 153.098 74.052C150.903 78.6578 150.047 84.3142 150.711 89.8151C150.722 89.8775 150.721 89.9428 150.709 90.0048C150.697 90.0668 150.675 90.1234 150.643 90.1691C150.597 90.2268 150.542 90.2662 150.482 90.2833C150.422 90.3004 150.36 90.2946 150.302 90.2665C150.244 90.2385 150.192 90.1891 150.152 90.1234C150.111 90.0577 150.083 89.9778 150.071 89.8918Z" fill="white"/>
<path d="M175.544 55.4772C173.538 59.0306 172.374 63.4117 172.22 67.9827C172.227 68.1045 172.268 68.2171 172.333 68.2961C172.398 68.375 172.482 68.414 172.566 68.4046C172.65 68.3916 172.728 68.3326 172.782 68.2398C172.837 68.147 172.865 68.0274 172.86 67.9061C173.02 63.578 174.131 59.4348 176.035 56.0738C176.296 55.613 175.806 55.0155 175.544 55.4772Z" fill="white"/>
<path d="M153.235 65.6544V65.6575C153.22 65.9238 153.203 66.1871 153.183 66.4504V66.4566C153.034 68.3306 152.8 70.1887 152.483 72.0194C152.333 72.9176 152.169 73.8097 151.99 74.7017C151.969 74.8163 151.945 74.9309 151.921 75.0424V75.0455C151.395 77.6399 150.766 80.189 150.038 82.6805C148.699 87.2675 147.041 91.6487 145.09 95.7574C144.95 96.0579 144.806 96.3583 144.659 96.6557V48.1513C144.803 48.1389 144.946 48.1389 145.09 48.1451C145.159 48.1451 145.228 48.1482 145.297 48.1544C145.905 48.2003 146.505 48.3681 147.081 48.653C147.283 48.7491 147.479 48.8575 147.673 48.9783C150.023 50.4588 151.869 53.7234 152.671 57.3132C153.272 60.0017 153.392 62.8296 153.235 65.6544Z" fill="#F2F2F2"/>
<path d="M147.673 48.9783C147.668 49.0087 147.66 49.0379 147.649 49.0651C146.777 51.5027 145.924 53.9527 145.09 56.4151C144.946 56.8394 144.801 57.2669 144.659 57.6912V55.585C144.801 55.1637 144.945 54.7425 145.09 54.3213C145.734 52.4443 146.389 50.5755 147.055 48.7151C147.062 48.6933 147.071 48.6726 147.081 48.6531C147.279 48.2443 147.77 48.523 147.673 48.9783Z" fill="white"/>
<path d="M153.304 66.1531C153.265 66.2522 153.227 66.3513 153.183 66.4505C152.551 68.0354 151.798 69.5147 150.939 70.8611C149.288 73.4356 147.301 75.5164 145.09 76.9845C144.948 77.0836 144.803 77.1766 144.659 77.2633V76.2566C144.803 76.1637 144.948 76.0677 145.09 75.9686C148.29 73.7739 150.948 70.2275 152.71 65.8031C152.735 65.7399 152.77 65.6853 152.811 65.643C152.852 65.6007 152.899 65.5717 152.949 65.5579C152.999 65.5441 153.05 65.5458 153.1 65.563C153.149 65.5802 153.195 65.6125 153.235 65.6575C153.262 65.6835 153.286 65.717 153.304 65.756C153.322 65.795 153.335 65.8387 153.341 65.8848C153.348 65.9308 153.348 65.9782 153.341 66.0242C153.335 66.0703 153.322 66.1141 153.304 66.1531Z" fill="white"/>
<path d="M145.09 10.2212V33.7611H144.659V33.5102H0.538961V33.7611H0.108109V10.2212C0.109959 7.51121 0.85954 4.91295 2.19235 2.99667C3.52515 1.08039 5.3323 0.00266012 7.21717 0H137.981C139.866 0.00266012 141.673 1.08039 143.006 2.99667C144.338 4.91295 145.088 7.51121 145.09 10.2212Z" fill="#6C63FF"/>
<path d="M137.981 0H7.21717C5.3323 0.00266012 3.52515 1.08039 2.19235 2.99667C0.85954 4.91295 0.109959 7.51121 0.108109 10.2212V144.646C0.109959 147.356 0.85954 149.954 2.19235 151.871C3.52515 153.787 5.3323 154.865 7.21717 154.867H137.981C139.866 154.865 141.673 153.787 143.006 151.871C144.338 149.954 145.088 147.356 145.09 144.646V10.2212C145.088 7.51121 144.338 4.91295 143.006 2.99667C141.673 1.08039 139.866 0.00266012 137.981 0ZM144.659 144.646C144.657 147.192 143.952 149.632 142.701 151.432C141.449 153.232 139.751 154.245 137.981 154.248H7.21717C5.44669 154.245 3.74937 153.232 2.49746 151.432C1.24554 149.632 0.54122 147.192 0.538961 144.646V10.2212C0.54122 7.67569 1.24554 5.23533 2.49746 3.43535C3.74937 1.63537 5.44669 0.622717 7.21717 0.619469H137.981C139.751 0.622718 141.449 1.63537 142.701 3.43535C143.952 5.23533 144.657 7.67569 144.659 10.2212V144.646Z" fill="#3F3D56"/>
<path d="M29.406 23.0752C31.7856 23.0752 33.7146 20.3017 33.7146 16.8805C33.7146 13.4592 31.7856 10.6858 29.406 10.6858C27.0265 10.6858 25.0975 13.4592 25.0975 16.8805C25.0975 20.3017 27.0265 23.0752 29.406 23.0752Z" fill="white"/>
<path d="M115.792 23.0752C118.171 23.0752 120.1 20.3017 120.1 16.8805C120.1 13.4592 118.171 10.6858 115.792 10.6858C113.412 10.6858 111.483 13.4592 111.483 16.8805C111.483 20.3017 113.412 23.0752 115.792 23.0752Z" fill="white"/>
<path d="M41.8544 85.952H16.2238C15.138 85.9502 14.097 85.3293 13.3292 84.2253C12.5614 83.1214 12.1295 81.6247 12.1283 80.0635V62.6463C12.1295 61.0851 12.5614 59.5884 13.3292 58.4845C14.097 57.3805 15.138 56.7596 16.2238 56.7578H41.8544C42.9403 56.7596 43.9813 57.3805 44.7491 58.4845C45.5169 59.5884 45.9487 61.0851 45.95 62.6463V80.0635C45.9487 81.6247 45.5169 83.1214 44.7491 84.2253C43.9813 85.3293 42.9403 85.9502 41.8544 85.952Z" fill="#6C63FF"/>
<path d="M85.4563 85.952H59.8257C58.7399 85.9502 57.6989 85.3293 56.9311 84.2253C56.1633 83.1214 55.7314 81.6247 55.7302 80.0635V62.6463C55.7314 61.0851 56.1633 59.5884 56.9311 58.4845C57.6989 57.3805 58.7399 56.7596 59.8257 56.7578H85.4563C86.5422 56.7596 87.5832 57.3805 88.351 58.4845C89.1188 59.5884 89.5507 61.0851 89.5519 62.6463V80.0635C89.5507 81.6247 89.1188 83.1214 88.351 84.2253C87.5832 85.3293 86.5422 85.9502 85.4563 85.952Z" fill="#6C63FF"/>
<path d="M85.4563 130.954H59.8258C58.707 130.952 57.6344 130.312 56.8434 129.175C56.0523 128.037 55.6073 126.495 55.6061 124.887V107.469C55.6073 105.861 56.0523 104.319 56.8434 103.181C57.6344 102.044 58.707 101.404 59.8258 101.402H85.4563C86.5751 101.404 87.6476 102.044 88.4387 103.181C89.2298 104.319 89.6747 105.861 89.676 107.469V124.887C89.6747 126.495 89.2298 128.037 88.4387 129.175C87.6476 130.312 86.5751 130.952 85.4563 130.954Z" fill="#F2F2F2"/>
<path d="M41.7703 130.954H16.1397C15.021 130.952 13.9484 130.312 13.1574 129.175C12.3663 128.037 11.9213 126.495 11.9201 124.887V107.469C11.9213 105.861 12.3663 104.319 13.1574 103.181C13.9484 102.044 15.021 101.404 16.1397 101.402H41.7703C42.889 101.404 43.9616 102.044 44.7527 103.181C45.5437 104.319 45.9887 105.861 45.99 107.469V124.887C45.9887 126.495 45.5437 128.037 44.7527 129.175C43.9616 130.312 42.889 130.952 41.7703 130.954Z" fill="#F2F2F2"/>
<path d="M129.058 130.954H103.428C102.309 130.952 101.236 130.312 100.445 129.175C99.6542 128.037 99.2093 126.495 99.208 124.887V107.469C99.2093 105.861 99.6542 104.319 100.445 103.181C101.236 102.044 102.309 101.404 103.428 101.402H129.058C130.177 101.404 131.25 102.044 132.041 103.181C132.832 104.319 133.277 105.861 133.278 107.469V124.887C133.277 126.495 132.832 128.037 132.041 129.175C131.25 130.312 130.177 130.952 129.058 130.954Z" fill="#F2F2F2"/>
<path d="M129.058 85.9869H103.428C102.309 85.9851 101.236 85.3453 100.445 84.2079C99.6542 83.0706 99.2093 81.5285 99.208 79.92V62.5026C99.2093 60.8941 99.6542 59.352 100.445 58.2146C101.236 57.0773 102.309 56.4375 103.428 56.4357H129.058C130.177 56.4375 131.25 57.0773 132.041 58.2146C132.832 59.352 133.277 60.8941 133.278 62.5026V79.92C133.277 81.5285 132.832 83.0706 132.041 84.2079C131.25 85.3453 130.177 85.9851 129.058 85.9869Z" fill="#F2F2F2"/>
<path d="M29.0391 81.3474C32.8775 81.3474 35.9891 76.8735 35.9891 71.3548C35.9891 65.836 32.8775 61.3622 29.0391 61.3622C25.2007 61.3622 22.089 65.836 22.089 71.3548C22.089 76.8735 25.2007 81.3474 29.0391 81.3474Z" fill="white"/>
<path d="M28.3501 75.1667C28.1938 75.1672 28.0416 75.0945 27.9165 74.9596L27.9087 74.9512L26.2754 73.1533C26.1996 73.07 26.1361 72.9661 26.0883 72.8474C26.0405 72.7288 26.0094 72.5978 25.9968 72.4619C25.9843 72.326 25.9905 72.1879 26.0151 72.0554C26.0396 71.923 26.0822 71.7988 26.1401 71.6899C26.1981 71.5811 26.2705 71.4898 26.353 71.4212C26.4356 71.3526 26.5267 71.308 26.6213 71.2901C26.7158 71.2722 26.8119 71.2812 26.904 71.3167C26.9961 71.3522 27.0824 71.4135 27.1581 71.497L28.216 72.6633L30.7161 67.9755C30.774 67.8668 30.8463 67.7755 30.9289 67.707C31.0114 67.6384 31.1025 67.5939 31.1969 67.576C31.2914 67.5581 31.3874 67.5671 31.4795 67.6025C31.5715 67.6379 31.6578 67.699 31.7334 67.7824L31.7179 67.8128L31.7338 67.7829C31.8864 67.9514 31.9862 68.2001 32.0114 68.4743C32.0365 68.7485 31.985 69.0259 31.8681 69.2456L28.9275 74.7596C28.8594 74.8866 28.772 74.9895 28.6719 75.0601C28.5718 75.1307 28.4617 75.1672 28.3501 75.1667Z" fill="#6C63FF"/>
<path d="M72.7651 81.204C76.6035 81.204 79.7151 76.7301 79.7151 71.2113C79.7151 65.6926 76.6035 61.2188 72.7651 61.2188C68.9267 61.2188 65.8151 65.6926 65.8151 71.2113C65.8151 76.7301 68.9267 81.204 72.7651 81.204Z" fill="white"/>
<path d="M72.0762 75.0233C71.9199 75.0237 71.7677 74.951 71.6425 74.8162L71.6348 74.8078L70.0015 73.0098C69.8487 72.8416 69.7487 72.5929 69.7234 72.3186C69.6982 72.0443 69.7498 71.7668 69.8668 71.5471C69.9839 71.3275 70.1568 71.1837 70.3476 71.1474C70.5384 71.1111 70.7314 71.1852 70.8841 71.3535L71.9421 72.5199L74.4421 67.8321C74.5001 67.7233 74.5724 67.6321 74.6549 67.5635C74.7375 67.495 74.8285 67.4505 74.923 67.4326C75.0175 67.4146 75.1135 67.4236 75.2056 67.459C75.2976 67.4945 75.3839 67.5556 75.4595 67.639L75.444 67.6693L75.4599 67.6394C75.6125 67.808 75.7123 68.0567 75.7374 68.3309C75.7626 68.6051 75.7111 68.8825 75.5942 69.1022L72.6535 74.6162C72.5855 74.7432 72.4981 74.846 72.398 74.9167C72.2978 74.9873 72.1878 75.0238 72.0762 75.0233Z" fill="#6C63FF"/>
<path d="M119.737 118.365C119.965 118.006 120.136 117.58 120.237 117.115C120.338 116.651 120.368 116.161 120.323 115.679C120.278 115.196 120.16 114.734 119.978 114.325C119.795 113.915 119.553 113.568 119.267 113.308L115.387 83.5199L110.668 86.0358L115.966 114.525C115.693 115.245 115.614 116.083 115.743 116.881C115.872 117.678 116.2 118.38 116.665 118.854C117.13 119.327 117.699 119.539 118.265 119.449C118.832 119.358 119.355 118.973 119.737 118.365Z" fill="#A0616A"/>
<path d="M82.0836 72.9116C82.0954 73.0966 82.097 73.2826 82.0883 73.4679L91.2633 83.6209L93.8652 82.0847L95.9909 87.4274L91.5686 90.7904C91.2113 91.0621 90.8024 91.1598 90.4032 91.0689C90.004 90.9781 89.6361 90.7034 89.3547 90.2863L80.1838 76.6923C79.6984 76.8498 79.1911 76.7909 78.7295 76.5237C78.2678 76.2565 77.8737 75.7935 77.5995 75.1964C77.3254 74.5993 77.1841 73.8963 77.1946 73.181C77.2051 72.4656 77.3668 71.7718 77.6583 71.1918C77.9497 70.6119 78.357 70.1732 78.8261 69.9342C79.2952 69.6952 79.8037 69.6672 80.2841 69.8539C80.7645 70.0406 81.194 70.4331 81.5155 70.9793C81.8369 71.5255 82.0351 72.1995 82.0836 72.9116H82.0836Z" fill="#A0616A"/>
<path d="M103.519 171.236H100.878L99.6212 159.687L103.519 159.687L103.519 171.236Z" fill="#A0616A"/>
<path d="M104.192 174.917L95.6765 174.917V174.762C95.6764 174.136 95.7622 173.517 95.9287 172.938C96.0953 172.36 96.3395 171.835 96.6473 171.392C96.9551 170.95 97.3205 170.599 97.7226 170.359C98.1248 170.12 98.5558 169.996 98.9911 169.996H98.9913L104.193 169.997L104.192 174.917Z" fill="#2F2E41"/>
<path d="M113.428 171.236H110.787L109.531 159.687L113.429 159.687L113.428 171.236Z" fill="#A0616A"/>
<path d="M114.102 174.917L105.586 174.917V174.762C105.586 174.136 105.672 173.517 105.838 172.938C106.005 172.36 106.249 171.835 106.557 171.392C106.865 170.95 107.23 170.599 107.632 170.359C108.034 170.12 108.465 169.996 108.901 169.996H108.901L114.102 169.997L114.102 174.917Z" fill="#2F2E41"/>
<path d="M100.329 168.954C100.088 168.954 99.8557 168.825 99.6774 168.592C99.4991 168.358 99.3878 168.038 99.3653 167.692L97.0638 123.187L97.1726 123.174L113.011 121.302L113.015 121.464L114.274 167.568C114.279 167.756 114.258 167.943 114.211 168.118C114.165 168.293 114.094 168.453 114.004 168.588C113.913 168.722 113.805 168.83 113.685 168.903C113.565 168.977 113.436 169.014 113.305 169.014H110.2C109.968 169.016 109.744 168.897 109.568 168.68C109.392 168.463 109.276 168.162 109.242 167.833L105.025 130.588C105.021 130.55 105.006 130.515 104.985 130.491C104.964 130.467 104.937 130.455 104.91 130.458C104.883 130.46 104.858 130.478 104.84 130.506C104.821 130.535 104.811 130.572 104.81 130.611L104.619 167.384C104.617 167.739 104.521 168.079 104.35 168.336C104.18 168.593 103.947 168.747 103.701 168.766L100.381 168.952C100.364 168.953 100.347 168.954 100.329 168.954Z" fill="#2F2E41"/>
<path d="M103.033 66.9415C105.955 66.9415 108.324 63.5355 108.324 59.3341C108.324 55.1326 105.955 51.7267 103.033 51.7267C100.11 51.7267 97.7416 55.1326 97.7416 59.3341C97.7416 63.5355 100.11 66.9415 103.033 66.9415Z" fill="#A0616A"/>
<path d="M104.057 126.025C101.744 126.015 99.4429 125.563 97.2132 124.681C96.9986 124.591 96.8121 124.397 96.6852 124.133C96.5582 123.869 96.4985 123.549 96.5161 123.229C97.2284 107.837 97.3959 95.8928 95.8981 87.6284C95.2597 84.1061 95.5495 80.3964 96.6932 77.4506C98.4145 73.0173 101.578 70.3191 104.953 70.4122C105.114 70.4166 105.277 70.4249 105.441 70.4371C110.563 70.8162 114.553 77.4775 114.337 85.2863L113.307 122.507C113.303 122.778 113.244 123.042 113.136 123.265C113.028 123.488 112.876 123.66 112.701 123.759C109.937 125.254 107.009 126.021 104.057 126.025Z" fill="#3F3D56"/>
<path d="M96.7688 90.4861L92.8055 83.5033C92.6927 83.3046 92.611 83.0733 92.566 82.8252C92.521 82.577 92.5138 82.3178 92.5448 82.0653C92.5757 81.8127 92.6442 81.5728 92.7454 81.3617C92.8467 81.1506 92.9785 80.9734 93.1317 80.8421L98.5004 76.2425C99.2107 75.4186 100.119 75.0332 101.027 75.171C101.934 75.3087 102.767 75.9583 103.342 76.9774C103.917 77.9964 104.187 79.3017 104.094 80.607C104 81.9122 103.551 83.1109 102.843 83.9402L98.6475 90.5602C98.5273 90.7497 98.3802 90.8997 98.216 91C98.0519 91.1004 97.8746 91.1487 97.6963 91.1417C97.5181 91.1346 97.3429 91.0724 97.1828 90.9593C97.0228 90.8462 96.8816 90.6848 96.7688 90.4861Z" fill="#3F3D56"/>
<path d="M109.237 89.6099C109.074 89.5052 108.929 89.3512 108.811 89.1585C108.693 88.9657 108.606 88.7387 108.555 88.493L106.771 79.9117C106.383 78.7235 106.34 77.3628 106.649 76.1283C106.959 74.8937 107.596 73.886 108.422 73.3262C109.247 72.7664 110.193 72.7002 111.053 73.1421C111.912 73.584 112.615 74.4979 113.006 75.6834L116.456 83.1754C116.555 83.3892 116.62 83.631 116.648 83.8844C116.675 84.1377 116.664 84.3966 116.616 84.6435C116.568 84.8904 116.483 85.1194 116.368 85.3149C116.252 85.5105 116.109 85.668 115.948 85.7767L110.27 89.5976C110.109 89.7065 109.933 89.7639 109.754 89.766C109.576 89.7682 109.399 89.7149 109.237 89.6099Z" fill="#3F3D56"/>
<path d="M105.647 65.5762L101.725 64.2855C101.321 64.1524 100.835 63.8983 100.779 63.3071C100.703 62.5126 101.498 61.9591 101.425 61.1642C101.354 60.3943 100.63 60.2951 100.113 60.0678C99.6319 59.8252 99.2354 59.3229 99.0073 58.6673C98.7792 58.0118 98.7375 57.2543 98.891 56.5553C98.3321 57.6877 97.0553 57.7847 96.3304 56.8673C95.6055 55.9498 95.4664 54.2853 95.9017 53.0458C96.1369 52.437 96.4687 51.9166 96.8702 51.5269C97.2716 51.1372 97.7313 50.8893 98.212 50.8032C99.1784 50.6456 100.155 50.9075 101.017 51.5552C101.075 50.6776 101.837 50.3218 102.45 50.314C103.724 50.3353 104.961 50.9269 105.99 52.0065C107.018 53.086 107.787 54.5998 108.19 56.3372C108.942 59.8223 108.439 63.6427 106.334 65.6818L105.647 65.5762Z" fill="#2F2E41"/>
<path d="M145.152 175H63.0745C63.0173 175 62.9625 174.967 62.9221 174.909C62.8817 174.851 62.859 174.772 62.859 174.69C62.859 174.608 62.8817 174.529 62.9221 174.471C62.9625 174.413 63.0173 174.381 63.0745 174.381H145.152C145.209 174.381 145.264 174.413 145.304 174.471C145.345 174.529 145.367 174.608 145.367 174.69C145.367 174.772 145.345 174.851 145.304 174.909C145.264 174.967 145.209 175 145.152 175Z" fill="#3F3D56"/>
</g>
<defs>
<clipPath id="clip0">
<rect width="183.784" height="175" fill="white" transform="translate(0.108109)"/>
</clipPath>
</defs>
</svg>
