<svg width="184" height="175" viewBox="0 0 184 175" fill="none" xmlns="http://www.w3.org/2000/svg">
<g clip-path="url(#clip0)">
<path d="M8.70418 174.496L8.74229 174.137C8.75075 174.058 9.61832 166.192 12.8705 161.628C16.1228 157.064 20.6054 157.421 20.6502 157.425L20.8546 157.444L20.8164 157.803C20.808 157.882 19.9404 165.747 16.6882 170.312C13.4359 174.876 8.95336 174.519 8.90856 174.515L8.70418 174.496ZM13.091 162.13C10.3413 165.989 9.3512 172.299 9.13932 173.885C10.0525 173.892 13.7206 173.665 16.4677 169.81C19.2144 165.955 20.2067 159.642 20.4194 158.054C19.5057 158.047 15.838 158.274 13.091 162.13Z" fill="#F1F1F1"/>
<path d="M14.3845 163.88C12.8947 170.736 8.97269 174.412 8.97269 174.412C8.97269 174.412 7.4662 166.971 8.95603 160.115C10.4459 153.258 14.3678 149.582 14.3678 149.582C14.3678 149.582 15.8743 157.023 14.3845 163.88Z" fill="#F1F1F1"/>
<path d="M178.497 174.515C178.452 174.519 173.97 174.876 170.717 170.312C167.465 165.747 166.598 157.882 166.589 157.803L166.551 157.444L166.756 157.425C166.8 157.421 171.283 157.064 174.535 161.628C177.787 166.192 178.655 174.058 178.663 174.137L178.702 174.496L178.497 174.515ZM166.986 158.054C167.199 159.642 168.191 165.955 170.938 169.81C173.685 173.665 177.353 173.892 178.266 173.885C178.055 172.299 177.064 165.989 174.315 162.13C171.568 158.274 167.9 158.047 166.986 158.054H166.986Z" fill="#F1F1F1"/>
<path d="M173.021 163.88C174.511 170.736 178.433 174.412 178.433 174.412C178.433 174.412 179.94 166.971 178.45 160.115C176.96 153.258 173.038 149.582 173.038 149.582C173.038 149.582 171.532 157.023 173.021 163.88Z" fill="#F1F1F1"/>
<path d="M105.444 172.857L102.839 170.897L101.052 147.566H77.2567L75.3198 170.802L72.9894 172.884C72.8779 172.983 72.7885 173.147 72.7357 173.349C72.6828 173.551 72.6697 173.778 72.6983 173.995C72.727 174.212 72.7957 174.405 72.8935 174.543C72.9912 174.681 73.1123 174.757 73.2369 174.757H105.229C105.357 174.757 105.481 174.678 105.58 174.533C105.679 174.389 105.747 174.187 105.772 173.964C105.797 173.74 105.778 173.507 105.719 173.306C105.659 173.104 105.562 172.945 105.444 172.857Z" fill="#E6E6E6"/>
<path d="M147.731 150.67H30.8395C30.2262 150.668 29.6385 150.231 29.2053 149.455C28.7722 148.679 28.5289 147.628 28.5289 146.533V117.082H150.042V146.533C150.042 147.628 149.798 148.679 149.365 149.455C148.932 150.231 148.344 150.668 147.731 150.67Z" fill="#CCCCCC"/>
<path d="M150.164 131.001H28.4222V4.98791C28.4231 3.66547 28.7175 2.39764 29.2409 1.46255C29.7642 0.527461 30.4738 0.00148227 31.214 0H147.372C148.112 0.0014814 148.822 0.527458 149.345 1.46254C149.868 2.39763 150.163 3.66547 150.164 4.98791V131.001Z" fill="#3F3D56"/>
<path d="M142.893 121.855H35.6933C35.1227 121.854 34.5756 121.448 34.1722 120.727C33.7687 120.007 33.5417 119.029 33.5411 118.01V12.9915C33.5417 11.9719 33.7687 10.9945 34.1721 10.2735C34.5756 9.55258 35.1227 9.14704 35.6933 9.14587H142.893C143.463 9.14705 144.01 9.55258 144.414 10.2735C144.817 10.9945 145.044 11.9719 145.045 12.9915V118.01C145.044 119.029 144.817 120.007 144.414 120.727C144.01 121.448 143.463 121.854 142.893 121.855Z" fill="white"/>
<path d="M183.619 175H0.39072C0.329016 175.002 0.268611 174.968 0.218917 174.903C0.169223 174.837 0.133032 174.744 0.115982 174.638C0.105338 174.566 0.104099 174.491 0.112359 174.418C0.12062 174.345 0.13816 174.276 0.163631 174.217C0.189102 174.158 0.221824 174.11 0.25928 174.077C0.296735 174.044 0.337926 174.027 0.379681 174.026H183.596C183.661 174.022 183.725 174.058 183.778 174.127C183.83 174.196 183.868 174.295 183.885 174.407C183.894 174.478 183.893 174.552 183.884 174.623C183.875 174.694 183.857 174.761 183.831 174.818C183.806 174.874 183.773 174.92 183.737 174.952C183.7 174.984 183.659 175 183.619 175Z" fill="#CCCCCC"/>
<path d="M56.9425 48.8622H39.3049V51.8217H56.9425V48.8622Z" fill="#E5E5E5"/>
<path d="M56.9425 56.0393H39.3049V58.9988H56.9425V56.0393Z" fill="#E5E5E5"/>
<path d="M56.9425 63.3749H39.3049V66.3344H56.9425V63.3749Z" fill="#E5E5E5"/>
<path d="M56.9425 70.7106H39.3049V73.6701H56.9425V70.7106Z" fill="#E5E5E5"/>
<path d="M52.7649 80.0319H43.4826V82.6002H52.7649V80.0319Z" fill="#6C63FF"/>
<path d="M84.3877 67.2175H84.2191V68.1215H84.3877V67.2175Z" fill="#E5E5E5"/>
<path d="M84.3877 87.3823H84.2191V85.4562H84.3877V87.3823ZM84.3877 83.5302H84.2191V81.6041H84.3877V83.5302ZM84.3877 79.6779H84.2191V77.7519H84.3877V79.6779ZM84.3877 75.8258H84.2191V73.8996H84.3877V75.8258ZM84.3877 71.9736H84.2191V70.0475H84.3877V71.9736Z" fill="#E5E5E5"/>
<path d="M84.3877 89.3085H84.2191V90.2125H84.3877V89.3085Z" fill="#E5E5E5"/>
<path d="M102.855 67.2175H102.686V68.1215H102.855V67.2175Z" fill="#E5E5E5"/>
<path d="M102.855 87.3823H102.686V85.4562H102.855V87.3823ZM102.855 83.5302H102.686V81.6041H102.855V83.5302ZM102.855 79.6779H102.686V77.7519H102.855V79.6779ZM102.855 75.8258H102.686V73.8996H102.855V75.8258ZM102.855 71.9736H102.686V70.0475H102.855V71.9736Z" fill="#E5E5E5"/>
<path d="M102.855 89.3085H102.686V90.2125H102.855V89.3085Z" fill="#E5E5E5"/>
<path d="M112.17 49.5331H112.002V50.4371H112.17V49.5331Z" fill="#E5E5E5"/>
<path d="M112.17 87.4575H112.002V85.6064H112.17V87.4575ZM112.17 83.7554H112.002V81.9044H112.17V83.7554ZM112.17 80.0534H112.002V78.2024H112.17V80.0534ZM112.17 76.3513H112.002V74.5003H112.17V76.3513ZM112.17 72.6493H112.002V70.7982H112.17V72.6493ZM112.17 68.9472H112.002V67.0962H112.17V68.9472ZM112.17 65.2452H112.002V63.3942H112.17V65.2452ZM112.17 61.5432H112.002V59.6922H112.17V61.5432ZM112.17 57.8411H112.002V55.9901H112.17V57.8411ZM112.17 54.1391H112.002V52.2881H112.17V54.1391Z" fill="#E5E5E5"/>
<path d="M112.17 89.3085H112.002V90.2125H112.17V89.3085Z" fill="#E5E5E5"/>
<path d="M121.393 42.3013H121.224V43.2053H121.393V42.3013Z" fill="#E5E5E5"/>
<path d="M121.393 87.4643H121.224V85.6202H121.393V87.4643ZM121.393 83.7761H121.224V81.9319H121.393V83.7761ZM121.393 80.0878H121.224V78.2437H121.393V80.0878ZM121.393 76.3996H121.224V74.5554H121.393V76.3996ZM121.393 72.7113H121.224V70.8671H121.393V72.7113ZM121.393 69.023H121.224V67.1789H121.393V69.023ZM121.393 65.3348H121.224V63.4906H121.393V65.3348ZM121.393 61.6465H121.224V59.8024H121.393V61.6465ZM121.393 57.9583H121.224V56.1141H121.393V57.9583ZM121.393 54.27H121.224V52.4258H121.393V54.27ZM121.393 50.5817H121.224V48.7376H121.393V50.5817ZM121.393 46.8935H121.224V45.0493H121.393V46.8935Z" fill="#E5E5E5"/>
<path d="M121.393 89.3085H121.224V90.2125H121.393V89.3085Z" fill="#E5E5E5"/>
<path d="M93.6635 55.1077H93.4948V56.0117H93.6635V55.1077Z" fill="#E5E5E5"/>
<path d="M93.6634 87.5561H93.4948V85.8036H93.6634V87.5561ZM93.6634 84.0511H93.4948V82.2987H93.6634V84.0511ZM93.6634 80.5462H93.4948V78.7938H93.6634V80.5462ZM93.6634 77.0413H93.4948V75.2888H93.6634V77.0413ZM93.6634 73.5363H93.4948V71.7839H93.6634V73.5363ZM93.6634 70.0314H93.4948V68.279H93.6634V70.0314ZM93.6634 66.5265H93.4948V64.774H93.6634V66.5265ZM93.6634 63.0215H93.4948V61.2691H93.6634V63.0215ZM93.6634 59.5166H93.4948V57.7642H93.6634V59.5166Z" fill="#E5E5E5"/>
<path d="M93.6635 89.3085H93.4948V90.2125H93.6635V89.3085Z" fill="#E5E5E5"/>
<path d="M130.747 90.6322H74.9133C74.867 90.6322 74.8225 90.5993 74.7898 90.5408C74.757 90.4822 74.7386 90.4028 74.7386 90.32V42.506C74.7386 42.4232 74.757 42.3438 74.7898 42.2853C74.8225 42.2267 74.867 42.1938 74.9133 42.1938C74.9597 42.1938 75.0041 42.2267 75.0369 42.2853C75.0696 42.3438 75.0881 42.4232 75.0881 42.506V90.0078H130.747C130.793 90.0078 130.838 90.0407 130.87 90.0993C130.903 90.1578 130.922 90.2372 130.922 90.32C130.922 90.4028 130.903 90.4822 130.87 90.5408C130.838 90.5993 130.793 90.6322 130.747 90.6322V90.6322Z" fill="#3F3D56"/>
<path d="M102.847 67.6371L93.5642 55.2141L84.4081 67.4674L84.1985 66.9676L93.5642 54.434L102.803 66.798L111.984 48.8471L112.021 48.8203L121.282 42.1536L121.412 42.7331L112.188 49.3731L102.847 67.6371Z" fill="#3F3D56"/>
<path d="M84.3034 69.0906C84.8824 69.0906 85.3518 68.2519 85.3518 67.2174C85.3518 66.1829 84.8824 65.3442 84.3034 65.3442C83.7244 65.3442 83.255 66.1829 83.255 67.2174C83.255 68.2519 83.7244 69.0906 84.3034 69.0906Z" fill="#6C63FF"/>
<path d="M93.5642 56.9149C94.1432 56.9149 94.6126 56.0763 94.6126 55.0418C94.6126 54.0072 94.1432 53.1686 93.5642 53.1686C92.9852 53.1686 92.5158 54.0072 92.5158 55.0418C92.5158 56.0763 92.9852 56.9149 93.5642 56.9149Z" fill="#6C63FF"/>
<path d="M102.825 69.0906C103.404 69.0906 103.874 68.2519 103.874 67.2174C103.874 66.1829 103.404 65.3442 102.825 65.3442C102.246 65.3442 101.777 66.1829 101.777 67.2174C101.777 68.2519 102.246 69.0906 102.825 69.0906Z" fill="#6C63FF"/>
<path d="M112.086 50.9833C112.665 50.9833 113.134 50.1446 113.134 49.1101C113.134 48.0756 112.665 47.2369 112.086 47.2369C111.507 47.2369 111.038 48.0756 111.038 49.1101C111.038 50.1446 111.507 50.9833 112.086 50.9833Z" fill="#6C63FF"/>
<path d="M121.347 44.1149C121.926 44.1149 122.395 43.2762 122.395 42.2417C122.395 41.2072 121.926 40.3685 121.347 40.3685C120.768 40.3685 120.298 41.2072 120.298 42.2417C120.298 43.2762 120.768 44.1149 121.347 44.1149Z" fill="#6C63FF"/>
<path d="M62.4551 9.14575H62.0981V121.855H62.4551V9.14575Z" fill="#E5E5E5"/>
<path d="M146.621 120.701C146.744 120.439 146.834 120.132 146.883 119.801C146.933 119.47 146.941 119.124 146.908 118.787C146.875 118.449 146.8 118.129 146.69 117.849C146.58 117.569 146.437 117.335 146.271 117.164L147.142 108.985L144.907 110.65L144.422 118.161C144.28 118.679 144.249 119.272 144.336 119.827C144.422 120.383 144.619 120.863 144.89 121.176C145.161 121.489 145.487 121.614 145.806 121.526C146.125 121.439 146.415 121.145 146.621 120.701Z" fill="#FFB7B7"/>
<path d="M157.765 170.886H155.873L154.972 157.844L157.766 157.844L157.765 170.886Z" fill="#FFB7B7"/>
<path d="M158.248 174.164L152.145 174.164V174.026C152.146 172.9 152.396 171.821 152.841 171.025C153.287 170.229 153.891 169.782 154.521 169.782H154.521L158.248 169.782L158.248 174.164Z" fill="#2F2E41"/>
<path d="M147.423 170.886H145.53L144.63 157.844L147.423 157.844L147.423 170.886Z" fill="#FFB7B7"/>
<path d="M147.442 174.164L141.34 174.164V174.026C141.34 172.9 141.59 171.821 142.035 171.025C142.481 170.229 143.085 169.782 143.715 169.782H143.715L147.442 169.782L147.442 174.164Z" fill="#2F2E41"/>
<path d="M147.267 115.801L145.415 123.426L143.887 167.252L147.746 166.976L148.8 146.084L152.052 127.476L153.921 148.221L154.693 166.425L157.886 166.672L159.158 115.801H147.267Z" fill="#2F2E41"/>
<path d="M156.527 78.1761L151.158 78.4161L148.006 81.3073L147.833 102.638L145.867 117.365C145.867 117.365 158.15 118.875 159.848 116.669L157.842 99.8443L160.533 81.6618L156.527 78.1761Z" fill="#6C63FF"/>
<path d="M148.58 81.6407L148.006 81.3073C148.006 81.3073 146.187 83.3933 146.36 88.4367C146.36 88.4367 146.292 91.0465 146.357 92.7834C146.432 94.7756 144.196 114.572 144.196 114.572H147.437L148.827 96.6447L148.58 81.6407Z" fill="#6C63FF"/>
<path d="M160.449 120.977C160.326 120.715 160.236 120.408 160.187 120.077C160.137 119.746 160.129 119.4 160.162 119.062C160.195 118.725 160.27 118.405 160.38 118.125C160.49 117.844 160.633 117.611 160.799 117.44L159.928 109.261L162.163 110.925L162.648 118.437C162.79 118.954 162.821 119.547 162.734 120.103C162.648 120.659 162.451 121.139 162.18 121.452C161.909 121.765 161.583 121.89 161.264 121.802C160.945 121.715 160.655 121.421 160.449 120.977Z" fill="#FFB7B7"/>
<path d="M159.725 81.9165L160.299 81.583C160.299 81.583 162.118 83.6691 161.945 88.7125C161.945 88.7125 162.013 91.3222 161.948 93.0591C161.873 95.0513 162.874 114.848 162.874 114.848H159.633L158.243 96.9205L159.725 81.9165Z" fill="#6C63FF"/>
<path d="M157.845 69.2271C157.845 70.5423 157.627 71.828 157.218 72.9215C156.809 74.0151 156.228 74.8674 155.547 75.3707C154.867 75.874 154.119 76.0057 153.397 75.7491C152.675 75.4925 152.012 74.8592 151.491 73.9292C150.971 72.9992 150.617 71.8143 150.473 70.5244C150.329 69.2345 150.403 67.8974 150.685 66.6823C150.966 65.4672 151.443 64.4287 152.055 63.698C152.668 62.9673 153.387 62.5773 154.123 62.5773C154.611 62.5751 155.094 62.7445 155.545 63.0759C155.996 63.4072 156.405 63.894 156.751 64.5084C157.097 65.1228 157.371 65.8528 157.559 66.6568C157.747 67.4607 157.844 68.3229 157.845 69.194C157.845 69.205 157.845 69.216 157.845 69.2271Z" fill="#FFB7B7"/>
<path d="M150.414 60.2952C150.85 58.6201 151.693 58.9513 152.431 59.5191C153.366 59.1488 154.254 58.0401 155.261 58.6958C156.253 61.273 159.583 60.5147 158.874 64.7104C158.873 65.7158 159.933 65.1306 159.748 66.7772C160.31 69.946 157.722 75.9473 156.236 74.6835C156.604 73.4805 157.443 70.7478 156.17 70.4768C153.432 75.0292 155.887 61.808 152.447 65.6529C151.308 67.5157 149.748 62.1585 150.414 60.2952Z" fill="#2F2E41"/>
</g>
<defs>
<clipPath id="clip0">
<rect width="183.784" height="175" fill="white" transform="translate(0.108109)"/>
</clipPath>
</defs>
</svg>
