<svg width="578" height="373" viewBox="0 0 578 373" fill="none" xmlns="http://www.w3.org/2000/svg">
<g clip-path="url(#clip0)">
<path d="M436.576 297.035C434.994 286.405 434.576 275.635 435.33 264.915L436.576 247.174C429.706 260.806 431.259 278.748 436.576 297.035V297.035Z" fill="#CACACA"/>
<path d="M441.933 300.003C441.172 293.66 440.971 287.262 441.334 280.884L441.933 270.324C438.628 278.438 439.375 289.118 441.933 300.003Z" fill="#CACACA"/>
<path d="M465.745 313.063V318.999C465.743 319.471 465.554 319.922 465.22 320.256C464.885 320.589 464.433 320.778 463.96 320.78H460.984C460.905 320.78 460.828 320.795 460.756 320.825C460.683 320.854 460.617 320.898 460.562 320.953C460.507 321.008 460.463 321.074 460.433 321.146C460.403 321.218 460.388 321.296 460.388 321.374V370.048C460.386 370.519 460.197 370.971 459.863 371.304C459.528 371.638 459.076 371.826 458.603 371.829H422.294C421.82 371.828 421.366 371.641 421.031 371.307C420.697 370.973 420.508 370.52 420.508 370.048V321.374C420.507 321.216 420.445 321.066 420.333 320.954C420.222 320.843 420.07 320.781 419.913 320.78H416.341C415.868 320.78 415.414 320.592 415.079 320.258C414.744 319.924 414.556 319.472 414.556 318.999V313.063C414.555 312.83 414.601 312.598 414.691 312.382C414.781 312.165 414.912 311.969 415.078 311.804C415.244 311.638 415.441 311.507 415.658 311.418C415.874 311.328 416.107 311.282 416.341 311.283H463.96C464.433 311.284 464.886 311.472 465.221 311.806C465.555 312.139 465.744 312.592 465.745 313.063Z" fill="#F2F2F2"/>
<path d="M460.442 322.027H420.561V323.807H460.442V322.027Z" fill="#E6E6E6"/>
<path d="M460.388 348.23C447.043 353.738 433.553 353.798 419.913 348.23V335.685C433.044 331.287 447.257 331.287 460.388 335.685V348.23Z" fill="#E6E6E6"/>
<path d="M268.736 148.623C280.7 148.623 290.399 138.951 290.399 127.019C290.399 115.088 280.7 105.415 268.736 105.415C256.771 105.415 247.072 115.088 247.072 127.019C247.072 138.951 256.771 148.623 268.736 148.623Z" fill="#2F2E41"/>
<path d="M274.771 106.01C278.52 106.01 282.205 106.981 285.466 108.827C288.726 110.673 291.45 113.331 293.372 116.541C295.294 119.752 296.348 123.404 296.43 127.142C296.512 130.88 295.621 134.576 293.842 137.867C295.72 135.524 297.088 132.816 297.859 129.916C298.63 127.016 298.786 123.988 298.318 121.024C297.851 118.061 296.769 115.227 295.143 112.703C293.516 110.18 291.38 108.022 288.871 106.367C286.362 104.712 283.534 103.596 280.569 103.091C277.604 102.586 274.565 102.703 271.648 103.434C268.73 104.164 265.997 105.493 263.623 107.335C261.248 109.178 259.285 111.493 257.858 114.134C259.883 111.598 262.455 109.551 265.384 108.145C268.312 106.738 271.521 106.008 274.771 106.01Z" fill="#2F2E41"/>
<path d="M228.253 126.973C263.4 126.973 291.891 98.5605 291.891 63.5114C291.891 28.4623 263.4 0.049408 228.253 0.049408C193.107 0.049408 164.616 28.4623 164.616 63.5114C164.616 98.5605 193.107 126.973 228.253 126.973Z" fill="#2F2E41"/>
<path d="M178.308 24.1363C189.274 11.8383 204.601 4.26997 221.056 3.02847C237.511 1.78696 253.806 6.96947 266.502 17.4822C265.982 16.9889 265.467 16.4916 264.926 16.0122C252.311 4.83807 235.762 -0.882508 218.918 0.108292C202.074 1.09909 186.315 8.72015 175.104 21.2958C163.894 33.8715 158.15 50.3722 159.137 67.1698C160.123 83.9675 167.758 99.687 180.364 110.872C180.905 111.351 181.46 111.803 182.012 112.261C170.056 100.918 162.986 85.3872 162.295 68.9452C161.604 52.5032 167.346 36.4366 178.308 24.1363Z" fill="#2F2E41"/>
<path d="M227.714 126.436C250.351 126.436 268.701 108.136 268.701 85.5618C268.701 62.9878 250.351 44.688 227.714 44.688C205.078 44.688 186.727 62.9878 186.727 85.5618C186.727 108.136 205.078 126.436 227.714 126.436Z" fill="#FFB8B8"/>
<path d="M248.652 137.532L204.79 139.498C204.79 139.498 208.451 162.119 184.722 164.27C160.993 166.421 139.42 159.967 130.792 176.102C122.163 192.236 125.882 249.687 125.882 249.687C125.882 249.687 142.061 307.771 155.004 316.376C167.948 324.981 281.201 313.149 281.201 313.149L328.598 253.467L326.993 207.441C326.155 183.405 304.15 165.36 280.45 169.808C279.984 169.895 279.516 169.989 279.044 170.09C279.044 170.09 273.837 166.21 259.551 159.087C250.815 154.731 248.652 137.532 248.652 137.532Z" fill="#CACACA"/>
<path d="M153.442 163.194C153.442 163.194 163.867 182.057 159.553 208.948C155.238 235.839 173.341 292.712 173.341 292.712L186.284 289.485C186.284 289.485 177.655 233.552 179.812 220.645C181.97 207.737 182.565 169.648 171.779 163.194C160.993 156.741 153.442 163.194 153.442 163.194Z" fill="#2F2E41"/>
<path d="M278.285 173.085L282.819 292.174L291.448 297.552C291.448 297.552 303.852 166.863 297.38 166.863H284.212C283.433 166.863 282.661 167.016 281.941 167.314C281.221 167.611 280.567 168.047 280.016 168.597C279.464 169.146 279.027 169.799 278.729 170.517C278.431 171.235 278.277 172.004 278.277 172.782C278.277 172.883 278.28 172.984 278.285 173.085Z" fill="#2F2E41"/>
<path d="M179.273 290.023C182.251 290.023 184.666 287.615 184.666 284.645C184.666 281.674 182.251 279.266 179.273 279.266C176.294 279.266 173.88 281.674 173.88 284.645C173.88 287.615 176.294 290.023 179.273 290.023Z" fill="#6C63FF"/>
<path d="M287.133 295.401C290.112 295.401 292.526 292.993 292.526 290.023C292.526 287.052 290.112 284.645 287.133 284.645C284.155 284.645 281.74 287.052 281.74 290.023C281.74 292.993 284.155 295.401 287.133 295.401Z" fill="#6C63FF"/>
<path d="M192.66 34.4691V75.343H202.152L214.232 62.4354L212.614 75.343H254.571L251.983 62.4354L257.16 75.343H263.847V34.4691H192.66Z" fill="#2F2E41"/>
<path d="M186.188 82.8727C187.975 82.8727 189.424 80.2241 189.424 76.9568C189.424 73.6895 187.975 71.0408 186.188 71.0408C184.401 71.0408 182.952 73.6895 182.952 76.9568C182.952 80.2241 184.401 82.8727 186.188 82.8727Z" fill="#FFB8B8"/>
<path d="M269.241 82.8727C271.028 82.8727 272.476 80.2241 272.476 76.9568C272.476 73.6895 271.028 71.0408 269.241 71.0408C267.453 71.0408 266.005 73.6895 266.005 76.9568C266.005 80.2241 267.453 82.8727 269.241 82.8727Z" fill="#FFB8B8"/>
<path d="M359.015 361.167V364.77C359.017 365.759 358.833 366.739 358.473 367.661C358.313 368.071 358.12 368.468 357.896 368.848C357.186 370.035 356.18 371.018 354.974 371.701C353.769 372.384 352.407 372.742 351.021 372.742H85.2203C83.8342 372.742 82.4718 372.384 81.2666 371.701C80.0614 371.018 79.0547 370.035 78.3453 368.848C78.1209 368.468 77.9278 368.071 77.768 367.661C77.408 366.739 77.2243 365.759 77.2263 364.77V361.167C77.226 360.12 77.4325 359.084 77.8338 358.117C78.2352 357.15 78.8236 356.271 79.5655 355.531C80.3075 354.79 81.1883 354.203 82.1578 353.802C83.1273 353.401 84.1665 353.195 85.216 353.195H100.542V351.515C100.541 351.471 100.55 351.428 100.567 351.388C100.583 351.348 100.608 351.311 100.639 351.28C100.669 351.249 100.706 351.225 100.746 351.208C100.787 351.191 100.83 351.183 100.874 351.182H108.869C108.957 351.182 109.042 351.217 109.104 351.279C109.167 351.341 109.202 351.426 109.202 351.514V353.195H114.196V351.515C114.196 351.471 114.205 351.428 114.221 351.388C114.238 351.348 114.262 351.311 114.293 351.28C114.324 351.249 114.361 351.225 114.401 351.208C114.441 351.191 114.485 351.183 114.528 351.182H122.523C122.612 351.182 122.696 351.217 122.759 351.279C122.821 351.341 122.857 351.426 122.857 351.514V353.195H127.857V351.515C127.857 351.471 127.865 351.428 127.882 351.388C127.898 351.348 127.923 351.311 127.954 351.28C127.985 351.249 128.021 351.225 128.062 351.208C128.102 351.191 128.145 351.183 128.189 351.183H136.184C136.272 351.182 136.357 351.217 136.419 351.279C136.482 351.341 136.517 351.426 136.517 351.514V353.195H141.511V351.515C141.511 351.471 141.52 351.428 141.536 351.388C141.553 351.348 141.577 351.311 141.608 351.28C141.639 351.249 141.676 351.225 141.716 351.208C141.757 351.191 141.8 351.183 141.843 351.183H149.838C149.927 351.182 150.011 351.217 150.074 351.279C150.136 351.341 150.172 351.426 150.172 351.514V353.195H155.166V351.515C155.166 351.471 155.174 351.428 155.191 351.388C155.208 351.348 155.232 351.311 155.263 351.28C155.294 351.249 155.33 351.225 155.371 351.208C155.411 351.191 155.454 351.183 155.498 351.183H163.493C163.581 351.182 163.666 351.217 163.729 351.279C163.791 351.342 163.826 351.426 163.826 351.514V353.195H168.826V351.515C168.826 351.471 168.835 351.428 168.851 351.388C168.868 351.348 168.893 351.311 168.923 351.28C168.954 351.249 168.991 351.225 169.031 351.208C169.072 351.191 169.115 351.183 169.159 351.183H177.154C177.242 351.182 177.327 351.217 177.389 351.279C177.452 351.342 177.487 351.426 177.487 351.514V353.195H182.481V351.515C182.481 351.471 182.489 351.428 182.506 351.388C182.523 351.348 182.547 351.311 182.578 351.28C182.609 351.249 182.646 351.225 182.686 351.208C182.726 351.191 182.769 351.183 182.813 351.183H245.433C245.476 351.182 245.52 351.191 245.56 351.208C245.6 351.224 245.637 351.249 245.668 351.279C245.699 351.31 245.724 351.347 245.74 351.387C245.757 351.427 245.766 351.47 245.766 351.514V353.195H250.766V351.515C250.766 351.471 250.774 351.428 250.791 351.388C250.808 351.348 250.832 351.311 250.863 351.28C250.894 351.249 250.93 351.225 250.971 351.208C251.011 351.191 251.054 351.183 251.098 351.183H259.093C259.181 351.183 259.266 351.219 259.328 351.281C259.39 351.343 259.426 351.427 259.426 351.515V353.195H264.42V351.515C264.42 351.471 264.429 351.428 264.446 351.388C264.462 351.348 264.487 351.311 264.518 351.28C264.548 351.249 264.585 351.225 264.625 351.208C264.666 351.191 264.709 351.183 264.753 351.183H272.748C272.791 351.182 272.835 351.191 272.875 351.208C272.916 351.224 272.952 351.249 272.983 351.279C273.014 351.31 273.039 351.347 273.056 351.387C273.072 351.427 273.081 351.47 273.081 351.514V353.195H278.075V351.515C278.075 351.471 278.084 351.428 278.1 351.388C278.117 351.348 278.141 351.311 278.172 351.28C278.203 351.249 278.24 351.225 278.28 351.208C278.32 351.191 278.364 351.183 278.407 351.183H286.402C286.446 351.183 286.489 351.191 286.53 351.208C286.57 351.224 286.607 351.249 286.638 351.279C286.669 351.31 286.693 351.347 286.71 351.387C286.727 351.427 286.736 351.47 286.736 351.514V353.195H291.736V351.515C291.736 351.471 291.744 351.428 291.761 351.388C291.777 351.348 291.802 351.311 291.833 351.28C291.864 351.249 291.9 351.225 291.941 351.208C291.981 351.191 292.024 351.183 292.068 351.183H300.063C300.15 351.184 300.234 351.219 300.295 351.282C300.357 351.344 300.391 351.428 300.39 351.515V353.195H305.39V351.515C305.39 351.471 305.399 351.428 305.415 351.388C305.432 351.348 305.456 351.311 305.487 351.28C305.518 351.249 305.555 351.225 305.595 351.208C305.635 351.191 305.679 351.183 305.722 351.183H313.717C313.761 351.183 313.804 351.191 313.845 351.208C313.885 351.224 313.922 351.249 313.953 351.279C313.984 351.31 314.008 351.347 314.025 351.387C314.042 351.427 314.051 351.47 314.051 351.514V353.195H319.045V351.515C319.045 351.471 319.053 351.428 319.07 351.388C319.087 351.348 319.111 351.311 319.142 351.28C319.173 351.249 319.209 351.225 319.25 351.208C319.29 351.191 319.333 351.183 319.377 351.183H327.372C327.416 351.183 327.459 351.191 327.499 351.208C327.54 351.224 327.577 351.249 327.608 351.279C327.638 351.31 327.663 351.347 327.68 351.387C327.697 351.427 327.705 351.47 327.705 351.514V353.195H351.021C353.14 353.194 355.173 354.033 356.672 355.528C358.171 357.022 359.014 359.049 359.015 361.162L359.015 361.167Z" fill="#3F3D56"/>
<path d="M578 371.813H0V373H578V371.813Z" fill="#3F3D56"/>
<path d="M337.611 209.425H94.1362C93.2561 209.425 92.3847 209.598 91.5716 209.934C90.7586 210.27 90.0198 210.762 89.3975 211.383C88.7752 212.003 88.2816 212.74 87.9448 213.551C87.608 214.361 87.4347 215.23 87.4347 216.108V351.394C87.4347 353.166 88.1407 354.866 89.3975 356.119C90.6543 357.373 92.3588 358.077 94.1361 358.077H337.611C339.389 358.077 341.093 357.373 342.35 356.119C343.607 354.866 344.313 353.166 344.313 351.394V216.108C344.313 214.336 343.607 212.636 342.35 211.383C341.093 210.129 339.389 209.425 337.611 209.425Z" fill="#3F3D56"/>
<path d="M216.069 271.496C224.287 271.496 230.95 264.852 230.95 256.657C230.95 248.461 224.287 241.817 216.069 241.817C207.85 241.817 201.188 248.461 201.188 256.657C201.188 264.852 207.85 271.496 216.069 271.496Z" fill="#6C63FF"/>
<path d="M308.188 158.618L383.31 83.1119H418.776V81.9247H382.813L382.639 82.101L307.342 157.784L308.188 158.618Z" fill="#3F3D56"/>
<path d="M549.131 52.1125H462.094V59.8469H549.131V52.1125Z" fill="#6C63FF"/>
<path d="M451.487 64.7374H433.061V46.3625H451.487V64.7374ZM434.252 63.5502H450.296V47.5497H434.252L434.252 63.5502Z" fill="#3F3D56"/>
<path d="M549.131 77.8937H462.094V85.6281H549.131V77.8937Z" fill="#6C63FF"/>
<path d="M451.487 90.5185H433.061V72.1439H451.487V90.5185ZM434.252 89.3313H450.296V73.3311H434.252L434.252 89.3313Z" fill="#3F3D56"/>
<path d="M549.131 103.675H462.094V111.409H549.131V103.675Z" fill="#6C63FF"/>
<path d="M451.487 116.3H433.061V97.925H451.487V116.3ZM434.252 115.112H450.296V99.1122H434.252L434.252 115.112Z" fill="#3F3D56"/>
</g>
<defs>
<clipPath id="clip0">
<rect width="578" height="373" fill="white"/>
</clipPath>
</defs>
</svg>
