<svg width="184" height="166" viewBox="0 0 184 166" fill="none" xmlns="http://www.w3.org/2000/svg">
<g clip-path="url(#clip0)">
<path d="M122.76 58.3374H61.2962C60.2411 58.3362 59.2296 57.9204 58.4835 57.1813C57.7375 56.4422 57.3178 55.4401 57.3166 54.3948V6.56944C57.3175 5.80366 57.6249 5.06948 58.1715 4.52799C58.718 3.98649 59.4591 3.68188 60.2321 3.681H123.773C124.56 3.68189 125.314 3.99175 125.87 4.54261C126.426 5.09347 126.738 5.84034 126.739 6.61937V54.3948C126.738 55.4401 126.318 56.4422 125.572 57.1813C124.826 57.9204 123.815 58.3362 122.76 58.3374V58.3374Z" fill="#F2F2F2"/>
<path d="M65.1552 54.3949H118.901C119.924 54.3949 120.906 53.9921 121.629 53.2751C122.353 52.5581 122.76 51.5857 122.76 50.5718V13.8826C122.76 12.8686 122.353 11.8962 121.629 11.1792C120.906 10.4623 119.924 10.0595 118.901 10.0595H65.1552C64.1317 10.0595 63.1502 10.4623 62.4265 11.1792C61.7028 11.8962 61.2962 12.8686 61.2962 13.8826V50.5718C61.2962 51.5857 61.7028 52.5581 62.4265 53.2751C63.1502 53.9921 64.1317 54.3949 65.1552 54.3949Z" fill="white"/>
<path d="M126.684 6.34394H57.2607V4.33673C57.2623 3.28798 57.6836 2.28266 58.4324 1.54131C59.1812 0.799965 60.1962 0.383133 61.2548 0.382263H122.69C123.748 0.383125 124.763 0.799954 125.512 1.5413C126.261 2.28265 126.682 3.28798 126.684 4.33673V6.34394Z" fill="#CCCCCC"/>
<path d="M64.5193 4.39257C65.0899 4.39257 65.5524 3.93434 65.5524 3.36908C65.5524 2.80381 65.0899 2.34558 64.5193 2.34558C63.9488 2.34558 63.4862 2.80381 63.4862 3.36908C63.4862 3.93434 63.9488 4.39257 64.5193 4.39257Z" fill="white"/>
<path d="M68.4408 4.39257C69.0113 4.39257 69.4739 3.93434 69.4739 3.36908C69.4739 2.80381 69.0113 2.34558 68.4408 2.34558C67.8702 2.34558 67.4077 2.80381 67.4077 3.36908C67.4077 3.93434 67.8702 4.39257 68.4408 4.39257Z" fill="white"/>
<path d="M72.3621 4.39257C72.9327 4.39257 73.3952 3.93434 73.3952 3.36908C73.3952 2.80381 72.9327 2.34558 72.3621 2.34558C71.7916 2.34558 71.329 2.80381 71.329 3.36908C71.329 3.93434 71.7916 4.39257 72.3621 4.39257Z" fill="white"/>
<path d="M69.1102 27.2529H66.4485C66.3041 27.2527 66.1658 27.1959 66.0637 27.0947C65.9616 26.9936 65.9042 26.8565 65.9041 26.7135V24.0765C65.9042 23.9335 65.9616 23.7964 66.0637 23.6953C66.1658 23.5942 66.3041 23.5373 66.4485 23.5371H69.1102C69.2546 23.5373 69.393 23.5942 69.495 23.6953C69.5971 23.7964 69.6545 23.9335 69.6547 24.0765V26.7135C69.6545 26.8565 69.5971 26.9936 69.495 27.0947C69.393 27.1958 69.2546 27.2527 69.1102 27.2529V27.2529Z" fill="#6C63FF"/>
<path d="M69.1102 34.085H66.4485C66.3041 34.0849 66.1658 34.028 66.0637 33.9269C65.9616 33.8258 65.9042 33.6887 65.9041 33.5457V30.9087C65.9042 30.7657 65.9616 30.6286 66.0637 30.5274C66.1658 30.4263 66.3041 30.3695 66.4485 30.3693H69.1102C69.2546 30.3695 69.393 30.4263 69.495 30.5274C69.5971 30.6286 69.6545 30.7657 69.6547 30.9087V33.5457C69.6545 33.6887 69.5971 33.8258 69.495 33.9269C69.393 34.028 69.2546 34.0849 69.1102 34.085Z" fill="#3F3D56"/>
<path d="M69.1102 40.9171H66.4485C66.3041 40.917 66.1658 40.8601 66.0637 40.759C65.9616 40.6579 65.9042 40.5208 65.9041 40.3778V37.7408C65.9042 37.5978 65.9616 37.4607 66.0637 37.3596C66.1658 37.2585 66.3041 37.2016 66.4485 37.2014H69.1102C69.2546 37.2016 69.393 37.2585 69.495 37.3596C69.5971 37.4607 69.6545 37.5978 69.6547 37.7408V40.3778C69.6545 40.5208 69.5971 40.6579 69.495 40.759C69.393 40.8601 69.2546 40.917 69.1102 40.9171V40.9171Z" fill="#CCCCCC"/>
<path d="M86.5325 25.9344H73.7077C73.5635 25.9341 73.4254 25.8771 73.3235 25.776C73.2217 25.6749 73.1645 25.5378 73.1645 25.395C73.1645 25.2521 73.2217 25.1151 73.3235 25.014C73.4254 24.9129 73.5635 24.8559 73.7077 24.8556H86.5325C86.6041 24.8554 86.675 24.8693 86.7412 24.8963C86.8074 24.9234 86.8675 24.9631 86.9182 25.0132C86.9689 25.0633 87.0091 25.1228 87.0365 25.1883C87.0639 25.2538 87.0781 25.324 87.0781 25.395C87.0781 25.4659 87.0639 25.5361 87.0365 25.6017C87.0091 25.6672 86.9689 25.7267 86.9182 25.7768C86.8675 25.8269 86.8074 25.8666 86.7412 25.8936C86.675 25.9207 86.6041 25.9345 86.5325 25.9344V25.9344Z" fill="#CCCCCC"/>
<path d="M86.5325 32.7666H73.7077C73.5635 32.7663 73.4254 32.7093 73.3235 32.6082C73.2217 32.5071 73.1645 32.3701 73.1645 32.2272C73.1645 32.0844 73.2217 31.9473 73.3235 31.8462C73.4254 31.7451 73.5635 31.6881 73.7077 31.6878H86.5325C86.6769 31.6878 86.8153 31.7447 86.9174 31.8458C87.0196 31.947 87.0769 32.0842 87.0769 32.2272C87.0769 32.3703 87.0196 32.5075 86.9174 32.6086C86.8153 32.7098 86.6769 32.7666 86.5325 32.7666Z" fill="#CCCCCC"/>
<path d="M86.5325 39.5987H73.7077C73.5635 39.5984 73.4254 39.5415 73.3235 39.4404C73.2217 39.3392 73.1645 39.2022 73.1645 39.0594C73.1645 38.9165 73.2217 38.7795 73.3235 38.6784C73.4254 38.5773 73.5635 38.5203 73.7077 38.52H86.5325C86.6041 38.5198 86.675 38.5337 86.7412 38.5607C86.8074 38.5878 86.8675 38.6275 86.9182 38.6776C86.9689 38.7277 87.0091 38.7872 87.0365 38.8527C87.0639 38.9182 87.0781 38.9884 87.0781 39.0594C87.0781 39.1303 87.0639 39.2005 87.0365 39.266C87.0091 39.3316 86.9689 39.3911 86.9182 39.4412C86.8675 39.4913 86.8074 39.531 86.7412 39.558C86.675 39.5851 86.6041 39.5989 86.5325 39.5987V39.5987Z" fill="#CCCCCC"/>
<path d="M118.13 32.3984C118.144 32.1717 118.152 31.9434 118.152 31.7132C118.152 28.7146 116.949 25.8388 114.809 23.7185C112.669 21.5982 109.766 20.407 106.739 20.407V32.3984H118.13Z" fill="#6C63FF"/>
<path d="M105.875 33.4263V21.4348C103.647 21.4348 101.468 22.0806 99.6065 23.2927C97.7448 24.5049 96.282 26.2303 95.3983 28.2562C94.5146 30.2821 94.2488 32.52 94.6335 34.6938C95.0183 36.8676 96.0368 38.8824 97.5635 40.4896C99.0903 42.0968 101.058 43.2262 103.225 43.7385C105.392 44.2508 107.663 44.1236 109.758 43.3726C111.852 42.6217 113.68 41.2797 115.014 39.5123C116.348 37.7449 117.131 35.6292 117.266 33.4263H105.875Z" fill="#3F3D56"/>
<path d="M183.651 165.202H0.349295C0.285328 165.202 0.223981 165.177 0.17875 165.132C0.133519 165.087 0.108109 165.027 0.108109 164.963C0.108109 164.9 0.133519 164.839 0.17875 164.794C0.223981 164.749 0.285328 164.724 0.349295 164.724H183.651C183.715 164.724 183.776 164.749 183.821 164.794C183.866 164.839 183.892 164.9 183.892 164.963C183.892 165.027 183.866 165.087 183.821 165.132C183.776 165.177 183.715 165.202 183.651 165.202Z" fill="#CCCCCC"/>
<path d="M121.832 99.048C121.913 99.1563 121.985 99.2706 122.047 99.3901L134.134 100.736L135.891 98.3835L139.822 100.548L136.362 106.263L121.554 102.413C121.178 102.772 120.699 103.009 120.183 103.092C119.668 103.175 119.138 103.1 118.666 102.878C118.194 102.656 117.801 102.297 117.54 101.848C117.279 101.399 117.162 100.883 117.205 100.367C117.248 99.8505 117.448 99.3595 117.779 98.9588C118.11 98.5582 118.557 98.2669 119.059 98.1238C119.561 97.9807 120.096 97.9924 120.591 98.1575C121.086 98.3226 121.519 98.6332 121.832 99.048V99.048Z" fill="#FFB8B8"/>
<path d="M60.1604 95.9566C59.8547 96.1346 59.5134 96.2441 59.1604 96.2773C58.8074 96.3104 58.4514 96.2665 58.1174 96.1486C57.7834 96.0307 57.4795 95.8417 57.2272 95.5949C56.975 95.3481 56.7804 95.0494 56.6572 94.72L48.0403 94.8981L50.4275 91.1437L58.2442 91.5503C58.8165 91.3819 59.4312 91.4274 59.9719 91.678C60.5126 91.9287 60.9416 92.3671 61.1778 92.9103C61.414 93.4534 61.4409 94.0635 61.2534 94.625C61.0659 95.1865 60.677 95.6603 60.1604 95.9566V95.9566Z" fill="#FFB8B8"/>
<path d="M56.3732 94.8819C56.3047 95.1082 56.1631 95.3059 55.9701 95.4447C55.7771 95.5834 55.5435 95.6555 55.3051 95.6497L39.5347 95.2529L25.2549 91.0643C24.862 90.949 24.4961 90.7576 24.1785 90.501C23.8609 90.2444 23.598 89.9278 23.405 89.5697C23.212 89.2115 23.0929 88.8189 23.0544 88.4148C23.0159 88.0106 23.059 87.6028 23.181 87.2153C23.303 86.8277 23.5015 86.468 23.7651 86.1571C24.0287 85.8463 24.352 85.5904 24.7163 85.4045C25.0806 85.2185 25.4786 85.1062 25.8871 85.0739C26.2956 85.0417 26.7065 85.0903 27.0958 85.2168L39.997 89.4074L55.4814 90.8878C55.7526 90.915 56.0037 91.0419 56.1853 91.2433C56.3668 91.4448 56.4657 91.7063 56.4624 91.9763L56.4175 94.5929C56.416 94.6908 56.4011 94.788 56.3732 94.8819V94.8819Z" fill="#3F3D56"/>
<path d="M33.503 162.051L36.4597 162.051L37.8665 150.752L33.5025 150.752L33.503 162.051Z" fill="#FFB8B8"/>
<path d="M32.7487 161.095L38.5718 161.095H38.572C39.0594 161.095 39.5419 161.19 39.9922 161.375C40.4424 161.559 40.8515 161.83 41.1961 162.171C41.5407 162.513 41.8141 162.918 42.0006 163.364C42.1871 163.81 42.2831 164.288 42.2831 164.771V164.891L32.7488 164.891L32.7487 161.095Z" fill="#2F2E41"/>
<path d="M24.8203 162.051L27.777 162.051L29.1838 150.752L24.8198 150.752L24.8203 162.051Z" fill="#FFB8B8"/>
<path d="M24.0659 161.095L29.8891 161.095H29.8893C30.3767 161.095 30.8592 161.19 31.3095 161.375C31.7597 161.559 32.1688 161.83 32.5134 162.171C32.858 162.513 33.1314 162.918 33.3179 163.364C33.5044 163.81 33.6003 164.288 33.6003 164.771V164.891L24.0661 164.891L24.0659 161.095Z" fill="#2F2E41"/>
<path d="M22.8358 116.387L23.5419 157.89C23.5441 158.022 23.5737 158.151 23.6288 158.271C23.6838 158.391 23.7632 158.498 23.8619 158.585C23.9607 158.673 24.0766 158.74 24.2025 158.781C24.3285 158.823 24.4617 158.838 24.5938 158.826L28.0539 158.515C28.2809 158.494 28.4932 158.395 28.6533 158.234C28.8134 158.073 28.9108 157.862 28.9284 157.637L30.9541 131.748C30.9589 131.687 30.9869 131.631 31.0325 131.59C31.0781 131.549 31.1378 131.527 31.1994 131.528C31.2609 131.529 31.3197 131.553 31.3636 131.596C31.4075 131.639 31.4333 131.697 31.4356 131.758L32.4481 158.239C32.4575 158.486 32.5632 158.72 32.743 158.891C32.9228 159.062 33.1626 159.158 33.4121 159.158H37.1229C37.3686 159.158 37.6051 159.065 37.784 158.899C37.9629 158.732 38.0709 158.504 38.0859 158.261L40.6836 116.148L25.2477 112.325L22.8358 116.387Z" fill="#2F2E41"/>
<path d="M34.0319 77.4166C37.3036 77.4166 39.9557 74.7891 39.9557 71.5479C39.9557 68.3067 37.3036 65.6792 34.0319 65.6792C30.7603 65.6792 28.1082 68.3067 28.1082 71.5479C28.1082 74.7891 30.7603 77.4166 34.0319 77.4166Z" fill="#FFB8B8"/>
<path d="M40.4565 117.926C40.4507 117.926 40.445 117.926 40.4392 117.926L26.5877 117.715C26.3214 117.711 26.066 117.61 25.8699 117.431C25.6739 117.253 25.5509 117.009 25.5244 116.747L25.3676 115.193C25.3646 115.163 25.3507 115.136 25.3285 115.116C25.3064 115.096 25.2775 115.085 25.2476 115.085C25.2177 115.085 25.1889 115.096 25.1667 115.116C25.1445 115.136 25.1306 115.163 25.1276 115.193L24.9656 116.798C24.9405 117.049 24.8268 117.283 24.6445 117.46C24.4622 117.636 24.223 117.743 23.9689 117.763L22.99 117.837C22.8175 117.85 22.6443 117.822 22.4849 117.756C22.3254 117.689 22.1844 117.586 22.0735 117.454C21.9626 117.323 21.8851 117.167 21.8474 116.999C21.8098 116.832 21.813 116.658 21.8569 116.492L22.6998 113.309C24.4439 106.692 24.5842 99.7604 23.1093 93.0797L22.6904 91.1922C22.3747 89.7822 22.5192 88.3092 23.1031 86.9858C23.687 85.6624 24.6802 84.5569 25.9393 83.8288L28.6599 82.2489L29.8943 80.4146C30.1331 80.0605 30.4547 79.7687 30.8316 79.5639C31.2085 79.3592 31.6297 79.2475 32.0595 79.2383C33.7815 79.201 36.7352 79.5134 37.2902 82.0078C38.6655 82.4734 39.8565 83.3588 40.692 84.5369C41.5276 85.715 41.9648 87.1251 41.9407 88.5648L41.5412 116.866C41.5371 117.148 41.4211 117.418 41.2181 117.616C41.0152 117.815 40.7416 117.926 40.4565 117.926V117.926Z" fill="#3F3D56"/>
<path d="M33.5686 74.9309C33.5443 75.7605 32.9629 76.2404 32.2492 76.675C31.5354 77.1095 30.7011 77.2979 29.8836 77.4797C29.7738 77.5375 29.6509 77.5662 29.5266 77.5632C29.4024 77.5602 29.281 77.5255 29.1742 77.4624C29.0674 77.3994 28.9788 77.3102 28.917 77.2034C28.8551 77.0965 28.8221 76.9757 28.8212 76.8526L28.0715 74.0275C27.8062 73.125 27.6133 72.2033 27.4943 71.2708C27.3137 69.4765 27.743 67.5464 29.0071 66.2491C30.2712 64.9518 32.4635 64.4909 33.9783 65.4905C35.776 63.2158 43.9932 68.2414 41.9662 69.8232C41.6056 70.1046 41.0543 69.7485 40.5966 69.714C40.1389 69.6795 39.626 69.7593 39.3352 70.1112C38.9553 70.571 39.1208 71.2559 38.9643 71.8294C38.8995 72.0312 38.7951 72.2183 38.657 72.38C38.5189 72.5416 38.3498 72.6745 38.1596 72.7711C37.9694 72.8677 37.7618 72.926 37.5487 72.9427C37.3356 72.9594 37.1213 72.9342 36.9181 72.8684C36.5397 72.6837 36.1837 72.4569 35.8569 72.1925C35.5058 71.9609 35.0622 71.7897 34.667 71.9358C34.1461 72.1284 33.961 72.7602 33.9139 73.3091C33.8345 73.8566 33.7192 74.3983 33.5686 74.9309V74.9309Z" fill="#2F2E41"/>
<path opacity="0.2" d="M34.952 90.6595L35.9168 102.368L40.9817 114.554L33.5049 102.607L34.952 90.6595Z" fill="black"/>
<path d="M97.2625 154.774L44.4016 123.705C43.4948 123.171 42.839 122.302 42.578 121.289C42.317 120.277 42.4722 119.203 43.0095 118.303L67.6406 77.1715C68.0357 76.5133 68.6783 76.0373 69.4272 75.8479C70.1762 75.6585 70.9704 75.7711 71.6356 76.1611L126.283 108.28C126.959 108.679 127.448 109.326 127.643 110.081C127.837 110.836 127.721 111.636 127.321 112.307L102.716 153.395C102.176 154.294 101.299 154.943 100.277 155.202C99.2546 155.461 98.1705 155.307 97.2625 154.774Z" fill="#F2F2F2"/>
<path d="M49.7509 122.265L95.9741 149.433C96.8543 149.95 97.9059 150.1 98.8976 149.849C99.8892 149.599 100.74 148.968 101.262 148.096L120.158 116.542C120.68 115.67 120.831 114.628 120.578 113.645C120.325 112.663 119.688 111.82 118.808 111.303L72.5846 84.1354C71.7044 83.6181 70.6528 83.4683 69.6611 83.7191C68.6695 83.9699 67.819 84.6007 67.2968 85.4727L48.4011 117.027C47.8789 117.899 47.7277 118.941 47.9809 119.923C48.234 120.906 48.8707 121.748 49.7509 122.265V122.265Z" fill="white"/>
<path d="M127.415 112.042L67.7087 76.9493L68.7425 75.2231C69.2839 74.3219 70.1641 73.6703 71.1899 73.4112C72.2156 73.1521 73.3033 73.3067 74.2141 73.841L127.05 104.896C127.96 105.431 128.619 106.303 128.881 107.319C129.143 108.335 128.988 109.413 128.449 110.316L127.415 112.042Z" fill="#CCCCCC"/>
<path d="M75.4835 79.0835C76.0541 79.0835 76.5166 78.6253 76.5166 78.06C76.5166 77.4948 76.0541 77.0365 75.4835 77.0365C74.9129 77.0365 74.4504 77.4948 74.4504 78.06C74.4504 78.6253 74.9129 79.0835 75.4835 79.0835Z" fill="white"/>
<path d="M78.8561 81.0657C79.4266 81.0657 79.8892 80.6075 79.8892 80.0422C79.8892 79.477 79.4266 79.0187 78.8561 79.0187C78.2855 79.0187 77.823 79.477 77.823 80.0422C77.823 80.6075 78.2855 81.0657 78.8561 81.0657Z" fill="white"/>
<path d="M82.2286 83.0479C82.7992 83.0479 83.2617 82.5897 83.2617 82.0244C83.2617 81.4592 82.7992 81.0009 82.2286 81.0009C81.658 81.0009 81.1955 81.4592 81.1955 82.0244C81.1955 82.5897 81.658 83.0479 82.2286 83.0479Z" fill="white"/>
<path d="M114.13 118.032L114.063 118.144L114.743 118.544L114.81 118.432L114.13 118.032Z" fill="#E6E6E6"/>
<path d="M112.69 117.338L111.318 116.531L111.385 116.418L112.758 117.225L112.69 117.338ZM109.945 115.724L108.572 114.917L108.639 114.805L110.012 115.612L109.945 115.724ZM107.199 114.11L105.826 113.303L105.893 113.191L107.266 113.998L107.199 114.11ZM104.453 112.496L103.08 111.689L103.147 111.577L104.52 112.384L104.453 112.496ZM101.707 110.882L100.334 110.075L100.402 109.963L101.775 110.77L101.707 110.882ZM98.9616 109.268L97.5887 108.462L97.6559 108.349L99.0288 109.156L98.9616 109.268ZM96.2158 107.655L94.843 106.848L94.9102 106.736L96.283 107.542L96.2158 107.655ZM93.4701 106.041L92.0972 105.234L92.1644 105.122L93.5373 105.929L93.4701 106.041ZM90.7243 104.427L89.3514 103.62L89.4186 103.508L90.7915 104.315L90.7243 104.427ZM87.9785 102.813L86.6057 102.006L86.6728 101.894L88.0457 102.701L87.9785 102.813ZM85.2328 101.199L83.8599 100.392L83.9271 100.28L85.3 101.087L85.2328 101.199ZM82.487 99.5855L81.1141 98.7786L81.1813 98.6664L82.5542 99.4733L82.487 99.5855ZM79.7412 97.9717L78.3684 97.1648L78.4356 97.0526L79.8084 97.8595L79.7412 97.9717ZM76.9955 96.3579L75.6226 95.551L75.6898 95.4388L77.0627 96.2457L76.9955 96.3579ZM74.2497 94.7441L72.8768 93.9372L72.944 93.8249L74.3169 94.6319L74.2497 94.7441ZM71.5039 93.1302L70.131 92.3233L70.1982 92.2111L71.5711 93.018L71.5039 93.1302Z" fill="#E6E6E6"/>
<path d="M68.1458 91.0047L68.0786 91.1169L68.7582 91.5164L68.8254 91.4041L68.1458 91.0047Z" fill="#E6E6E6"/>
<path d="M85.5685 115.353L85.5013 115.466L86.1809 115.865L86.2481 115.753L85.5685 115.353Z" fill="#E6E6E6"/>
<path d="M84.1488 114.671L82.7964 113.876L82.8635 113.764L84.216 114.558L84.1488 114.671ZM81.4439 113.081L80.0914 112.286L80.1586 112.174L81.5111 112.969L81.4439 113.081ZM78.7389 111.491L77.3864 110.696L77.4536 110.584L78.8061 111.379L78.7389 111.491ZM76.0339 109.901L74.6814 109.106L74.7486 108.994L76.1011 109.789L76.0339 109.901ZM73.3289 108.311L71.9764 107.516L72.0436 107.404L73.3961 108.199L73.3289 108.311ZM70.6239 106.721L69.2714 105.926L69.3386 105.814L70.6911 106.609L70.6239 106.721ZM67.9189 105.132L66.5665 104.337L66.6337 104.224L67.9861 105.019L67.9189 105.132ZM65.214 103.542L63.8615 102.747L63.9287 102.635L65.2812 103.429L65.214 103.542Z" fill="#E6E6E6"/>
<path d="M61.8967 101.44L61.8295 101.552L62.509 101.952L62.5762 101.84L61.8967 101.44Z" fill="#E6E6E6"/>
<path d="M69.3602 112.502L69.293 112.614L69.9726 113.014L70.0398 112.901L69.3602 112.502Z" fill="#E6E6E6"/>
<path d="M67.9015 111.796L66.51 110.978L66.5772 110.866L67.9687 111.684L67.9015 111.796ZM65.1185 110.161L63.727 109.343L63.7942 109.23L65.1857 110.048L65.1185 110.161ZM62.3355 108.525L60.944 107.707L61.0111 107.595L62.4027 108.413L62.3355 108.525Z" fill="#E6E6E6"/>
<path d="M58.9401 106.377L58.8729 106.49L59.5524 106.889L59.6196 106.777L58.9401 106.377Z" fill="#E6E6E6"/>
<path d="M64.3147 120.927L64.2475 121.04L64.9271 121.439L64.9943 121.327L64.3147 120.927Z" fill="#E6E6E6"/>
<path d="M62.856 120.222L61.4645 119.404L61.5317 119.292L62.9232 120.109L62.856 120.222ZM60.073 118.586L58.6815 117.768L58.7487 117.656L60.1402 118.474L60.073 118.586ZM57.29 116.95L55.8985 116.132L55.9657 116.02L57.3572 116.838L57.29 116.95Z" fill="#E6E6E6"/>
<path d="M53.8945 114.803L53.8273 114.915L54.5069 115.315L54.5741 115.202L53.8945 114.803Z" fill="#E6E6E6"/>
<path d="M57.6073 117.253L96.7783 140.276C97.7274 140.832 98.8605 140.993 99.929 140.723C100.998 140.453 101.914 139.773 102.478 138.834L113.923 119.722L113.844 119.679L87.8769 126.245L85.8199 118.266C85.7824 118.119 85.7108 117.982 85.6109 117.866C85.511 117.751 85.3855 117.66 85.2441 117.6C85.0279 117.514 84.789 117.501 84.5645 117.563L70.9564 121.003L69.4522 115.169C69.4198 115.043 69.3627 114.925 69.2841 114.821C69.2055 114.717 69.107 114.629 68.9942 114.563C68.8814 114.497 68.7565 114.453 68.6266 114.435C68.4968 114.416 68.3646 114.423 68.2375 114.455C68.1456 114.48 59.2906 116.804 57.6073 117.253Z" fill="#6C63FF"/>
<path d="M57.3731 117.267L57.3405 117.141L68.23 114.387C68.5176 114.314 68.8225 114.358 69.0777 114.508C69.333 114.658 69.5177 114.902 69.5914 115.187L71.0651 120.906L84.5976 117.483C84.8853 117.411 85.1901 117.455 85.4454 117.605C85.7006 117.755 85.8854 117.999 85.9591 118.284L87.9856 126.148L114.088 119.547L114.121 119.673L87.8906 126.307L85.8315 118.316C85.7994 118.191 85.7429 118.074 85.6652 117.972C85.5874 117.869 85.49 117.782 85.3785 117.716C85.2669 117.651 85.1434 117.608 85.015 117.589C84.8866 117.571 84.7559 117.578 84.6302 117.61L70.9701 121.065L69.4638 115.219C69.3988 114.968 69.2357 114.752 69.0105 114.62C68.7853 114.488 68.5163 114.449 68.2625 114.513L57.3731 117.267Z" fill="#3F3D56"/>
<path d="M70.0062 113.871C70.5153 113.871 70.9281 113.462 70.9281 112.957C70.9281 112.453 70.5153 112.044 70.0062 112.044C69.4971 112.044 69.0843 112.453 69.0843 112.957C69.0843 113.462 69.4971 113.871 70.0062 113.871Z" fill="#3F3D56"/>
<path d="M86.2145 116.722C86.7237 116.722 87.1364 116.313 87.1364 115.809C87.1364 115.305 86.7237 114.896 86.2145 114.896C85.7054 114.896 85.2927 115.305 85.2927 115.809C85.2927 116.313 85.7054 116.722 86.2145 116.722Z" fill="#3F3D56"/>
<path d="M114.452 118.922C114.962 118.922 115.374 118.513 115.374 118.008C115.374 117.504 114.962 117.095 114.452 117.095C113.943 117.095 113.531 117.504 113.531 118.008C113.531 118.513 113.943 118.922 114.452 118.922Z" fill="#3F3D56"/>
<path d="M42.166 119.092C41.8895 118.872 41.6651 118.595 41.5085 118.279C41.3519 117.964 41.267 117.619 41.2597 117.268C41.2524 116.917 41.3229 116.568 41.4662 116.247C41.6096 115.926 41.8223 115.639 42.0894 115.408L38.8627 107.491L43.2528 108.369L45.6439 115.753C46.0059 116.223 46.1812 116.809 46.1366 117.398C46.092 117.988 45.8306 118.541 45.4019 118.953C44.9732 119.364 44.407 119.606 43.8106 119.631C43.2142 119.657 42.629 119.465 42.166 119.092V119.092Z" fill="#FFB8B8"/>
<path d="M42.1125 115.661C41.8747 115.678 41.6378 115.617 41.4384 115.488C41.239 115.358 41.0881 115.167 41.0088 114.945L35.7853 100.198L34.669 85.485C34.6382 85.0801 34.689 84.6733 34.8184 84.288C34.9478 83.9028 35.1532 83.5469 35.4226 83.241C35.6921 82.9351 36.0203 82.6853 36.388 82.5062C36.7558 82.3271 37.1559 82.2222 37.5649 82.1976C37.974 82.173 38.3839 82.2293 38.7708 82.3631C39.1578 82.4969 39.514 82.7055 39.8188 82.9769C40.1236 83.2483 40.3709 83.5771 40.5463 83.944C40.7217 84.3109 40.8217 84.7088 40.8405 85.1143L41.4655 98.5507L45.565 113.418C45.6356 113.678 45.6051 113.956 45.4794 114.196C45.3537 114.435 45.1421 114.62 44.8861 114.713L42.401 115.6C42.3081 115.633 42.211 115.654 42.1125 115.661V115.661Z" fill="#3F3D56"/>
<path d="M138.964 102.595C138.866 102.552 138.776 102.496 138.694 102.428L133.837 98.3741C133.72 98.2766 133.625 98.1563 133.557 98.0205C133.49 97.8848 133.452 97.7367 133.445 97.5856C133.438 97.4345 133.463 97.2837 133.519 97.1427C133.574 97.0017 133.658 96.8735 133.766 96.7664L138.174 92.3812C138.359 92.1955 138.605 92.082 138.868 92.0612C139.13 92.0405 139.392 92.114 139.604 92.2683L142.938 94.6665C143.146 94.8163 143.294 95.0334 143.358 95.2802C143.422 95.527 143.397 95.7882 143.287 96.0185L140.403 102.059C140.28 102.316 140.061 102.516 139.793 102.616C139.524 102.716 139.227 102.708 138.964 102.595L138.964 102.595Z" fill="#6C63FF"/>
<path d="M157.91 159.932L155.009 160.714L150.584 149.999L154.866 148.845L157.91 159.932Z" fill="#FFB8B8"/>
<path d="M152.653 160.467L158.307 158.943L159.265 162.433L150.147 164.891L150.131 164.833C149.881 163.923 150.006 162.951 150.479 162.133C150.952 161.314 151.734 160.715 152.653 160.467Z" fill="#2F2E41"/>
<path d="M133.108 162.125L130.101 162.125L128.671 150.635L133.109 150.635L133.108 162.125Z" fill="#FFB8B8"/>
<path d="M127.893 161.274H133.752V164.891H124.303V164.831C124.303 163.887 124.681 162.983 125.354 162.315C126.028 161.648 126.941 161.274 127.893 161.274V161.274Z" fill="#2F2E41"/>
<path d="M137.638 86.2651C140.964 86.2651 143.661 83.5933 143.661 80.2975C143.661 77.0017 140.964 74.3299 137.638 74.3299C134.311 74.3299 131.614 77.0017 131.614 80.2975C131.614 83.5933 134.311 86.2651 137.638 86.2651Z" fill="#FFB8B8"/>
<path d="M132.924 153.933H128.815C128.534 153.932 128.264 153.826 128.059 153.636C127.855 153.445 127.731 153.185 127.713 152.907C126.488 133.624 127.204 119.793 129.966 109.378C129.978 109.332 129.993 109.288 130.011 109.244L130.231 108.699C130.312 108.496 130.454 108.321 130.637 108.199C130.819 108.076 131.035 108.011 131.256 108.012H139.705C139.865 108.011 140.022 108.045 140.167 108.111C140.311 108.177 140.44 108.273 140.543 108.393L141.691 109.72C141.713 109.746 141.734 109.772 141.754 109.8C146.929 116.949 151.567 130.927 156.938 149.715C157.018 149.988 156.986 150.281 156.851 150.531C156.715 150.781 156.486 150.969 156.213 151.055L151.797 152.455C151.544 152.534 151.27 152.52 151.026 152.416C150.782 152.312 150.583 152.125 150.467 151.888L139.008 128.343C138.928 128.178 138.796 128.044 138.633 127.959C138.47 127.874 138.283 127.844 138.101 127.872C137.919 127.901 137.751 127.987 137.622 128.117C137.493 128.248 137.409 128.416 137.384 128.597L134.017 152.988C133.981 153.249 133.85 153.489 133.649 153.662C133.448 153.836 133.191 153.932 132.924 153.933V153.933Z" fill="#2F2E41"/>
<path d="M141.228 109.817C141.216 109.817 141.205 109.817 141.193 109.816L130.93 109.495C130.666 109.488 130.413 109.387 130.218 109.211C130.024 109.034 129.899 108.794 129.868 108.535C128.567 98.1012 132.135 95.3061 133.73 94.5888C133.863 94.5293 133.978 94.4366 134.065 94.3198C134.151 94.2031 134.206 94.0661 134.223 93.9223L134.361 92.8287C134.385 92.6356 134.46 92.4523 134.579 92.2977C137.079 89.0893 140.493 88.0619 142.305 87.7351C142.452 87.709 142.603 87.7127 142.749 87.746C142.894 87.7794 143.031 87.8417 143.152 87.9292C143.272 88.0167 143.373 88.1275 143.449 88.2549C143.525 88.3823 143.574 88.5237 143.593 88.6705L143.8 90.2408C143.821 90.3906 143.881 90.5323 143.975 90.6517C149.189 97.4044 143.38 107.375 142.163 109.305C142.063 109.461 141.925 109.591 141.762 109.68C141.598 109.77 141.415 109.817 141.228 109.817V109.817Z" fill="#6C63FF"/>
<path d="M144.265 76.5861C143.818 75.2424 143.487 73.8633 143.278 72.4637C143.212 71.6489 143.423 70.7722 144.022 70.21C145.143 69.1579 147.047 69.659 148.219 70.6547C149.913 72.0938 150.758 74.3053 151.078 76.4934C151.397 78.6815 151.257 80.9066 151.333 83.1161C151.41 85.3256 151.729 87.5976 152.866 89.4999C154.003 91.4023 156.113 92.8625 158.339 92.7006C159.237 92.6525 160.09 92.2944 160.75 91.6884C161.074 91.3832 161.319 91.0055 161.465 90.587C161.611 90.1686 161.654 89.7215 161.59 89.2834C162.727 91.3013 162.15 94.0363 160.454 95.6227C158.757 97.2091 156.147 97.6575 153.916 96.9802C151.686 96.3029 149.85 94.6046 148.753 92.5645C147.657 90.5244 147.255 88.1677 147.313 85.8571C147.358 84.0828 147.662 82.2939 147.36 80.5445C147.057 78.7951 145.952 77.0188 144.209 76.6068L144.265 76.5861Z" fill="#2F2E41"/>
<path d="M136.439 78.886C136.142 79.8693 135.006 80.4757 133.983 80.3094C133.474 80.2045 133.004 79.9651 132.621 79.6165C132.238 79.268 131.958 78.8234 131.81 78.3298C131.529 77.3297 131.644 76.2611 132.131 75.3422C132.4 74.7913 132.775 74.2984 133.236 73.8915C133.697 73.4847 134.235 73.1719 134.818 72.971C135.405 72.7785 136.029 72.7284 136.639 72.825C137.25 72.9216 137.827 73.162 138.324 73.5261C138.377 73.3052 138.488 73.1022 138.647 72.9381C138.805 72.7741 139.005 72.6548 139.225 72.5925C139.669 72.474 140.137 72.4809 140.577 72.6123C141.845 72.9703 142.944 73.7622 143.678 74.8472C144.403 75.9289 144.883 77.1533 145.084 78.4363C145.43 80.3602 145.302 82.4626 144.211 84.0909C143.121 85.7192 140.889 86.6807 139.079 85.9044C138.966 85.3327 139.234 84.757 139.543 84.2617C139.852 83.7663 140.219 83.2837 140.338 82.7132C140.457 82.1427 140.229 81.4448 139.672 81.2583C139.197 81.0991 138.69 81.357 138.189 81.3881C137.905 81.4058 137.621 81.3491 137.366 81.2237C137.111 81.0983 136.893 80.9087 136.735 80.6737C136.577 80.4388 136.485 80.1669 136.466 79.8852C136.448 79.6036 136.505 79.3222 136.631 79.0691L136.439 78.886Z" fill="#2F2E41"/>
<path d="M121.173 103.47C121.272 103.562 121.365 103.661 121.449 103.766L133.575 102.831L134.853 100.192L139.126 101.583L136.815 107.842L121.54 106.827C121.238 107.25 120.814 107.572 120.323 107.749C119.832 107.927 119.298 107.953 118.792 107.823C118.286 107.693 117.832 107.414 117.49 107.022C117.149 106.63 116.936 106.144 116.879 105.629C116.823 105.115 116.926 104.595 117.175 104.14C117.424 103.684 117.807 103.315 118.273 103.081C118.739 102.846 119.266 102.758 119.784 102.828C120.302 102.897 120.787 103.121 121.173 103.47V103.47Z" fill="#FFB8B8"/>
<path d="M139.06 105.752C138.958 105.724 138.86 105.68 138.77 105.624L133.4 102.264C133.271 102.183 133.161 102.076 133.075 101.951C132.99 101.826 132.931 101.684 132.904 101.535C132.877 101.387 132.881 101.234 132.916 101.087C132.951 100.939 133.017 100.801 133.109 100.68L136.873 95.741C137.03 95.5321 137.259 95.3863 137.516 95.3303C137.773 95.2744 138.042 95.3119 138.274 95.4361L141.907 97.3618C142.133 97.4821 142.31 97.6771 142.408 97.913C142.505 98.1489 142.516 98.411 142.439 98.6541L140.413 105.028C140.326 105.299 140.137 105.526 139.884 105.662C139.632 105.797 139.336 105.829 139.06 105.752V105.752Z" fill="#6C63FF"/>
</g>
<defs>
<clipPath id="clip0">
<rect width="183.784" height="164.82" fill="white" transform="translate(0.108109 0.382263)"/>
</clipPath>
</defs>
</svg>
