<svg width="184" height="166" viewBox="0 0 184 166" fill="none" xmlns="http://www.w3.org/2000/svg">
<g clip-path="url(#clip0)">
<path d="M14.4538 23.1762C18.7141 23.1762 22.1678 18.836 22.1678 13.482C22.1678 8.12804 18.7141 3.78778 14.4538 3.78778C10.1934 3.78778 6.73973 8.12804 6.73973 13.482C6.73973 18.836 10.1934 23.1762 14.4538 23.1762Z" fill="#FF6584"/>
<path d="M62.1466 158.616C68.283 161.811 74.7981 163.706 81.4274 164.224C84.5333 164.467 87.6978 164.479 90.7876 163.964C93.4951 163.512 96.2452 162.584 98.502 160.578C100.758 158.539 102.346 155.537 102.97 152.133C103.66 148.546 103.369 144.788 102.384 141.333C101.366 137.756 99.758 134.49 97.6644 131.751C95.7876 129.337 93.1586 127.141 90.3475 127.554C87.6454 127.951 85.6802 130.697 84.9605 133.873C84.0977 137.68 85.0904 141.708 86.4366 145.136C88.7201 150.951 92.3849 155.832 96.725 159.302C101.091 162.815 106.111 164.836 111.288 165.167C116.476 165.46 122.056 163.949 126.143 159.736C128.296 157.538 129.833 154.532 130.531 151.158C131.256 147.597 131.067 143.836 130.438 140.276C129.075 132.548 125.473 125.905 123.388 118.508C122.871 116.703 122.472 114.848 122.197 112.961C122.129 112.477 121.542 112.682 121.61 113.164C122.689 120.774 126.102 127.326 128.342 134.412C130.383 140.868 131.598 148.792 128.575 155.095C125.855 160.765 120.454 163.528 115.417 164.234C110.492 164.924 105.45 163.815 100.934 161.279C96.3899 158.727 92.3173 154.751 89.3627 149.7C87.7568 146.955 86.3734 143.845 85.6641 140.542C84.938 137.16 85.1083 133.33 87.0289 130.598C87.8767 129.355 89.0571 128.545 90.3475 128.319C91.6882 128.109 93.0309 128.581 94.2092 129.368C96.7392 131.057 98.6218 133.995 100.074 137.032C101.575 140.17 102.633 143.727 102.738 147.414C102.835 150.843 102.119 154.357 100.48 157.132C97.0939 162.862 90.7308 163.557 85.5086 163.601C79.108 163.651 72.7428 162.403 66.6585 159.905C65.1879 159.301 63.7379 158.626 62.3085 157.878C61.9469 157.69 61.7892 158.43 62.1466 158.616H62.1466Z" fill="#E6E6E6"/>
<path d="M46.3157 133.786L44.6803 130.631C44.4897 130.263 44.4232 129.814 44.4954 129.384C44.5677 128.954 44.7727 128.577 45.0656 128.337L55.0275 118.606C55.3208 118.366 55.6778 118.283 56.0201 118.373C56.3623 118.464 56.662 118.722 56.8533 119.09L58.4887 122.245C58.6793 122.614 58.7458 123.062 58.6736 123.492C58.6013 123.922 58.3962 124.299 58.1033 124.539L48.1415 134.271C47.8482 134.51 47.4912 134.594 47.1489 134.503C46.8066 134.412 46.507 134.155 46.3157 133.786V133.786Z" fill="#2F2E41"/>
<path d="M45.0764 128.351L47.7038 126.541C48.0107 126.331 48.3717 126.281 48.7075 126.404C49.0433 126.528 49.3266 126.813 49.4951 127.198L56.4712 142.994C56.639 143.38 56.6781 143.834 56.5801 144.256C56.4821 144.678 56.2549 145.034 55.9483 145.246L53.3209 147.055C53.0139 147.266 52.653 147.315 52.3171 147.192C51.9813 147.069 51.6981 146.784 51.5296 146.398L44.5535 130.602C44.3857 130.217 44.3465 129.763 44.4445 129.341C44.5426 128.919 44.7698 128.563 45.0764 128.351V128.351Z" fill="#2F2E41"/>
<path d="M26.814 99.2835C26.4793 99.2829 26.1574 99.1224 25.9133 98.8347C25.6692 98.5469 25.5212 98.1534 25.4993 97.7337L25.3035 93.9764C25.2806 93.5375 25.3974 93.1052 25.6282 92.7746C25.8589 92.444 26.1847 92.2421 26.534 92.2133L49.9577 90.2855C50.3269 90.2551 50.6973 90.3164 51.0477 90.4659C51.398 90.6154 51.7216 90.8502 51.9997 91.1568C52.2779 91.4634 52.5053 91.8359 52.669 92.253C52.8326 92.67 52.9293 93.1235 52.9534 93.5875C52.9776 94.0515 52.9288 94.517 52.8099 94.9573C52.6909 95.3976 52.5041 95.8041 52.2601 96.1537C52.0161 96.5033 51.7197 96.7891 51.3879 96.9947C51.056 97.2004 50.6952 97.3219 50.3259 97.3523L26.9022 99.2799C26.8728 99.2823 26.8433 99.2835 26.814 99.2835Z" fill="#6C63FF"/>
<path d="M31.4328 99.768C31.0916 99.7672 30.7638 99.6006 30.5181 99.3031C30.2725 99.0055 30.1279 98.6 30.1148 98.1715L29.9479 92.5596C29.9414 92.342 29.9691 92.1249 30.0294 91.9207C30.0897 91.7166 30.1814 91.5293 30.2992 91.3697C30.4171 91.2101 30.5589 91.0812 30.7164 90.9905C30.8739 90.8997 31.0441 90.8488 31.2172 90.8407L50.4792 89.936C50.8289 89.9196 51.1695 90.0784 51.426 90.3776C51.6825 90.6767 51.834 91.0917 51.8471 91.5312L52.014 97.1431C52.0204 97.3607 51.9927 97.5778 51.9325 97.7819C51.8722 97.9861 51.7805 98.1733 51.6626 98.3329C51.5447 98.4926 51.403 98.6214 51.2455 98.7122C51.088 98.803 50.9178 98.8539 50.7446 98.862L31.4827 99.7667C31.466 99.7676 31.4493 99.768 31.4328 99.768Z" fill="#CCCCCC"/>
<path d="M62.3619 159.102V146.923C62.3619 136.291 58.6711 126.096 52.0855 119.423C47.1632 114.435 40.0337 110.705 29.8202 111.538L33.711 91.9799L0.108124 120.873L33.0036 149.767L29.6433 131.319C29.6433 131.319 50.1588 126.43 62.3619 159.102Z" fill="#3F3D56"/>
<path d="M38.8616 139.851L36.4383 137.636C36.1555 137.377 35.9661 136.988 35.9115 136.554C35.8569 136.12 35.9416 135.676 36.147 135.32L50.8324 109.938C51.0385 109.582 51.3482 109.344 51.6938 109.276C52.0393 109.207 52.3924 109.314 52.6756 109.572L55.0989 111.786C55.3817 112.045 55.5711 112.434 55.6257 112.868C55.6803 113.303 55.5956 113.746 55.3902 114.102L40.7048 139.485C40.4987 139.84 40.189 140.078 39.8434 140.147C39.4979 140.215 39.1448 140.109 38.8616 139.851Z" fill="#2F2E41"/>
<path d="M36.161 135.328L38.1019 132.46C38.3288 132.125 38.6521 131.917 39.0008 131.882C39.3495 131.847 39.6951 131.986 39.9619 132.271L50.9626 143.9C51.2288 144.186 51.3942 144.592 51.4224 145.03C51.4506 145.468 51.3394 145.903 51.1131 146.238L49.1722 149.106C48.9453 149.441 48.622 149.649 48.2734 149.684C47.9247 149.72 47.579 149.58 47.3122 149.296L36.3115 137.666C36.0453 137.381 35.8799 136.974 35.8517 136.536C35.8235 136.098 35.9347 135.664 36.161 135.328Z" fill="#2F2E41"/>
<path d="M49.4541 84.05C55.1719 84.05 59.8071 78.225 59.8071 71.0394C59.8071 63.8538 55.1719 58.0287 49.4541 58.0287C43.7362 58.0287 39.101 63.8538 39.101 71.0394C39.101 78.225 43.7362 84.05 49.4541 84.05Z" fill="#6C63FF"/>
<path d="M44.8998 76.77C44.5494 76.7792 44.2014 76.694 43.8793 76.5201C43.6619 76.3904 43.4696 76.2025 43.316 75.9697C43.1624 75.7368 43.0512 75.4645 42.9901 75.1719C42.9436 74.9648 42.9359 74.747 42.9674 74.5354C42.999 74.3239 43.0691 74.1244 43.1722 73.9525C43.4426 73.5166 43.9094 73.3092 44.4588 73.3622L43.0991 68.579L43.4814 68.4073L45.0799 74.0305L44.7195 73.9278C44.3017 73.809 43.7598 73.8351 43.4924 74.2662C43.4277 74.3775 43.3843 74.5061 43.3655 74.6419C43.3468 74.7777 43.3532 74.9171 43.3843 75.0493C43.4307 75.2669 43.5139 75.4693 43.6281 75.6428C43.7423 75.8164 43.885 75.9569 44.0463 76.055C44.6114 76.3756 45.2728 76.2615 46.0161 76.0922L46.0885 76.5942C45.6972 76.6973 45.2994 76.7561 44.8998 76.77V76.77Z" fill="#2F2E41"/>
<path d="M41.2234 69.5179L39.0835 70.0829L39.1669 70.5822L41.3069 70.0172L41.2234 69.5179Z" fill="#2F2E41"/>
<path d="M47.9779 67.7343L45.838 68.2993L45.9214 68.7986L48.0614 68.2336L47.9779 67.7343Z" fill="#2F2E41"/>
<path d="M58.0989 126.879H40.6409C40.1834 126.878 39.7448 126.65 39.4213 126.243C39.0978 125.837 38.9159 125.286 38.9154 124.711L42.5702 89.4888C42.5731 88.9165 42.7562 88.369 43.0793 87.9657C43.4025 87.5625 43.8395 87.3364 44.2949 87.3368H50.4905C52.9651 87.3403 55.3376 88.5773 57.0875 90.7763C58.8374 92.9754 59.8216 95.9569 59.8244 99.0668V124.711C59.8239 125.286 59.642 125.837 59.3185 126.243C58.995 126.65 58.5564 126.878 58.0989 126.879V126.879Z" fill="#CCCCCC"/>
<path d="M30.8364 112.173C30.5817 112.173 30.3323 112.081 30.1184 111.907C29.9044 111.733 29.735 111.485 29.6305 111.194L28.4041 107.758C28.3332 107.559 28.2941 107.345 28.2891 107.127C28.2841 106.91 28.3132 106.693 28.3748 106.489C28.4365 106.286 28.5294 106.1 28.6484 105.941C28.7673 105.783 28.9099 105.655 29.068 105.566L50.4855 93.4921C50.8231 93.3018 51.1872 93.1969 51.5571 93.1834C51.9269 93.1699 52.2952 93.2481 52.641 93.4135C52.9868 93.5789 53.3033 93.8283 53.5724 94.1474C53.8415 94.4666 54.058 94.8492 54.2094 95.2734C54.3609 95.6977 54.4444 96.1553 54.4551 96.62C54.4658 97.0848 54.4036 97.5477 54.272 97.9823C54.1403 98.4169 53.9419 98.8146 53.6879 99.1528C53.434 99.491 53.1295 99.763 52.792 99.9533L31.3745 112.028C31.2053 112.123 31.0219 112.173 30.8364 112.173V112.173Z" fill="#6C63FF"/>
<path d="M37.0835 110.399C36.8287 110.399 36.5794 110.307 36.3654 110.133C36.1515 109.96 35.9821 109.712 35.8776 109.42L33.7829 103.552C33.6401 103.15 33.6298 102.694 33.7542 102.283C33.8787 101.873 34.1277 101.541 34.4468 101.36L52.0336 91.4455C52.1917 91.3563 52.3622 91.3072 52.5354 91.3009C52.7086 91.2945 52.8812 91.3312 53.0431 91.4086C53.205 91.4861 53.3533 91.6029 53.4793 91.7523C53.6053 91.9018 53.7067 92.081 53.7776 92.2797L55.8723 98.1476C55.9432 98.3463 55.9823 98.5606 55.9873 98.7783C55.9924 98.9959 55.9632 99.2127 55.9016 99.4162C55.8399 99.6198 55.747 99.806 55.628 99.9644C55.5091 100.123 55.3665 100.25 55.2084 100.339L37.6216 110.254C37.4524 110.35 37.269 110.399 37.0835 110.399V110.399Z" fill="#CCCCCC"/>
<path d="M47.157 62.8819C45.4713 62.1016 44.0857 64.1574 42.5583 64.6281C41.097 65.0784 39.5227 64.019 38.7422 62.475C37.8316 60.6737 38.0572 58.3351 38.8855 56.5569C39.7928 54.6093 41.4084 53.4142 43.1208 52.8922C45.0835 52.2939 47.1284 52.5882 49.0654 53.1958C50.9233 53.7425 52.7245 54.5576 54.4333 55.6246C55.9781 56.6294 57.4423 58.004 58.3452 59.9078C59.1657 61.638 59.5716 63.7915 59.1656 65.7739C58.942 66.7972 58.5124 67.7309 57.9181 68.4848C57.3066 69.2983 56.606 70.0034 56.0358 70.8663C55.1736 72.171 54.5942 74.3092 55.4443 75.8525C55.6286 76.1902 55.8762 76.4659 56.1652 76.6552C56.5124 76.8824 56.8207 76.2222 56.4725 75.9943C55.8611 75.5942 55.6392 74.782 55.6557 73.954C55.6885 73.0142 55.9744 72.1163 56.4665 71.4075C57.0637 70.5055 57.802 69.7753 58.4326 68.9131C59.0427 68.1096 59.4893 67.1327 59.7343 66.0656C60.1824 64.0016 59.832 61.7537 59.0387 59.8942C58.1804 57.882 56.7416 56.3626 55.1757 55.2584C53.4716 54.0567 51.5778 53.2513 49.6974 52.6117C47.6798 51.9255 45.5612 51.539 43.4849 52.0139C41.6852 52.4256 39.9262 53.5175 38.7944 55.365C37.7379 57.0895 37.2332 59.4399 37.7441 61.562C37.9866 62.5228 38.4284 63.385 39.0242 64.0599C39.6199 64.7349 40.348 65.1981 41.1335 65.402C41.9322 65.5866 42.7568 65.4514 43.4911 65.0155C44.2822 64.57 45.0007 63.8775 45.8421 63.5813C46.2195 63.4363 46.6243 63.4498 46.9951 63.6199C47.3634 63.7904 47.5222 63.051 47.157 62.8819V62.8819Z" fill="#2F2E41"/>
<path d="M121.638 114.72V102.541C121.638 91.9101 125.329 81.7145 131.914 75.0413C136.837 70.0536 143.966 66.3238 154.18 67.1573L150.289 47.5987L183.892 76.4921L150.996 105.386L154.357 86.9382C154.357 86.9382 133.841 82.0485 121.638 114.72Z" fill="#3F3D56"/>
<path d="M139.904 53.7863C139.47 53.3465 139.15 52.7549 138.984 52.0864C138.817 51.418 138.813 50.7026 138.97 50.0308C139.128 49.3589 139.44 48.7609 139.868 48.3122C140.296 47.8634 140.82 47.5843 141.374 47.5099L164.715 44.3778C165.063 44.3317 165.411 44.4608 165.683 44.7369C165.956 45.013 166.13 45.4135 166.167 45.8506L166.066 45.8642L166.167 45.8506L166.485 49.5947C166.504 49.8112 166.488 50.0302 166.439 50.2391C166.39 50.448 166.309 50.6427 166.2 50.8122C166.091 50.9816 165.957 51.1225 165.805 51.2267C165.653 51.3309 165.486 51.3965 165.313 51.4196L141.972 54.5516C141.871 54.5653 141.769 54.5721 141.668 54.5721C141.025 54.5726 140.402 54.2951 139.904 53.7863V53.7863Z" fill="#6C63FF"/>
<path d="M146.779 79.6514V75.8862C146.78 75.4466 146.919 75.0251 147.166 74.7142C147.413 74.4033 147.749 74.2285 148.099 74.228H173.071C173.42 74.2285 173.756 74.4033 174.003 74.7142C174.251 75.0251 174.39 75.4466 174.39 75.8862V79.6514C174.39 80.0911 174.251 80.5126 174.003 80.8234C173.756 81.1343 173.42 81.3092 173.071 81.3097H148.099C147.749 81.3092 147.413 81.1343 147.166 80.8234C146.919 80.5126 146.78 80.0911 146.779 79.6514Z" fill="#6C63FF"/>
<path d="M134.839 79.8347C134.684 79.7372 134.546 79.6021 134.433 79.4371C134.32 79.2721 134.234 79.0806 134.18 78.8735L133.241 75.298C133.131 74.8804 133.158 74.4253 133.316 74.0327C133.473 73.64 133.748 73.3418 134.08 73.2035L157.793 63.3642C158.125 63.2263 158.487 63.26 158.8 63.4578C159.112 63.6556 159.35 64.0013 159.459 64.4189L159.363 64.4589L159.459 64.4189L160.399 67.9943C160.508 68.4119 160.481 68.867 160.324 69.2596C160.166 69.6523 159.892 69.9505 159.559 70.0888L135.847 79.9281C135.682 79.9969 135.508 80.0241 135.336 80.0081C135.163 79.992 134.994 79.9331 134.839 79.8347V79.8347Z" fill="#6C63FF"/>
<path d="M165.927 80.9395L155.285 68.8806C155.026 68.5858 154.87 68.1737 154.852 67.7346C154.833 67.2956 154.955 66.8655 155.189 66.5386L157.195 63.7421C157.429 63.4156 157.757 63.2193 158.107 63.1966C158.456 63.1739 158.799 63.3266 159.059 63.621L169.701 75.6799C169.96 75.9747 170.116 76.3868 170.134 76.8258C170.152 77.2649 170.031 77.695 169.797 78.0219L167.791 80.8183C167.675 80.9805 167.535 81.1122 167.379 81.2059C167.222 81.2995 167.052 81.3532 166.879 81.3639C166.856 81.3655 166.833 81.3663 166.809 81.3662C166.483 81.3668 166.169 81.2147 165.927 80.9395V80.9395Z" fill="#6C63FF"/>
<path d="M138.871 37.6179C144.589 37.6179 149.224 31.7928 149.224 24.6072C149.224 17.4216 144.589 11.5965 138.871 11.5965C133.153 11.5965 128.518 17.4216 128.518 24.6072C128.518 31.7928 133.153 37.6179 138.871 37.6179Z" fill="#6C63FF"/>
<path d="M126.754 76.2424C126.03 74.6872 125.648 72.9176 125.648 71.1155C125.648 69.3134 126.03 67.5438 126.754 65.9885L137.728 42.101C137.844 41.8489 138.011 41.6396 138.211 41.494C138.412 41.3485 138.639 41.2719 138.871 41.2719C139.103 41.2719 139.33 41.3485 139.531 41.494C139.731 41.6396 139.898 41.8489 140.014 42.101L156.912 78.8821C157.028 79.1342 157.089 79.4202 157.089 79.7112C157.089 80.0023 157.028 80.2883 156.912 80.5404C156.796 80.7924 156.629 81.0018 156.429 81.1473C156.228 81.2928 156.001 81.3695 155.769 81.3695H133.82C132.386 81.3802 130.976 80.9109 129.734 80.0099C128.492 79.1088 127.464 77.8085 126.754 76.2424V76.2424Z" fill="#CCCCCC"/>
<path d="M147.405 29.5588C148.076 29.5353 148.911 29.5061 149.554 28.9154C149.746 28.7323 149.903 28.4987 150.016 28.2312C150.128 27.9636 150.192 27.6684 150.204 27.3663C150.216 27.1515 150.188 26.9363 150.122 26.7374C150.057 26.5386 149.956 26.3614 149.826 26.2199C149.49 25.8629 149 25.7793 148.471 25.9746L149.019 20.9424L148.617 20.8731L147.972 26.7892L148.308 26.5955C148.698 26.371 149.232 26.2569 149.564 26.6095C149.646 26.7018 149.71 26.8164 149.75 26.9445C149.791 27.0726 149.807 27.2108 149.798 27.3482C149.789 27.5731 149.74 27.7926 149.657 27.992C149.573 28.1913 149.457 28.3657 149.315 28.5033C148.814 28.963 148.149 29.0223 147.393 29.0488L147.405 29.5588Z" fill="#2F2E41"/>
<path d="M146.293 21.3764H144.106V21.8866H146.293V21.3764Z" fill="#2F2E41"/>
<path d="M132.733 9.26288C132.445 7.78621 131.912 6.40272 131.169 5.20335C130.426 4.00398 129.489 3.01587 128.42 2.30397C127.324 1.596 126.116 1.20374 124.884 1.15571C123.652 1.10767 122.427 1.40506 121.298 2.02627C120.142 2.6487 119.115 3.5969 118.297 4.79758C117.478 5.99825 116.891 7.41926 116.579 8.95078C116.259 10.4915 116.214 12.1025 116.449 13.6674C116.738 15.3249 117.298 16.8889 118.093 18.2599C118.895 19.7193 119.838 21.0439 120.704 22.4422C121.573 23.8434 122.364 25.318 123.072 26.8556C125.205 31.4882 126.558 36.6224 127.046 41.9395C127.211 43.5454 127.242 45.1686 127.139 46.7827C126.906 49.917 125.94 52.987 123.722 54.6925C122.543 55.5992 121.182 56.0675 119.836 56.395C118.325 56.7973 116.779 56.9492 115.236 56.8467C112.629 56.6139 110.02 55.2466 108.506 52.4621C108.171 51.8421 107.909 51.1646 107.727 50.4506C107.606 49.9807 108.194 49.7795 108.314 50.2471C109.116 53.3716 111.55 55.2976 114.013 55.8849C115.547 56.2078 117.114 56.2059 118.647 55.8792C120.04 55.6178 121.476 55.2559 122.752 54.4834C123.912 53.8035 124.875 52.6856 125.505 51.2855C126.075 49.9338 126.42 48.4506 126.519 46.9261C126.79 43.5882 126.348 40.1327 125.686 36.9042C124.978 33.4488 123.892 30.1336 122.459 27.0535C121.743 25.5144 120.942 24.0408 120.061 22.6436C119.188 21.2616 118.258 19.9326 117.471 18.4686C116.694 17.0875 116.147 15.5238 115.862 13.8709C115.62 12.2849 115.642 10.653 115.928 9.0786C116.204 7.52479 116.744 6.06432 117.511 4.79728C118.278 3.53024 119.254 2.4866 120.372 1.73787C122.566 0.283427 125.239 -0.0648104 127.586 1.00692C129.863 2.06303 131.717 4.20599 132.744 6.97009C132.991 7.64057 133.184 8.34053 133.32 9.05943C133.41 9.53845 132.823 9.74289 132.733 9.26289V9.26288Z" fill="#2F2E41"/>
<path d="M130.754 9.88504C130.372 8.51766 129.603 7.37504 128.593 6.67562C127.583 5.97621 126.403 5.76906 125.28 6.09379C124.898 6.20585 124.736 5.46809 125.118 5.35579C126.398 4.96115 127.749 5.18722 128.903 5.98894C130.056 6.79066 130.927 8.10914 131.341 9.68159C131.469 10.1483 130.881 10.3488 130.754 9.88504Z" fill="#2F2E41"/>
<path d="M130.661 12.6509C130.544 12.309 130.541 11.9229 130.65 11.5774C130.76 11.2319 130.974 10.9552 131.246 10.8079L134.044 9.29676C134.316 9.14981 134.623 9.14471 134.898 9.28257C135.173 9.42042 135.393 9.68995 135.51 10.0318C135.627 10.3737 135.631 10.76 135.521 11.1057C135.412 11.4513 135.197 11.7281 134.925 11.875L132.128 13.3861C131.856 13.533 131.548 13.5381 131.273 13.4003C130.998 13.2624 130.778 12.9928 130.661 12.6509V12.6509Z" fill="#2F2E41"/>
<path d="M137.547 84.3572L134.56 84.0525C134.212 84.0164 133.889 83.808 133.662 83.473C133.436 83.138 133.324 82.7037 133.352 82.2655L135.252 52.8626C135.281 52.399 135.384 51.9473 135.552 51.5333C135.721 51.1193 135.953 50.7512 136.235 50.4499C136.517 50.1486 136.843 49.9201 137.196 49.7774C137.548 49.6347 137.919 49.5807 138.288 49.6183C138.657 49.6559 139.016 49.7846 139.346 49.9968C139.675 50.209 139.968 50.5007 140.207 50.8552C140.447 51.2097 140.629 51.6201 140.742 52.0629C140.856 52.5056 140.898 52.9721 140.868 53.4357L138.969 82.8385C138.942 83.2533 138.792 83.6402 138.549 83.9225C138.306 84.2049 137.987 84.362 137.656 84.3627C137.62 84.3627 137.583 84.3609 137.547 84.3572Z" fill="#6C63FF"/>
<path d="M2.74096 25.8131C1.67368 22.6775 3.13667 18.5867 5.71112 17.508C8.28556 16.4292 11.4093 18.5981 12.053 21.9112C11.6369 20.6354 11.4619 19.2556 11.5418 17.8805C11.6218 16.5053 11.9545 15.1722 12.5139 13.986C13.0732 12.7997 13.8439 11.7928 14.7653 11.0442C15.6867 10.2957 16.7337 9.82593 17.8241 9.67198C18.9144 9.51803 20.0183 9.68405 21.0489 10.157C22.0795 10.6299 23.0088 11.3969 23.7637 12.3975C24.5185 13.3982 25.0783 14.6053 25.3991 15.9238C25.7199 17.2424 25.7929 18.6366 25.6124 19.9966C27.1643 17.1215 30.4942 16.0356 32.9627 17.5997C35.4312 19.1638 36.7165 23.1739 35.7999 26.4516L1.82234 26.3753" fill="#F2F2F2"/>
<path d="M71.5582 61.5286C70.4909 58.393 71.9539 54.3022 74.5283 53.2235C77.1028 52.1448 80.2266 54.3136 80.8702 57.6267C80.4541 56.3509 80.2791 54.9712 80.359 53.596C80.439 52.2208 80.7717 50.8877 81.3311 49.7015C81.8904 48.5153 82.6611 47.5083 83.5825 46.7598C84.5039 46.0112 85.551 45.5415 86.6413 45.3875C87.7316 45.2336 88.8355 45.3996 89.8661 45.8725C90.8967 46.3455 91.826 47.1124 92.5809 48.1131C93.3357 49.1137 93.8955 50.3208 94.2163 51.6394C94.5371 52.958 94.6102 54.3521 94.4297 55.7121C95.9815 52.837 99.3114 51.7511 101.78 53.3152C104.248 54.8793 105.534 58.8895 104.617 62.1671L70.6396 62.0908" fill="#F2F2F2"/>
</g>
<defs>
<clipPath id="clip0">
<rect width="183.784" height="164.82" fill="white" transform="translate(0.108109 0.382263)"/>
</clipPath>
</defs>
</svg>
