<svg width="24" height="24" viewBox="0 0 24 24" fill="none" xmlns="http://www.w3.org/2000/svg">
<path d="M9 10H10C10.2652 10 10.5196 9.89464 10.7071 9.70711C10.8946 9.51957 11 9.26522 11 9C11 8.73478 10.8946 8.48043 10.7071 8.29289C10.5196 8.10536 10.2652 8 10 8H9C8.73478 8 8.48043 8.10536 8.29289 8.29289C8.10536 8.48043 8 8.73478 8 9C8 9.26522 8.10536 9.51957 8.29289 9.70711C8.48043 9.89464 8.73478 10 9 10ZM14.21 12.386L12.537 14.538L11.669 13.757C11.5678 13.6658 11.449 13.5963 11.32 13.5526C11.1909 13.509 11.0543 13.4922 10.9185 13.5033C10.7828 13.5143 10.6507 13.553 10.5304 13.6169C10.4101 13.6808 10.3041 13.7687 10.219 13.875L8.219 16.375C8.13692 16.4776 8.07585 16.5953 8.03927 16.7215C8.00269 16.8476 7.99132 16.9798 8.00581 17.1103C8.02029 17.2409 8.06035 17.3673 8.1237 17.4824C8.18705 17.5974 8.27244 17.6989 8.375 17.781C8.47756 17.8631 8.59529 17.9241 8.72145 17.9607C8.84762 17.9973 8.97975 18.0087 9.11031 17.9942C9.24087 17.9797 9.3673 17.9396 9.48237 17.8763C9.59745 17.813 9.69892 17.7276 9.781 17.625L11.119 15.952L11.998 16.743C12.1001 16.8348 12.2201 16.9046 12.3504 16.948C12.4807 16.9914 12.6185 17.0075 12.7553 16.9953C12.8921 16.9831 13.0249 16.9429 13.1454 16.8771C13.266 16.8113 13.3717 16.7214 13.456 16.613L15.79 13.613C15.9527 13.4035 16.0255 13.1379 15.9924 12.8747C15.9593 12.6115 15.823 12.3722 15.6135 12.2095C15.404 12.0468 15.1384 11.974 14.8752 12.0071C14.612 12.0402 14.3727 12.1765 14.21 12.386ZM19.988 8.938C19.9746 8.69708 19.8752 8.46896 19.708 8.295L19.707 8.293L13.707 2.293L13.706 2.292C13.6224 2.21132 13.5252 2.14599 13.419 2.099C13.389 2.085 13.359 2.077 13.327 2.066C13.2409 2.0357 13.1511 2.01752 13.06 2.012C13.04 2.011 13.021 2 13 2H7C6.20459 2.00079 5.44199 2.31712 4.87956 2.87956C4.31712 3.44199 4.00079 4.20459 4 5V19C4.00079 19.7954 4.31712 20.558 4.87956 21.1204C5.44199 21.6829 6.20459 21.9992 7 22H17C17.7954 21.9992 18.558 21.6829 19.1204 21.1204C19.6829 20.558 19.9992 19.7954 20 19V9C20 8.978 19.989 8.96 19.988 8.938ZM14 5.414L16.586 8H15C14.7349 7.99974 14.4807 7.89429 14.2932 7.70681C14.1057 7.51934 14.0003 7.26514 14 7V5.414ZM18 19C17.9997 19.2651 17.8943 19.5193 17.7068 19.7068C17.5193 19.8943 17.2651 19.9997 17 20H7C6.73486 19.9997 6.48066 19.8943 6.29319 19.7068C6.10571 19.5193 6.00026 19.2651 6 19V5C6.00026 4.73486 6.10571 4.48066 6.29319 4.29319C6.48066 4.10571 6.73486 4.00026 7 4H12V7C12.0008 7.79541 12.3171 8.55801 12.8796 9.12044C13.442 9.68288 14.2046 9.99921 15 10H18V19Z" fill="#1E6599"/>
</svg>
