<svg width="68" height="24" viewBox="0 0 68 24" fill="none" xmlns="http://www.w3.org/2000/svg">
<path d="M6 7.5C3.5 7.5 1.5 9.5 1.5 12C1.5 14.5 3.5 16.5 6 16.5C8.5 16.5 10.5 14.5 10.5 12C10.5 9.5 8.5 7.5 6 7.5Z" fill="white"/>
<path d="M67.0607 13.0607C67.6464 12.4749 67.6464 11.5251 67.0607 10.9393L57.5147 1.3934C56.9289 0.807612 55.9792 0.807612 55.3934 1.3934C54.8076 1.97918 54.8076 2.92893 55.3934 3.51472L63.8787 12L55.3934 20.4853C54.8076 21.0711 54.8076 22.0208 55.3934 22.6066C55.9792 23.1924 56.9289 23.1924 57.5147 22.6066L67.0607 13.0607ZM3 12C3 10.3284 4.32843 9 6 9V6C2.67157 6 0 8.67157 0 12H3ZM6 9C7.67157 9 9 10.3284 9 12H12C12 8.67157 9.32843 6 6 6V9ZM9 12C9 13.6716 7.67157 15 6 15V18C9.32843 18 12 15.3284 12 12H9ZM6 15C4.32843 15 3 13.6716 3 12H0C0 15.3284 2.67157 18 6 18V15ZM10.5 13.5H66V10.5H10.5V13.5Z" fill="black"/>
</svg>
