<svg width="35" height="35" viewBox="0 0 35 35" fill="none" xmlns="http://www.w3.org/2000/svg">
<circle cx="17.5" cy="17.5" r="17.5" fill="#BDE0FF"/>
<path d="M9.5 18.875C10.5355 18.875 11.375 18.0355 11.375 17C11.375 15.9645 10.5355 15.125 9.5 15.125C8.46447 15.125 7.625 15.9645 7.625 17C7.625 18.0355 8.46447 18.875 9.5 18.875Z" fill="#539BE0"/>
<path d="M17 18.875C18.0355 18.875 18.875 18.0355 18.875 17C18.875 15.9645 18.0355 15.125 17 15.125C15.9645 15.125 15.125 15.9645 15.125 17C15.125 18.0355 15.9645 18.875 17 18.875Z" fill="#539BE0"/>
<path d="M24.5 18.875C25.5355 18.875 26.375 18.0355 26.375 17C26.375 15.9645 25.5355 15.125 24.5 15.125C23.4645 15.125 22.625 15.9645 22.625 17C22.625 18.0355 23.4645 18.875 24.5 18.875Z" fill="#539BE0"/>
</svg>
