<svg width="15" height="15" viewBox="0 0 15 15" fill="none" xmlns="http://www.w3.org/2000/svg">
<path d="M9.83203 0C9.71153 0 9.60891 0.0856016 9.58691 0.204102L9.47656 0.791992C9.44806 0.944492 9.3273 1.05834 9.1748 1.08984C9.0328 1.11934 8.89284 1.1562 8.75684 1.2002C8.60934 1.2482 8.44866 1.21027 8.34766 1.09277L7.95996 0.639648C7.88146 0.548148 7.74903 0.526414 7.64453 0.586914L7.35547 0.753906C7.25147 0.813906 7.20414 0.940211 7.24414 1.05371L7.44238 1.61719C7.49388 1.76319 7.44655 1.92189 7.33105 2.02539C7.22355 2.12189 7.12189 2.22355 7.02539 2.33105C6.92189 2.44655 6.76319 2.49486 6.61719 2.44336L6.05273 2.24414C5.93923 2.20414 5.81391 2.25097 5.75391 2.35547L5.58594 2.64551C5.52594 2.74951 5.54865 2.88244 5.63965 2.96094L5.68848 3.00293C6.27998 3.01293 6.78601 3.43603 6.89551 4.01953L6.92578 4.17871L7.03027 4.05566C7.25977 3.78866 7.58109 3.64348 7.91309 3.62598C8.36109 2.94848 9.1275 2.5 10 2.5C11.3805 2.5 12.5 3.6195 12.5 5C12.5 5.8725 12.0515 6.63894 11.374 7.08594C11.3565 7.41794 11.2113 7.73975 10.9443 7.96875L10.8213 8.07324L10.9805 8.10352C11.564 8.21302 11.9871 8.71905 11.9971 9.31055L12.0391 9.35938C12.1176 9.45088 12.25 9.47359 12.3545 9.41309L12.6445 9.24512C12.7485 9.18512 12.7959 9.05979 12.7559 8.94629L12.5566 8.38184C12.5051 8.23584 12.5534 8.07713 12.6689 7.97363C12.7764 7.87713 12.8781 7.77547 12.9746 7.66797C13.0781 7.55247 13.2368 7.50514 13.3828 7.55664L13.9463 7.75488C14.0598 7.79488 14.1861 7.74805 14.2461 7.64355L14.4131 7.35352C14.4731 7.24952 14.4514 7.11756 14.3604 7.03906L13.9072 6.65039C13.7897 6.54939 13.7518 6.38871 13.7998 6.24121C13.8438 6.10521 13.8807 5.96622 13.9102 5.82422C13.9417 5.67222 14.0555 5.55146 14.208 5.52246L14.7959 5.41113C14.9144 5.39063 15 5.28847 15 5.16797V4.83203C15 4.71153 14.9144 4.60891 14.7959 4.58691L14.208 4.47656C14.0555 4.44806 13.9417 4.3273 13.9102 4.1748C13.8807 4.0328 13.8438 3.89284 13.7998 3.75684C13.7518 3.60934 13.7897 3.44866 13.9072 3.34766L14.3604 2.95996C14.4519 2.88146 14.4736 2.74903 14.4131 2.64453L14.2461 2.35547C14.1861 2.25147 14.0598 2.20414 13.9463 2.24414L13.3828 2.44238C13.2368 2.49388 13.0781 2.44655 12.9746 2.33105C12.8781 2.22355 12.7764 2.12189 12.6689 2.02539C12.5534 1.92189 12.5051 1.76319 12.5566 1.61719L12.7559 1.05273C12.7959 0.939234 12.749 0.813906 12.6445 0.753906L12.3545 0.585938C12.2505 0.525937 12.1176 0.548648 12.0391 0.639648L11.6514 1.09277C11.5504 1.21027 11.3897 1.2482 11.2422 1.2002C11.1062 1.1562 10.9662 1.11934 10.8242 1.08984C10.6722 1.05834 10.5515 0.943516 10.5225 0.791016L10.4121 0.203125C10.3911 0.085125 10.2885 0 10.168 0H9.83203ZM5.33203 4C5.21153 4 5.10891 4.08512 5.08691 4.20312L4.99414 4.69727C4.95564 4.90277 4.79191 5.0542 4.58691 5.0957C4.41641 5.1302 4.24894 5.17404 4.08594 5.22754C3.88794 5.29254 3.67066 5.24394 3.53516 5.08594L3.20996 4.70605C3.13146 4.61505 2.99853 4.59332 2.89453 4.65332L2.60547 4.82031C2.50097 4.88031 2.45414 5.00662 2.49414 5.12012L2.66211 5.5957C2.73111 5.7927 2.66527 6.00455 2.50977 6.14355C2.38127 6.25855 2.25903 6.38029 2.14453 6.50879C2.00553 6.66429 1.79368 6.73013 1.59668 6.66113L1.12012 6.49414C1.00662 6.45414 0.881289 6.50147 0.821289 6.60547L0.65332 6.89453C0.59282 6.99903 0.615531 7.13146 0.707031 7.20996L1.08691 7.53516C1.24491 7.67066 1.29352 7.88794 1.22852 8.08594C1.17502 8.24894 1.13118 8.41641 1.09668 8.58691C1.05518 8.79191 0.903742 8.95564 0.698242 8.99414L0.204102 9.08691C0.0856016 9.10891 0 9.21153 0 9.33203V9.66797C0 9.78847 0.085125 9.89109 0.203125 9.91309L0.697266 10.0059C0.902766 10.0444 1.0542 10.2081 1.0957 10.4131C1.1302 10.5841 1.17404 10.7511 1.22754 10.9141C1.29254 11.1121 1.24394 11.3293 1.08594 11.4648L0.706055 11.79C0.615055 11.8685 0.59332 12.0015 0.65332 12.1055L0.820312 12.3945C0.880313 12.499 1.00662 12.5459 1.12012 12.5059L1.5957 12.3379C1.7927 12.2689 2.00455 12.3347 2.14355 12.4902C2.25855 12.6187 2.38029 12.741 2.50879 12.8555C2.66429 12.9945 2.73013 13.2063 2.66113 13.4033L2.49414 13.8799C2.45414 13.9934 2.50147 14.1187 2.60547 14.1787L2.89453 14.3467C2.99903 14.4072 3.13146 14.3845 3.20996 14.293L3.53516 13.9131C3.67066 13.7551 3.88794 13.7065 4.08594 13.7715C4.24894 13.825 4.41641 13.8688 4.58691 13.9033C4.79191 13.9448 4.95564 14.0963 4.99414 14.3018L5.08691 14.7959C5.10891 14.9144 5.21153 15 5.33203 15H5.66797C5.78847 15 5.89111 14.9144 5.91211 14.7969L6.00488 14.3027C6.04338 14.0972 6.20711 13.9458 6.41211 13.9043C6.58311 13.8698 6.75009 13.826 6.91309 13.7725C7.11109 13.7075 7.32837 13.7561 7.46387 13.9141L7.78906 14.2939C7.86756 14.3849 7.99952 14.4077 8.10352 14.3477L8.39355 14.1797C8.49805 14.1197 8.54488 13.9944 8.50488 13.8809L8.33789 13.4043C8.26889 13.2073 8.33473 12.9954 8.49023 12.8564C8.61873 12.7414 8.74097 12.6197 8.85547 12.4912C8.99447 12.3357 9.20682 12.2699 9.40332 12.3389L9.87988 12.5059C9.99338 12.5459 10.1187 12.4985 10.1787 12.3945L10.3467 12.1055C10.4072 12.001 10.3845 11.8685 10.293 11.79L9.91309 11.4648C9.75509 11.3293 9.70648 11.1121 9.77148 10.9141C9.82498 10.7511 9.86882 10.5836 9.90332 10.4131C9.94482 10.2081 10.0963 10.0444 10.3018 10.0059L10.7959 9.91309C10.9144 9.89109 11 9.78847 11 9.66797V9.33203C11 9.21153 10.9144 9.10939 10.7969 9.08789L10.3027 8.99512C10.0972 8.95662 9.9458 8.79191 9.9043 8.58691C9.8698 8.41641 9.82596 8.24894 9.77246 8.08594C9.70746 7.88794 9.75606 7.67163 9.91406 7.53613L10.2939 7.21094C10.3849 7.13244 10.4077 6.99951 10.3477 6.89551L10.1797 6.60547C10.1197 6.50097 9.99436 6.45414 9.88086 6.49414L9.4043 6.66211C9.2073 6.73111 8.99545 6.66527 8.85645 6.50977C8.74145 6.38127 8.61971 6.25903 8.49121 6.14453C8.33571 6.00553 8.26987 5.79368 8.33887 5.59668L8.50586 5.12012C8.54586 5.00662 8.49853 4.88129 8.39453 4.82129L8.10547 4.65332C8.00097 4.59282 7.86854 4.61553 7.79004 4.70703L7.46484 5.08691C7.32934 5.24491 7.11206 5.29352 6.91406 5.22852C6.75106 5.17502 6.58359 5.13118 6.41309 5.09668C6.20809 5.05518 6.04436 4.90374 6.00586 4.69824L5.91309 4.2041C5.89109 4.0856 5.78847 4 5.66797 4H5.33203ZM10 4.5C9.86739 4.5 9.74021 4.55268 9.64645 4.64645C9.55268 4.74021 9.5 4.86739 9.5 5C9.5 5.13261 9.55268 5.25979 9.64645 5.35355C9.74021 5.44732 9.86739 5.5 10 5.5C10.1326 5.5 10.2598 5.44732 10.3536 5.35355C10.4473 5.25979 10.5 5.13261 10.5 5C10.5 4.86739 10.4473 4.74021 10.3536 4.64645C10.2598 4.55268 10.1326 4.5 10 4.5ZM5.5 6.5C7.157 6.5 8.5 7.843 8.5 9.5C8.5 11.157 7.157 12.5 5.5 12.5C3.843 12.5 2.5 11.157 2.5 9.5C2.5 7.843 3.843 6.5 5.5 6.5ZM5.5 8.5C4.9475 8.5 4.5 8.9475 4.5 9.5C4.5 10.0525 4.9475 10.5 5.5 10.5C6.0525 10.5 6.5 10.0525 6.5 9.5C6.5 8.9475 6.0525 8.5 5.5 8.5Z" fill="#1E6599"/>
</svg>
