<svg width="15" height="15" viewBox="0 0 15 15" fill="none" xmlns="http://www.w3.org/2000/svg">
<path d="M7.5 1.5C4.1865 1.5 1.5 4.1865 1.5 7.5C1.5 10.8135 4.1865 13.5 7.5 13.5C10.8135 13.5 13.5 10.8135 13.5 7.5C13.5 4.1865 10.8135 1.5 7.5 1.5ZM8.207 7.5C8.207 7.5 9.7765 9.0695 9.8535 9.1465C10.049 9.342 10.049 9.6585 9.8535 9.8535C9.658 10.049 9.3415 10.049 9.1465 9.8535C9.0695 9.777 7.5 8.207 7.5 8.207C7.5 8.207 5.9305 9.7765 5.8535 9.8535C5.658 10.049 5.3415 10.049 5.1465 9.8535C4.951 9.658 4.951 9.3415 5.1465 9.1465C5.223 9.0695 6.793 7.5 6.793 7.5C6.793 7.5 5.2235 5.9305 5.1465 5.8535C4.951 5.658 4.951 5.3415 5.1465 5.1465C5.342 4.951 5.6585 4.951 5.8535 5.1465C5.9305 5.223 7.5 6.793 7.5 6.793C7.5 6.793 9.0695 5.2235 9.1465 5.1465C9.342 4.951 9.6585 4.951 9.8535 5.1465C10.049 5.342 10.049 5.6585 9.8535 5.8535C9.777 5.9305 8.207 7.5 8.207 7.5Z" fill="#1E6599"/>
</svg>
