<svg width="184" height="175" viewBox="0 0 184 175" fill="none" xmlns="http://www.w3.org/2000/svg">
<g clip-path="url(#clip0)">
<path d="M183.892 41.5865H183.008V15.2454C183.008 11.2021 181.529 7.32436 178.896 4.46528C176.263 1.60621 172.693 1.98869e-09 168.97 1.98868e-09H117.58C115.737 -3.23339e-05 113.911 0.39427 112.208 1.1604C110.505 1.92652 108.957 3.04946 107.654 4.46511C106.35 5.88075 105.316 7.56138 104.611 9.41103C103.905 11.2607 103.542 13.2431 103.542 15.2452V159.755C103.542 163.798 105.021 167.676 107.654 170.535C110.286 173.394 113.857 175 117.58 175H168.969C172.692 175 176.263 173.394 178.895 170.535C181.528 167.676 183.007 163.798 183.007 159.755V60.3366H183.891L183.892 41.5865Z" fill="#3F3D56"/>
<path d="M180.145 14.2244V160.775C180.144 163.841 179.023 166.781 177.027 168.949C175.031 171.117 172.324 172.335 169.501 172.336H117.058C114.234 172.337 111.525 171.119 109.528 168.951C107.531 166.783 106.408 163.842 106.407 160.775V14.2244C106.408 11.1577 107.531 8.21695 109.528 6.04893C111.525 3.88091 114.234 2.66318 117.057 2.66357H123.419C123.107 3.4978 122.988 4.40259 123.073 5.29841C123.158 6.19423 123.444 7.05365 123.907 7.80113C124.369 8.54862 124.994 9.16128 125.725 9.58527C126.457 10.0093 127.273 10.2316 128.102 10.2327H158.001C158.831 10.2316 159.647 10.0093 160.378 9.58527C161.11 9.16128 161.735 8.54862 162.197 7.80113C162.66 7.05365 162.946 6.19423 163.031 5.29841C163.116 4.40259 162.997 3.4978 162.685 2.66357H169.499C172.322 2.6641 175.029 3.88197 177.025 6.04945C179.022 8.21694 180.144 11.1566 180.145 14.2222V14.2244Z" fill="white"/>
<path d="M143.839 72.8539C137.868 72.8563 132.141 70.2829 127.917 65.6996C123.693 61.1164 121.318 54.8988 121.316 48.4144V48.3928C121.316 48.3415 121.316 48.2876 121.318 48.2364C121.386 34.8414 131.49 23.9333 143.839 23.9333C149.812 23.933 155.541 26.5097 159.765 31.0965C163.989 35.6834 166.363 41.9047 166.363 48.3919C166.363 54.8791 163.991 61.1007 159.767 65.6881C155.543 70.2754 149.815 72.8528 143.841 72.8532H143.839V72.8539ZM143.839 24.448C138.018 24.4621 132.437 26.9703 128.309 31.4277C124.181 35.885 121.839 41.9313 121.793 48.2529C121.79 48.3076 121.79 48.3514 121.79 48.393C121.79 53.1295 123.082 57.7597 125.505 61.6983C127.928 65.6368 131.371 68.7068 135.401 70.5199C139.43 72.333 143.864 72.8078 148.141 71.8844C152.419 70.9609 156.348 68.6806 159.433 65.3318C162.517 61.9831 164.618 57.7162 165.469 53.0709C166.321 48.4255 165.885 43.6103 164.216 39.2342C162.547 34.858 159.721 31.1175 156.095 28.4856C152.469 25.8537 148.206 24.4486 143.845 24.448H143.839Z" fill="#E6E6E6"/>
<path d="M167.129 98.5705H120.527C120.298 98.5703 120.079 98.4714 119.917 98.2957C119.755 98.12 119.664 97.8818 119.664 97.6334V85.0795C119.664 84.831 119.755 84.5929 119.917 84.4172C120.079 84.2415 120.298 84.1427 120.527 84.1423H167.129C167.358 84.1427 167.577 84.2415 167.739 84.4172C167.9 84.5929 167.992 84.831 167.992 85.0795V97.6336C167.992 97.8821 167.9 98.1202 167.739 98.2959C167.577 98.4716 167.358 98.5704 167.129 98.5708V98.5705ZM120.527 84.5171C120.389 84.5172 120.258 84.5765 120.161 84.682C120.064 84.7874 120.009 84.9304 120.009 85.0795V97.6336C120.009 97.7827 120.064 97.9257 120.161 98.0311C120.258 98.1366 120.389 98.1959 120.527 98.196H167.129C167.266 98.1959 167.398 98.1366 167.495 98.0311C167.592 97.9257 167.647 97.7827 167.647 97.6336V85.0795C167.647 84.9304 167.592 84.7874 167.495 84.682C167.398 84.5765 167.266 84.5172 167.129 84.5171H120.527Z" fill="#E6E6E6"/>
<path d="M134.939 88.7322C134.779 88.7322 134.625 88.8013 134.512 88.9243C134.398 89.0474 134.335 89.2142 134.335 89.3883C134.335 89.5623 134.398 89.7291 134.512 89.8522C134.625 89.9752 134.779 90.0443 134.939 90.0443H163.418C163.497 90.0476 163.576 90.0339 163.651 90.004C163.725 89.9741 163.793 89.9286 163.851 89.87C163.91 89.8115 163.957 89.7411 163.99 89.6628C164.023 89.5845 164.042 89.4999 164.045 89.4137C164.048 89.3276 164.035 89.2417 164.008 89.1609C163.98 89.0801 163.938 89.0059 163.884 88.9427C163.83 88.8795 163.765 88.8284 163.693 88.7924C163.621 88.7564 163.543 88.7362 163.464 88.7329C163.455 88.7325 163.446 88.7324 163.437 88.7324H134.939V88.7322Z" fill="#E6E6E6"/>
<path d="M134.939 92.6687C134.779 92.6687 134.625 92.7378 134.512 92.8609C134.398 92.9839 134.335 93.1508 134.335 93.3248C134.335 93.4988 134.398 93.6657 134.512 93.7887C134.625 93.9118 134.779 93.9809 134.939 93.9809H163.418C163.497 93.9842 163.576 93.9705 163.651 93.9406C163.725 93.9107 163.793 93.8652 163.851 93.8066C163.91 93.748 163.957 93.6776 163.99 93.5993C164.023 93.521 164.042 93.4364 164.045 93.3503C164.048 93.2642 164.035 93.1782 164.008 93.0974C163.98 93.0166 163.938 92.9425 163.884 92.8792C163.83 92.816 163.765 92.7649 163.693 92.7289C163.621 92.6929 163.543 92.6727 163.464 92.6694C163.455 92.669 163.446 92.6689 163.437 92.6689H134.939V92.6687Z" fill="#E6E6E6"/>
<path d="M167.129 119.564H120.527C120.298 119.564 120.079 119.465 119.917 119.289C119.755 119.114 119.664 118.875 119.664 118.627V106.073C119.664 105.825 119.755 105.587 119.917 105.411C120.079 105.235 120.298 105.136 120.527 105.136H167.129C167.358 105.136 167.577 105.235 167.739 105.411C167.9 105.587 167.992 105.825 167.992 106.073V118.627C167.991 118.876 167.9 119.114 167.739 119.289C167.577 119.465 167.358 119.564 167.129 119.564ZM120.527 105.511C120.389 105.511 120.258 105.57 120.161 105.676C120.064 105.781 120.009 105.924 120.009 106.073V118.627C120.009 118.776 120.064 118.919 120.161 119.025C120.258 119.13 120.389 119.19 120.527 119.19H167.129C167.266 119.19 167.398 119.13 167.495 119.025C167.592 118.919 167.647 118.776 167.647 118.627V106.073C167.647 105.924 167.592 105.781 167.495 105.676C167.398 105.57 167.266 105.511 167.129 105.511H120.527Z" fill="#E6E6E6"/>
<path d="M134.939 109.725C134.779 109.725 134.625 109.794 134.512 109.917C134.398 110.04 134.335 110.207 134.335 110.381C134.335 110.555 134.398 110.722 134.512 110.845C134.625 110.968 134.779 111.037 134.939 111.037H163.418C163.576 111.036 163.727 110.968 163.839 110.848C163.952 110.727 164.016 110.563 164.018 110.392C164.021 110.22 163.962 110.054 163.853 109.93C163.744 109.805 163.595 109.732 163.437 109.725H134.939V109.725Z" fill="#E6E6E6"/>
<path d="M134.939 113.662C134.779 113.662 134.625 113.731 134.512 113.855C134.398 113.978 134.335 114.144 134.335 114.318C134.335 114.492 134.398 114.659 134.512 114.782C134.625 114.905 134.779 114.975 134.939 114.975H163.418C163.576 114.974 163.727 114.905 163.839 114.785C163.952 114.664 164.016 114.501 164.018 114.329C164.021 114.158 163.962 113.992 163.853 113.867C163.744 113.743 163.595 113.669 163.437 113.663H134.939V113.662Z" fill="#E6E6E6"/>
<path d="M167.129 140.557H120.527C120.298 140.557 120.079 140.458 119.917 140.283C119.755 140.107 119.664 139.869 119.664 139.62V127.066C119.664 126.818 119.755 126.58 119.917 126.404C120.079 126.228 120.298 126.129 120.527 126.129H167.129C167.358 126.129 167.577 126.228 167.739 126.404C167.9 126.58 167.992 126.818 167.992 127.066V139.62C167.992 139.869 167.9 140.107 167.739 140.283C167.577 140.458 167.358 140.557 167.129 140.558V140.557ZM120.527 126.504C120.389 126.504 120.258 126.563 120.161 126.669C120.064 126.774 120.009 126.917 120.009 127.066V139.62C120.009 139.77 120.064 139.913 120.161 140.018C120.258 140.123 120.389 140.183 120.527 140.183H167.129C167.266 140.183 167.398 140.123 167.495 140.018C167.592 139.913 167.647 139.77 167.647 139.62V127.066C167.647 126.917 167.592 126.774 167.495 126.669C167.398 126.563 167.266 126.504 167.129 126.504H120.527Z" fill="#E6E6E6"/>
<path d="M134.939 130.719C134.779 130.719 134.625 130.788 134.512 130.911C134.398 131.034 134.335 131.201 134.335 131.375C134.335 131.549 134.398 131.716 134.512 131.839C134.625 131.962 134.779 132.031 134.939 132.031H163.418C163.497 132.034 163.576 132.021 163.651 131.991C163.725 131.961 163.793 131.915 163.851 131.857C163.91 131.798 163.957 131.728 163.99 131.65C164.023 131.571 164.042 131.487 164.045 131.401C164.048 131.314 164.035 131.229 164.008 131.148C163.98 131.067 163.938 130.993 163.884 130.93C163.83 130.866 163.765 130.815 163.693 130.779C163.621 130.743 163.543 130.723 163.464 130.72C163.455 130.719 163.446 130.719 163.437 130.719H134.939V130.719Z" fill="#E6E6E6"/>
<path d="M134.939 134.656C134.779 134.656 134.625 134.725 134.512 134.848C134.398 134.971 134.335 135.138 134.335 135.312C134.335 135.486 134.398 135.652 134.512 135.776C134.625 135.899 134.779 135.968 134.939 135.968H163.418C163.497 135.971 163.576 135.957 163.651 135.927C163.725 135.897 163.793 135.852 163.851 135.793C163.91 135.735 163.957 135.664 163.99 135.586C164.023 135.508 164.042 135.423 164.045 135.337C164.048 135.251 164.035 135.165 164.008 135.084C163.98 135.003 163.938 134.929 163.884 134.866C163.83 134.803 163.765 134.752 163.693 134.716C163.621 134.68 163.543 134.66 163.464 134.656C163.455 134.656 163.446 134.656 163.437 134.656H134.939V134.656Z" fill="#E6E6E6"/>
<path d="M150.955 47.7991H144.387V40.6655H143.292V47.7991H136.724V48.9879H143.292V56.1215H144.387V48.9879H150.955V47.7991Z" fill="#6C63FF"/>
<path d="M50.0857 137.504C50.0857 137.504 44.7149 143.892 43.9476 158.613C43.1803 173.333 42.9246 175 42.9246 175H62.1062L65.685 165.002L69.778 174.999H87.9364C87.9364 174.999 89.9824 144.447 87.9364 143.614C85.8903 142.78 50.0857 137.504 50.0857 137.504Z" fill="#2F2E41"/>
<path d="M75.7883 62.3737C80.8731 62.3737 84.9952 57.8971 84.9952 52.3749C84.9952 46.8528 80.8731 42.3762 75.7883 42.3762C70.7034 42.3762 66.5813 46.8528 66.5813 52.3749C66.5813 57.8971 70.7034 62.3737 75.7883 62.3737Z" fill="#FFB8B8"/>
<path d="M115.558 137.783L101.492 110.008L93.3066 95.5653L103.026 90.8433L108.397 102.231C108.397 102.231 115.558 113.618 117.348 123.062C119.138 132.506 120.929 136.95 120.929 136.95L115.558 137.783Z" fill="#FFB8B8"/>
<path d="M38.0636 129.727L59.0353 109.73L58.0134 93.6201H52.131L50.3398 101.953L33.4602 126.117L38.0636 129.727Z" fill="#FFB8B8"/>
<path d="M65.1743 67.2348C65.1743 67.2348 72.7698 70.6929 78.4346 66.4641C78.4346 66.4641 92.2839 68.9018 93.0511 69.7346C93.8184 70.5673 92.2839 95.5643 92.2839 95.5643L89.2153 109.73C89.2153 109.73 93.5631 131.394 87.1692 136.949L88.448 144.448C88.448 144.448 60.0596 146.67 48.8064 139.171L50.852 131.671L56.2228 108.063L52.898 75.2896C52.898 75.2896 55.4547 67.7903 65.1743 67.2348Z" fill="#E4E4E4"/>
<path d="M86.5297 70.984L93.1793 69.874C93.1793 69.874 96.5041 70.4295 99.5732 77.3733C102.642 84.317 105.967 93.4825 105.967 93.4825L94.4583 99.0375L84.9956 82.9282L86.5297 70.984Z" fill="#E4E4E4"/>
<path d="M54.4331 73.9006L52.8986 75.2894C52.8986 75.2894 50.8525 83.3441 50.8525 88.8988V96.3981L60.0597 97.5091L54.4331 73.9006Z" fill="#E4E4E4"/>
<path d="M66.5837 55.0886C66.5837 55.0886 65.3321 53.6208 65.4589 51.7834C65.5424 50.7382 65.4809 49.6853 65.2764 48.66C65.2764 48.66 65.6682 45.6527 66.2466 43.9094C66.825 42.1661 66.3373 41.5596 68.8236 40.6079C71.31 39.6563 69.7271 36.2149 77.0572 38.9582C77.336 39.2639 77.6919 39.4731 78.0801 39.5593C78.4682 39.6456 78.8712 39.605 79.2382 39.4428C80.5915 38.9045 81.4071 40.9236 81.4071 40.9236C81.4071 40.9236 82.2512 40.1714 82.7249 40.9534C83.1985 41.7354 85.4894 39.9532 86.3299 45.6419C87.1704 51.3306 84.2862 56.4037 84.2862 56.4037C84.2862 56.4037 83.8814 47.3005 79.1209 47.1353C74.3605 46.9701 68.9769 45.012 68.3092 48.8454C67.6414 52.6787 66.5837 55.0886 66.5837 55.0886Z" fill="#2F2E41"/>
<path d="M34.7088 133.981C36.9002 133.981 38.6766 132.052 38.6766 129.672C38.6766 127.293 36.9002 125.363 34.7088 125.363C32.5174 125.363 30.741 127.293 30.741 129.672C30.741 132.052 32.5174 133.981 34.7088 133.981Z" fill="#FFB8B8"/>
<path d="M6.10417 158.776L71.4524 144.61L65.9913 114.899L0.643066 129.065L6.10417 158.776Z" fill="white"/>
<path d="M71.9872 144.998L5.74747 159.358L0.108154 128.678L66.3479 114.318L71.9872 144.998ZM6.46122 158.196L70.9179 144.223L65.6344 115.48L1.17788 129.453L6.46122 158.196Z" fill="#E4E4E4"/>
<path d="M27.411 149.332L27.3842 149.345C27.1711 149.44 26.9551 149.53 26.7333 149.609C26.6587 149.637 26.5814 149.662 26.5065 149.687C26.4316 149.711 26.3541 149.737 26.2766 149.76C26.1503 149.8 26.0211 149.834 25.8912 149.867C25.8356 149.882 25.777 149.896 25.7209 149.909L25.6872 149.917C25.6176 149.933 25.548 149.949 25.4779 149.962L25.2966 149.997C25.2629 150.005 25.2296 150.01 25.1968 150.015C23.7557 150.26 22.282 150.148 20.8867 149.686C19.4914 149.224 18.2107 148.424 17.1409 147.347C16.0712 146.27 15.2402 144.944 14.7105 143.468C14.1807 141.992 13.9661 140.404 14.0826 138.825C14.1991 137.246 14.6438 135.716 15.3833 134.351C16.1227 132.985 17.1376 131.819 18.3516 130.941C19.5657 130.063 20.9473 129.495 22.3926 129.28C23.8378 129.065 25.3091 129.209 26.6958 129.701C25.4408 130.932 24.5058 132.5 23.9846 134.247C23.4634 135.994 23.3742 137.86 23.726 139.656C24.0778 141.453 24.8583 143.117 25.9892 144.483C27.1201 145.849 28.5616 146.868 30.1694 147.438C29.3564 148.236 28.4237 148.877 27.4116 149.333L27.411 149.332Z" fill="#6C63FF"/>
<path d="M41.206 144.003C41.6277 144.233 42.0647 144.428 42.5133 144.586C41.2574 145.822 39.7226 146.675 38.0649 147.057L37.9436 147.085C36.4964 147.401 35.0018 147.352 33.5749 146.941C32.1479 146.531 30.8267 145.771 29.7128 144.719C28.5989 143.667 27.7221 142.352 27.1498 140.874C26.5775 139.396 26.325 137.796 26.4117 136.196C26.4984 134.595 26.922 133.038 27.6499 131.643C28.3778 130.249 29.3905 129.054 30.6103 128.152C31.8301 127.249 33.2243 126.662 34.6857 126.436C36.147 126.21 37.6366 126.352 39.0398 126.849C37.8699 127.991 36.9754 129.427 36.4342 131.03C35.8931 132.634 35.7219 134.358 35.9356 136.05C36.1493 137.742 36.7414 139.352 37.6601 140.738C38.5789 142.125 39.7963 143.246 41.206 144.003L41.206 144.003Z" fill="#6C63FF"/>
<path d="M57.8371 131.778C58.2341 133.805 58.0687 135.915 57.3617 137.84C56.6547 139.765 55.438 141.419 53.8653 142.593C52.2927 143.768 50.4347 144.409 48.5264 144.436C46.6182 144.464 44.7453 143.876 43.1446 142.747C41.5439 141.619 40.2874 140 39.5338 138.096C38.7803 136.192 38.5636 134.088 38.9111 132.05C39.2587 130.012 40.1549 128.132 41.4864 126.647C42.818 125.162 44.525 124.139 46.3917 123.708C47.6311 123.422 48.9104 123.404 50.1563 123.654C51.4023 123.905 52.5906 124.42 53.6534 125.169C54.7162 125.918 55.6327 126.888 56.3506 128.022C57.0684 129.156 57.5735 130.432 57.8371 131.778Z" fill="#6C63FF"/>
<path d="M53.7965 141.129C53.8877 141.593 53.9354 142.066 53.9389 142.54C52.8763 143.348 51.675 143.915 50.4064 144.208C49.1379 144.501 47.828 144.514 46.5547 144.246C46.3802 143.811 46.2466 143.358 46.1561 142.894C45.6839 140.483 46.4157 138.184 47.8391 137.144C47.1617 137.003 46.55 136.613 46.1077 136.038C45.6654 135.464 45.4198 134.741 45.4125 133.992C45.4053 133.243 45.6369 132.515 46.068 131.93C46.4991 131.346 47.1032 130.941 47.7777 130.785C48.4522 130.63 49.1555 130.732 49.7683 131.075C50.3812 131.419 50.8657 131.982 51.1397 132.669C51.4137 133.356 51.4603 134.125 51.2715 134.846C51.0828 135.566 50.6704 136.193 50.1042 136.621C51.7948 136.941 53.3244 138.718 53.7965 141.129Z" fill="white"/>
<path d="M41.2062 144.004L41.2124 144.036C41.2936 144.618 41.3303 145.207 41.3223 145.796C40.3228 146.557 39.2056 146.777 37.9439 147.086L37.8226 147.114C36.5542 147.409 35.2439 147.422 33.9709 147.152C33.9536 147.112 33.9386 147.071 33.9258 147.03C33.772 146.633 33.6537 146.221 33.5724 145.8C33.1002 143.389 33.8321 141.09 35.2554 140.05C34.578 139.91 33.9662 139.519 33.5238 138.945C33.0814 138.37 32.8358 137.647 32.8285 136.899C32.8213 136.15 33.053 135.421 33.4841 134.837C33.9153 134.252 34.5195 133.848 35.194 133.692C35.4226 133.639 35.6563 133.616 35.89 133.624C35.7033 135.735 36.1116 137.858 37.0611 139.712C38.0105 141.566 39.4562 143.063 41.2065 144.004L41.2062 144.004Z" fill="white"/>
<path d="M29.1008 146.981C29.1774 147.398 29.2173 147.823 29.22 148.249C28.4563 148.831 27.6187 149.289 26.7335 149.609C26.6589 149.636 26.5817 149.662 26.5068 149.686C26.4318 149.711 26.3544 149.737 26.2769 149.76C26.1506 149.799 26.0214 149.834 25.8915 149.867C25.8649 149.875 25.8359 149.882 25.8088 149.888L25.6875 149.916C25.6179 149.932 25.5483 149.948 25.4782 149.962L25.2969 149.996C25.2632 150.004 25.2299 150.009 25.1971 150.014C24.0822 150.21 22.9442 150.19 21.8359 149.954C21.8329 149.949 21.831 149.943 21.8303 149.938C21.8149 149.903 21.8017 149.868 21.7908 149.832C21.637 149.435 21.5187 149.024 21.4374 148.602C20.9652 146.191 21.6971 143.892 23.1204 142.852C22.443 142.712 21.8312 142.322 21.3888 141.747C20.9464 141.173 20.7008 140.45 20.6935 139.701C20.6863 138.952 20.9179 138.223 21.3491 137.639C21.7803 137.054 22.3845 136.65 23.059 136.495C23.2209 136.457 23.3854 136.434 23.5508 136.427C23.3496 138.594 23.7762 140.776 24.7711 142.668C25.766 144.56 27.2796 146.067 29.1009 146.98L29.1008 146.981Z" fill="white"/>
<path d="M128.521 93.2396C128.521 93.4768 128.499 93.7134 128.455 93.9458C127.858 94.2208 127.216 94.3626 126.568 94.3626C125.919 94.3626 125.277 94.2208 124.68 93.9458C124.636 93.7134 124.614 93.4768 124.615 93.2396C124.615 92.007 125.192 90.9652 125.989 90.617C125.671 90.4719 125.409 90.2117 125.247 89.8807C125.086 89.5497 125.035 89.1683 125.103 88.8012C125.172 88.4341 125.355 88.104 125.622 87.8668C125.888 87.6296 126.223 87.5 126.567 87.5C126.912 87.5 127.247 87.6296 127.513 87.8668C127.78 88.104 127.963 88.4341 128.031 88.8012C128.1 89.1683 128.049 89.5497 127.887 89.8807C127.726 90.2117 127.464 90.4719 127.146 90.617C127.943 90.9652 128.521 92.007 128.521 93.2396Z" fill="#6C63FF"/>
<path d="M128.521 114.659C128.521 114.896 128.499 115.132 128.455 115.365C127.858 115.64 127.216 115.782 126.568 115.782C125.919 115.782 125.277 115.64 124.68 115.365C124.636 115.132 124.614 114.896 124.615 114.659C124.615 113.426 125.192 112.384 125.989 112.036C125.671 111.891 125.409 111.631 125.247 111.3C125.086 110.969 125.035 110.587 125.103 110.22C125.172 109.853 125.355 109.523 125.622 109.286C125.888 109.049 126.223 108.919 126.567 108.919C126.912 108.919 127.247 109.049 127.513 109.286C127.78 109.523 127.963 109.853 128.031 110.22C128.1 110.587 128.049 110.969 127.887 111.3C127.726 111.631 127.464 111.891 127.146 112.036C127.943 112.384 128.521 113.426 128.521 114.659Z" fill="#6C63FF"/>
<path d="M128.521 135.652C128.521 135.889 128.499 136.125 128.455 136.358C127.858 136.633 127.216 136.774 126.568 136.774C125.919 136.774 125.277 136.633 124.68 136.358C124.636 136.125 124.614 135.889 124.615 135.652C124.615 134.419 125.192 133.377 125.989 133.029C125.671 132.884 125.409 132.624 125.247 132.293C125.086 131.962 125.035 131.58 125.103 131.213C125.172 130.846 125.355 130.516 125.622 130.279C125.888 130.041 126.223 129.912 126.567 129.912C126.912 129.912 127.247 130.041 127.513 130.279C127.78 130.516 127.963 130.846 128.031 131.213C128.1 131.58 128.049 131.962 127.887 132.293C127.726 132.624 127.464 132.884 127.146 133.029C127.943 133.377 128.521 134.419 128.521 135.652Z" fill="#6C63FF"/>
<path d="M118.487 142.846C120.49 142.846 122.115 141.082 122.115 138.906C122.115 136.73 120.49 134.967 118.487 134.967C116.483 134.967 114.859 136.73 114.859 138.906C114.859 141.082 116.483 142.846 118.487 142.846Z" fill="#FFB8B8"/>
</g>
<defs>
<clipPath id="clip0">
<rect width="183.784" height="175" fill="white" transform="translate(0.108154)"/>
</clipPath>
</defs>
</svg>
