<svg width="327" height="240" viewBox="0 0 327 240" fill="none" xmlns="http://www.w3.org/2000/svg">
<g clip-path="url(#clip0)">
<path d="M250.359 237.286C246.172 232.943 243.63 226.083 244.296 219.405C244.963 212.726 249.094 206.586 254.452 205.168C259.809 203.75 265.917 207.676 267.544 214.101C268.44 201.714 269.472 188.807 274.837 178.258C279.694 168.706 288.108 161.872 297.226 160.649C306.345 159.426 315.945 164.044 321.632 172.88C327.319 181.715 328.711 194.559 324.728 204.703C321.794 212.175 316.389 217.737 310.725 222.261C292.424 236.757 270.473 242.652 248.913 238.861L250.359 237.286Z" fill="#F2F2F2"/>
<path d="M312.615 164.3C305.091 171.823 298.189 180.237 292.008 189.42C282.335 203.743 274.507 219.801 268.798 237.036C268.38 238.293 270.043 238.84 270.456 237.597C279.798 209.587 294.711 184.9 313.831 165.793C314.69 164.935 313.466 163.449 312.615 164.3Z" fill="white"/>
<path d="M105.267 236.106C111.017 230.141 114.509 220.719 113.593 211.546C112.678 202.373 107.004 193.94 99.6454 191.992C92.2864 190.044 83.8977 195.436 81.6625 204.261C80.4324 187.247 79.0149 169.52 71.6464 155.031C64.9744 141.912 53.4184 132.524 40.8942 130.845C28.3701 129.166 15.1838 135.508 7.37293 147.644C-0.437916 159.779 -2.35037 177.421 3.12015 191.353C7.15008 201.616 14.5746 209.255 22.3537 215.469C47.1717 235.293 77.9585 243.562 107.252 238.269" fill="#F2F2F2"/>
<path d="M19.7578 135.86C30.0918 146.193 39.5721 157.75 48.0617 170.363C56.5526 182.964 64.0279 196.545 70.3827 210.917C73.9347 218.98 77.1255 227.274 79.941 235.763C80.515 237.49 78.2308 238.242 77.6632 236.534C72.6763 221.567 66.5066 207.237 59.2425 193.748C52.0137 180.308 43.74 167.761 34.5376 156.282C29.3326 149.793 23.841 143.66 18.0875 137.911C16.9082 136.732 18.5883 134.691 19.7578 135.86L19.7578 135.86Z" fill="white"/>
<path d="M234.726 239.475H97.5362V66.6745C97.5362 29.91 121.9 0 151.848 0H180.414C210.362 0 234.726 29.91 234.726 66.6745V239.475Z" fill="#F2F2F2"/>
<path d="M206.16 239.474H97.5362V66.6742C97.5062 52.5869 101.14 38.8556 107.908 27.4796C108.158 27.0621 108.407 26.65 108.663 26.2424C111.937 20.9713 115.833 16.329 120.223 12.4689C120.471 12.2474 120.72 12.0298 120.972 11.8122C124.645 8.69182 128.618 6.14098 132.801 4.21774C133.05 4.10216 133.303 3.98635 133.556 3.87528C137.339 2.21791 141.26 1.08262 145.248 0.490367C145.495 0.448909 145.749 0.416468 146.003 0.384026C149.889 -0.126055 153.808 -0.126055 157.694 0.384026C157.947 0.416468 158.201 0.448905 158.451 0.490811C162.438 1.0831 166.359 2.21825 170.141 3.8753C170.394 3.98637 170.647 4.10217 170.896 4.21798C175.027 6.11696 178.954 8.62973 182.588 11.7002C182.84 11.9131 183.093 12.1308 183.342 12.3484C185.802 14.5045 188.113 16.9065 190.251 19.5299C191.966 21.6341 193.564 23.8771 195.034 26.2438C195.29 26.65 195.539 27.0621 195.788 27.4789C202.556 38.8551 206.19 52.5866 206.16 66.6742V239.474Z" fill="#CCCCCC"/>
<path d="M197.328 162.188C200.649 162.188 203.341 158.882 203.341 154.805C203.341 150.728 200.649 147.422 197.328 147.422C194.006 147.422 191.314 150.728 191.314 154.805C191.314 158.882 194.006 162.188 197.328 162.188Z" fill="#6C63FF"/>
<path d="M223.487 234.299H218.879L216.687 212.479L223.488 212.48L223.487 234.299Z" fill="#FFB8B8"/>
<path d="M215.588 232.683H224.474V239.552H209.992C209.992 238.65 210.137 237.756 210.418 236.923C210.699 236.09 211.111 235.332 211.631 234.695C212.151 234.057 212.767 233.551 213.446 233.205C214.125 232.86 214.853 232.683 215.588 232.683Z" fill="#2F2E41"/>
<path d="M246.415 234.299H241.807L239.614 212.479L246.416 212.48L246.415 234.299Z" fill="#FFB8B8"/>
<path d="M238.515 232.683H247.402V239.552H232.92C232.92 238.65 233.065 237.756 233.346 236.923C233.627 236.09 234.039 235.332 234.559 234.695C235.078 234.057 235.695 233.551 236.374 233.205C237.053 232.86 237.78 232.683 238.515 232.683Z" fill="#2F2E41"/>
<path d="M200.371 156.268C200.04 155.668 199.819 154.986 199.726 154.271C199.632 153.556 199.667 152.824 199.829 152.127C199.99 151.43 200.274 150.785 200.661 150.237C201.048 149.689 201.527 149.253 202.067 148.957L217.731 95.9561L225.439 101.12L207.553 151.77C207.898 152.914 207.888 154.174 207.526 155.31C207.164 156.447 206.475 157.381 205.59 157.935C204.704 158.489 203.684 158.626 202.722 158.319C201.761 158.011 200.924 157.281 200.371 156.268Z" fill="#FFB8B8"/>
<path d="M244.061 166.227C243.549 165.866 243.107 165.372 242.768 164.78C242.428 164.187 242.198 163.51 242.094 162.797C241.991 162.084 242.016 161.351 242.168 160.651C242.319 159.95 242.595 159.3 242.974 158.744L238.121 102.678L246.893 103.17L248.909 158.318C249.628 159.162 250.069 160.299 250.149 161.515C250.23 162.731 249.944 163.941 249.347 164.916C248.749 165.891 247.881 166.563 246.907 166.804C245.932 167.046 244.92 166.84 244.061 166.227Z" fill="#FFB8B8"/>
<path d="M230.067 86.1388C235.166 86.1388 239.299 81.0649 239.299 74.806C239.299 68.547 235.166 63.4731 230.067 63.4731C224.969 63.4731 220.836 68.547 220.836 74.806C220.836 81.0649 224.969 86.1388 230.067 86.1388Z" fill="#FFB8B8"/>
<path d="M244.002 153.476H216.171L216.204 153.21C216.254 152.812 221.164 113.326 217.543 100.407C217.179 99.1379 217.211 97.7482 217.633 96.5059C218.054 95.2636 218.834 94.2564 219.824 93.6783H219.824C225 90.6859 234.937 87.0011 243.323 95.9435C244.557 97.281 245.521 98.9527 246.138 100.826C246.755 102.7 247.008 104.724 246.878 106.739L244.002 153.476Z" fill="#6C63FF"/>
<path d="M221.516 119.161L208.986 116.04L214.859 98.9541C215.211 97.2992 216.083 95.883 217.283 95.0162C218.484 94.1493 219.916 93.9026 221.265 94.33C222.614 94.7575 223.77 95.8243 224.479 97.2965C225.188 98.7686 225.392 100.526 225.047 102.183L221.516 119.161Z" fill="#6C63FF"/>
<path d="M237.564 124.955L236.811 103.757C236.239 99.7722 238.097 96.0052 240.955 95.3894C243.814 94.776 246.605 97.5397 247.179 101.554L250.01 121.361L237.564 124.955Z" fill="#6C63FF"/>
<path d="M243.076 150.938C247.554 171.875 248.043 198.495 246.835 227.532L240.821 226.61L229.921 171.24L223.907 227.532L217.142 227.071C215.12 196.604 213.152 170.448 216.39 153.245L243.076 150.938Z" fill="#2F2E41"/>
<path d="M236.15 83.5641C234.428 85.8161 231.23 84.6072 231.005 81.5305C230.988 81.2917 230.989 81.0513 231.009 80.8127C231.125 79.4499 231.766 78.2126 231.613 76.7737C231.578 76.4155 231.469 76.0742 231.297 75.7821C229.924 73.5261 226.703 76.7912 225.408 74.7489C224.613 73.4966 225.547 71.5249 224.938 70.1253C224.133 68.2779 221.751 69.1892 220.257 68.1776C218.594 67.0519 218.694 63.9209 219.788 62.0164C221.123 59.6939 223.462 58.4545 225.773 58.2759C228.084 58.0973 230.378 58.8641 232.536 59.8961C234.987 61.0688 237.417 62.6893 238.926 65.3351C240.76 68.5526 240.936 72.8783 240.019 76.6406C239.461 78.9292 237.556 81.725 236.15 83.5641Z" fill="#2F2E41"/>
<path d="M315.717 239.772H38.2205C38.102 239.771 37.9886 239.713 37.9049 239.61C37.8213 239.507 37.7743 239.368 37.7743 239.222C37.7743 239.077 37.8213 238.937 37.9049 238.834C37.9886 238.731 38.102 238.673 38.2205 238.673H315.717C315.836 238.673 315.949 238.731 316.033 238.834C316.117 238.937 316.163 239.077 316.163 239.222C316.163 239.368 316.117 239.507 316.033 239.61C315.949 239.713 315.836 239.771 315.717 239.772Z" fill="#3F3D56"/>
<path d="M176.279 189.411H127.417C126.774 189.415 126.155 189.106 125.697 188.551C125.239 187.996 124.979 187.241 124.974 186.451V52.5622C124.979 51.7723 125.239 51.017 125.697 50.462C126.155 49.9071 126.774 49.5978 127.417 49.6021H176.279C176.923 49.5978 177.541 49.9071 177.999 50.462C178.457 51.017 178.717 51.7723 178.722 52.5622V186.451C178.717 187.241 178.457 187.996 177.999 188.551C177.541 189.106 176.923 189.415 176.279 189.411Z" fill="white"/>
<path d="M178.722 92.9243H124.974V93.8471H178.722V92.9243Z" fill="#CCCCCC"/>
<path d="M178.91 145.577H125.162V146.499H178.91V145.577Z" fill="#CCCCCC"/>
<path d="M142.64 49.6021H141.888V189.872H142.64V49.6021Z" fill="#CCCCCC"/>
<path d="M161.433 49.6021H160.681V189.872H161.433V49.6021Z" fill="#CCCCCC"/>
</g>
<defs>
<clipPath id="clip0">
<rect width="327" height="240" fill="white"/>
</clipPath>
</defs>
</svg>
