<svg width="18" height="16" viewBox="0 0 18 16" fill="none" xmlns="http://www.w3.org/2000/svg">
<path fill-rule="evenodd" clip-rule="evenodd" d="M1.71968 0.71959C1.86033 0.578986 2.05106 0.5 2.24993 0.5C2.44881 0.5 2.63954 0.578986 2.78018 0.71959L5.07068 3.01009C6.27221 2.34217 7.62525 1.99429 8.99993 1.99984C11.6122 1.99984 13.5449 3.18259 14.8574 4.44634C15.7768 5.33901 16.5379 6.38133 17.1082 7.52884C17.2529 7.82884 17.2522 8.17309 17.1082 8.47084C16.8532 8.99884 15.9277 10.7448 14.1967 12.1361L16.2802 14.2196C16.4168 14.361 16.4924 14.5505 16.4907 14.7471C16.489 14.9438 16.4101 15.1319 16.271 15.271C16.132 15.41 15.9439 15.4889 15.7472 15.4906C15.5506 15.4923 15.3611 15.4167 15.2197 15.2801L1.71968 1.78009C1.57908 1.63944 1.50009 1.44871 1.50009 1.24984C1.50009 1.05097 1.57908 0.860235 1.71968 0.71959ZM11.5844 9.52384C11.9227 8.95085 12.0608 8.28168 11.9772 7.6216C11.8935 6.96151 11.5928 6.34796 11.1223 5.87747C10.6518 5.40699 10.0383 5.10626 9.37818 5.0226C8.71809 4.93894 8.04892 5.0771 7.47593 5.41534L8.61143 6.55084C8.86583 6.48257 9.13372 6.4825 9.38815 6.55063C9.64259 6.61875 9.87459 6.75268 10.0608 6.93893C10.2471 7.12518 10.381 7.35719 10.4491 7.61162C10.5173 7.86605 10.5172 8.13394 10.4489 8.38834L11.5844 9.52384ZM3.81443 5.44084L6.02318 7.62334C5.9652 8.08053 6.01333 8.54494 6.16384 8.98052C6.31435 9.41611 6.56319 9.81116 6.89105 10.135C7.21891 10.4589 7.61698 10.7029 8.05438 10.8481C8.49177 10.9932 8.95673 11.0357 9.41318 10.9721L10.5277 12.0731C11.1397 12.6776 10.8832 13.8468 9.88643 13.9533C9.59918 13.9833 9.30368 13.9998 8.99993 13.9998C6.38768 13.9998 4.45493 12.8171 3.14243 11.5533C2.22307 10.6607 1.462 9.61836 0.891683 8.47084C0.820295 8.32382 0.783203 8.16252 0.783203 7.99909C0.783203 7.83566 0.820295 7.67436 0.891683 7.52734C1.05443 7.19359 1.46543 6.41059 2.15543 5.53759C2.25293 5.41482 2.37523 5.31401 2.51435 5.24173C2.65346 5.16946 2.80626 5.12734 2.96276 5.11814C3.11926 5.10894 3.27594 5.13286 3.42257 5.18833C3.5692 5.24381 3.70247 5.3296 3.81368 5.44009L3.81443 5.44084Z" fill="#BDE0FF"/>
</svg>
