<svg width="18" height="18" viewBox="0 0 18 18" fill="none" xmlns="http://www.w3.org/2000/svg">
<path d="M13.185 3H10.5V1.5H15.75V6.75H14.25V4.0575L11.3775 6.93C11.7165 7.44182 11.9246 8.02903 11.9836 8.64007C12.0426 9.25111 11.9507 9.86729 11.716 10.4345C11.4812 11.0018 11.1108 11.5027 10.6373 11.8933C10.1637 12.284 9.60151 12.5524 9 12.675V14.25H10.5V15.75H9V17.25H7.5V15.75H6V14.25H7.5V12.675C6.65298 12.5021 5.8917 12.0419 5.34502 11.3722C4.79834 10.7025 4.49982 9.86449 4.5 9C4.5 8.00544 4.89509 7.05161 5.59835 6.34835C6.30161 5.64509 7.25544 5.25 8.25 5.25C9 5.25 9.72 5.475 10.3125 5.8725L13.185 3ZM8.25 6.75C7.65326 6.75 7.08097 6.98705 6.65901 7.40901C6.23705 7.83097 6 8.40326 6 9C6 9.59674 6.23705 10.169 6.65901 10.591C7.08097 11.0129 7.65326 11.25 8.25 11.25C8.84674 11.25 9.41903 11.0129 9.84099 10.591C10.2629 10.169 10.5 9.59674 10.5 9C10.5 8.40326 10.2629 7.83097 9.84099 7.40901C9.41903 6.98705 8.84674 6.75 8.25 6.75Z" fill="#C4C4C4"/>
</svg>
