<svg width="1440" height="939" viewBox="0 0 1440 939" fill="none" xmlns="http://www.w3.org/2000/svg">
<path d="M324.5 68.4037C191 114.131 51.3333 81.1496 0 50.2408V744.927C13.8333 778.385 24.656 874.432 140.5 917.759C278.15 969.242 372.175 904.975 454 888.603C510.717 877.255 582.402 850.118 697.5 857.057C844.184 865.9 1151.46 935.704 1220.5 938.79C1359.5 945.004 1431.46 811.766 1440 750.469V11.5248C1333 -32.4486 1157.05 61.9517 1058.5 85.1327C959.059 108.523 810.942 58.165 745.5 41.1593C642.298 14.3413 445.979 26.794 324.5 68.4037Z" fill="url(#paint0_linear)"/>
<path d="M324.5 152.636C191 189.159 51.3333 162.816 0 138.128V692.99C13.8333 719.714 24.656 796.428 140.5 831.034C278.15 872.155 372.175 820.823 454 807.747C510.717 798.683 582.402 777.008 697.5 782.55C844.184 789.614 1151.46 845.367 1220.5 847.832C1359.5 852.795 1431.46 746.376 1440 697.416V107.205C1333 72.0826 1157.05 147.482 1058.5 165.997C959.059 184.68 810.942 144.458 745.5 130.875C642.298 109.455 445.979 119.401 324.5 152.636Z" fill="white" fill-opacity="0.1"/>
<path d="M324.5 229.483C191 255.878 51.3333 236.84 0 218.999V619.979C13.8333 639.292 24.656 694.731 140.5 719.74C278.15 749.456 372.175 712.36 454 702.91C510.717 696.36 582.402 680.696 697.5 684.702C844.184 689.806 1151.46 730.097 1220.5 731.879C1359.5 735.465 1431.46 658.56 1440 623.178V196.652C1333 171.27 1157.05 225.759 1058.5 239.139C959.059 252.641 810.942 223.573 745.5 213.758C642.298 198.278 445.979 205.466 324.5 229.483Z" fill="white" fill-opacity="0.1"/>
<circle cx="187.5" cy="390.5" r="101.5" fill="white" fill-opacity="0.3"/>
<circle cx="1089.5" cy="510.5" r="112.5" fill="white" fill-opacity="0.3"/>
<ellipse cx="200" cy="404.5" rx="71" ry="71.5" fill="white" fill-opacity="0.3"/>
<circle cx="1071" cy="534" r="70" fill="white" fill-opacity="0.3"/>
<defs>
<linearGradient id="paint0_linear" x1="720" y1="0" x2="720" y2="939" gradientUnits="userSpaceOnUse">
<stop stop-color="#AED8FF"/>
<stop offset="1" stop-color="#3D87CC"/>
</linearGradient>
</defs>
</svg>
