<svg width="1440" height="464" viewBox="0 0 1440 464" fill="none" xmlns="http://www.w3.org/2000/svg">
<path d="M0 111.849V464L1440 464V49.1892C1436.33 70.4937 1401.4 101.824 1291 56.7084C1153 0.314219 892 78.6395 789 97.4376C686 116.236 501 69.2403 310 12.2195C157.2 -33.3971 39.6667 59.6324 0 111.849Z" fill="url(#paint0_linear)"/>
<path d="M0 231.763V464L1440 464V190.439C1436.33 204.489 1401.4 225.151 1291 195.398C1153 158.207 892 209.861 789 222.258C686 234.655 501 203.663 310 166.059C157.2 135.975 39.6667 197.327 0 231.763Z" fill="white" fill-opacity="0.05"/>
<path d="M0 347.122V464L1440 464V326.326C1436.33 333.397 1401.4 343.795 1291 328.821C1153 310.104 892 336.1 789 342.339C686 348.578 501 332.981 310 314.056C157.2 298.916 39.6667 329.792 0 347.122Z" fill="white" fill-opacity="0.05"/>
<defs>
<linearGradient id="paint0_linear" x1="720" y1="0" x2="720" y2="464" gradientUnits="userSpaceOnUse">
<stop stop-color="#1E6599"/>
<stop offset="1" stop-color="#043F69"/>
</linearGradient>
</defs>
</svg>
