<svg width="771" height="419" viewBox="0 0 771 419" fill="none" xmlns="http://www.w3.org/2000/svg">
<g clip-path="url(#clip0)">
<path d="M387.974 419C597.037 419 766.516 407.787 766.516 393.955C766.516 380.123 597.037 368.91 387.974 368.91C178.911 368.91 9.43192 380.123 9.43192 393.955C9.43192 407.787 178.911 419 387.974 419Z" fill="#F2F2F2"/>
<path d="M373.465 119.776C311.791 119.776 267.509 159.321 267.509 251.593C267.509 356.167 311.791 383.849 373.465 383.849C435.14 383.849 482.06 353.531 482.06 251.593C482.06 142.625 435.14 119.776 373.465 119.776ZM373.871 349.137C331.153 349.137 308.836 324.091 308.836 251.66C308.836 187.751 332.067 154.049 374.784 154.049C417.502 154.049 440.733 176.186 440.733 251.66C440.732 322.265 416.588 349.137 373.871 349.137Z" fill="#2F2E41"/>
<path d="M230.578 310.91H205.078V235.865C205.078 231.879 203.494 228.056 200.673 225.238C197.853 222.419 194.028 220.836 190.04 220.836H184.065C182.09 220.836 180.134 221.224 178.31 221.98C176.485 222.735 174.827 223.842 173.431 225.238C172.035 226.633 170.927 228.29 170.171 230.113C169.415 231.937 169.026 233.891 169.026 235.865V310.91H97.0997C95.62 310.91 94.1655 310.528 92.8771 309.801C91.5888 309.073 90.5104 308.026 89.7467 306.759C88.9829 305.493 88.5597 304.05 88.5181 302.572C88.4764 301.094 88.8178 299.63 89.509 298.322L165.635 154.326C166.584 152.531 167.16 150.562 167.326 148.539C167.493 146.515 167.248 144.479 166.605 142.552C165.963 140.626 164.936 138.85 163.588 137.331C162.24 135.812 160.597 134.582 158.76 133.715L154.266 131.594C150.777 129.948 146.788 129.704 143.124 130.915C139.46 132.126 136.402 134.698 134.583 138.099L41.7366 311.681C40.1556 314.637 39.3284 317.937 39.3284 321.288C39.3284 323.964 39.8559 326.615 40.8806 329.087C41.9054 331.56 43.4075 333.806 45.301 335.699C47.1945 337.591 49.4425 339.092 51.9165 340.116C54.3906 341.14 57.0422 341.668 59.7201 341.668H169.026V389.121C169.026 391.487 169.493 393.83 170.398 396.016C171.304 398.201 172.632 400.187 174.306 401.86C175.98 403.533 177.967 404.86 180.154 405.765C182.341 406.67 184.685 407.136 187.052 407.136C189.419 407.136 191.763 406.67 193.95 405.765C196.137 404.86 198.124 403.533 199.798 401.86C201.472 400.187 202.8 398.201 203.706 396.016C204.612 393.83 205.078 391.487 205.078 389.121V341.668H230.578C234.659 341.668 238.573 340.047 241.459 337.163C244.345 334.279 245.966 330.368 245.966 326.289C245.966 322.21 244.345 318.299 241.459 315.415C238.573 312.531 234.659 310.91 230.578 310.91Z" fill="#539BE0"/>
<path d="M702.766 310.91H677.266V235.865C677.266 231.879 675.682 228.056 672.862 225.238C670.041 222.419 666.216 220.836 662.228 220.836H656.253C654.278 220.836 652.323 221.224 650.498 221.98C648.673 222.735 647.016 223.842 645.619 225.238C644.223 226.633 643.115 228.29 642.359 230.113C641.604 231.937 641.215 233.891 641.215 235.865V310.91H569.288C567.808 310.91 566.354 310.528 565.065 309.801C563.777 309.073 562.699 308.026 561.935 306.759C561.171 305.493 560.748 304.05 560.706 302.572C560.665 301.094 561.006 299.63 561.697 298.322L637.824 154.326C638.773 152.531 639.348 150.562 639.515 148.539C639.681 146.515 639.436 144.479 638.794 142.552C638.151 140.626 637.125 138.85 635.776 137.331C634.428 135.812 632.786 134.582 630.949 133.715L626.455 131.594C622.965 129.948 618.976 129.704 615.312 130.915C611.648 132.126 608.59 134.698 606.771 138.099L560.348 224.89L513.925 311.681C512.344 314.637 511.517 317.937 511.517 321.288C511.517 326.693 513.665 331.877 517.489 335.699C521.314 339.52 526.5 341.668 531.908 341.668H641.215V389.121C641.215 393.899 643.114 398.482 646.494 401.86C649.875 405.238 654.46 407.136 659.24 407.136C664.021 407.136 668.606 405.238 671.987 401.86C675.367 398.482 677.266 393.899 677.266 389.121V341.668H702.766C706.847 341.668 710.761 340.047 713.647 337.163C716.533 334.279 718.154 330.368 718.154 326.289C718.154 322.21 716.533 318.299 713.647 315.415C710.761 312.531 706.847 310.91 702.766 310.91Z" fill="#539BE0"/>
<path d="M237.612 302.123H212.112V227.077C212.112 225.104 211.723 223.149 210.968 221.326C210.212 219.502 209.104 217.846 207.708 216.45C206.311 215.054 204.654 213.947 202.829 213.192C201.005 212.437 199.049 212.048 197.074 212.048H191.099C187.111 212.048 183.286 213.631 180.465 216.45C177.645 219.268 176.061 223.091 176.061 227.077V302.123H104.134C102.654 302.123 101.2 301.74 99.9116 301.013C98.6232 300.286 97.5449 299.238 96.7811 297.971C96.0174 296.705 95.5941 295.262 95.5525 293.784C95.5109 292.306 95.8522 290.842 96.5435 289.535L172.67 145.539C173.619 143.743 174.194 141.775 174.361 139.751C174.528 137.727 174.282 135.691 173.64 133.765C172.997 131.838 171.971 130.062 170.623 128.544C169.274 127.025 167.632 125.795 165.795 124.928L161.301 122.807C157.811 121.16 153.822 120.917 150.158 122.128C146.494 123.338 143.436 125.91 141.617 129.312L48.7711 302.893C47.19 305.849 46.3629 309.149 46.3629 312.5V312.5C46.3629 317.905 48.5113 323.089 52.3354 326.911C56.1596 330.733 61.3463 332.88 66.7545 332.88H176.061V380.334C176.061 382.7 176.527 385.042 177.433 387.228C178.339 389.413 179.667 391.399 181.34 393.072C183.014 394.745 185.001 396.072 187.188 396.977C189.375 397.883 191.719 398.349 194.087 398.349H194.087C198.867 398.349 203.452 396.451 206.833 393.072C210.213 389.694 212.112 385.112 212.112 380.334V332.88H237.612C239.633 332.88 241.634 332.482 243.501 331.709C245.368 330.936 247.064 329.804 248.493 328.376C249.922 326.948 251.056 325.252 251.829 323.386C252.602 321.521 253 319.521 253 317.501V317.501C253 315.482 252.602 313.482 251.829 311.616C251.056 309.75 249.922 308.055 248.493 306.627C247.064 305.199 245.368 304.066 243.501 303.293C241.634 302.52 239.633 302.123 237.612 302.123V302.123Z" stroke="#539BE0" stroke-miterlimit="10"/>
<path d="M715.956 302.123H690.456V227.077C690.456 223.091 688.871 219.268 686.051 216.45C683.231 213.631 679.406 212.048 675.418 212.048H669.442C667.468 212.048 665.512 212.437 663.688 213.192C661.863 213.947 660.205 215.054 658.809 216.45C657.412 217.846 656.305 219.502 655.549 221.326C654.793 223.149 654.404 225.104 654.404 227.077V302.123H582.478C580.998 302.123 579.543 301.74 578.255 301.013C576.967 300.286 575.888 299.238 575.125 297.971C574.361 296.705 573.938 295.262 573.896 293.784C573.854 292.306 574.196 290.842 574.887 289.535L651.013 145.539C651.962 143.743 652.538 141.775 652.704 139.751C652.871 137.727 652.626 135.691 651.983 133.765C651.341 131.838 650.314 130.062 648.966 128.544C647.618 127.025 645.975 125.795 644.138 124.928L639.644 122.807C636.155 121.16 632.165 120.917 628.502 122.128C624.838 123.338 621.78 125.91 619.961 129.312L527.115 302.893C525.534 305.849 524.706 309.149 524.706 312.5C524.706 317.905 526.855 323.089 530.679 326.911C534.503 330.733 539.69 332.88 545.098 332.88H654.404V380.334C654.404 385.112 656.303 389.694 659.684 393.072C663.064 396.451 667.649 398.349 672.43 398.349V398.349C677.211 398.349 681.796 396.451 685.176 393.072C688.557 389.694 690.456 385.112 690.456 380.334V332.88H715.956C717.977 332.88 719.977 332.482 721.844 331.709C723.711 330.936 725.408 329.804 726.837 328.376C728.265 326.948 729.399 325.252 730.172 323.386C730.946 321.521 731.344 319.521 731.344 317.501V317.501C731.344 313.423 729.722 309.511 726.837 306.627C723.951 303.743 720.037 302.123 715.956 302.123V302.123Z" stroke="#539BE0" stroke-miterlimit="10"/>
<path d="M387.534 111.867C325.86 111.867 281.578 151.412 281.578 243.684C281.578 348.259 325.86 375.94 387.534 375.94C449.209 375.94 496.129 345.622 496.129 243.684C496.129 134.716 449.209 111.867 387.534 111.867ZM387.94 341.228C345.222 341.228 322.905 316.182 322.905 243.752C322.905 179.842 346.136 146.14 388.853 146.14C431.571 146.14 454.802 168.278 454.802 243.752C454.801 314.356 430.657 341.228 387.94 341.228V341.228Z" stroke="#3F3D56" stroke-miterlimit="10"/>
<path d="M338.098 22.3414C343.211 22.3414 347.356 18.1989 347.356 13.0889C347.356 7.97891 343.211 3.83643 338.098 3.83643C332.985 3.83643 328.84 7.97891 328.84 13.0889C328.84 18.1989 332.985 22.3414 338.098 22.3414Z" fill="#2F2E41"/>
<path d="M360.679 67.2498C375.02 67.2498 386.646 52.1954 386.646 33.6249C386.646 15.0544 375.02 0 360.679 0C346.337 0 334.711 15.0544 334.711 33.6249C334.711 52.1954 346.337 67.2498 360.679 67.2498Z" fill="#2F2E41"/>
<path opacity="0.1" d="M360.679 57.0947C347.67 57.0947 336.896 44.7086 335.005 28.5474C334.809 30.2327 334.71 31.9281 334.711 33.6249C334.711 52.1955 346.337 67.2499 360.679 67.2499C375.02 67.2499 386.646 52.1955 386.646 33.6249C386.647 31.9281 386.549 30.2327 386.352 28.5474C384.461 44.7086 373.687 57.0947 360.679 57.0947Z" fill="black"/>
<path d="M413.52 132.097C412.962 134.387 410.558 136.221 407.895 137.503C402.296 140.197 395.39 141.001 388.692 141.271C386.983 141.375 385.269 141.343 383.565 141.176C380.263 140.857 377.166 139.434 374.774 137.138C374.603 137.027 374.463 136.874 374.367 136.694C374.272 136.514 374.223 136.313 374.226 136.109C374.229 135.906 374.284 135.706 374.385 135.529C374.486 135.352 374.631 135.204 374.805 135.098C378.371 131.183 384.322 128.783 390.317 127.054C394.863 125.744 402.79 122.349 407.748 122.807C412.55 123.251 414.224 129.205 413.52 132.097Z" fill="#3F3D56"/>
<path opacity="0.1" d="M413.52 132.097C412.962 134.387 410.558 136.221 407.895 137.503C402.296 140.197 395.39 141.001 388.692 141.271C386.983 141.375 385.269 141.343 383.565 141.176C380.263 140.857 377.166 139.434 374.774 137.138C374.603 137.027 374.463 136.874 374.367 136.694C374.272 136.514 374.223 136.313 374.226 136.109C374.229 135.906 374.284 135.706 374.385 135.529C374.486 135.352 374.631 135.204 374.805 135.098C378.371 131.183 384.322 128.783 390.317 127.054C394.863 125.744 402.79 122.349 407.748 122.807C412.55 123.251 414.224 129.205 413.52 132.097Z" fill="black"/>
<path d="M342.334 114.98C340.625 118.327 340.315 122.216 341.474 125.791C342.652 129.339 344.857 132.458 347.81 134.754C355.054 140.557 365.024 141.355 374.307 141.275C382.444 141.204 390.569 140.647 398.638 139.608C401.343 139.369 404 138.752 406.533 137.776C409.563 136.466 412.226 134.063 413.305 130.944C414.383 127.826 413.618 124.008 411.056 121.926C408.805 120.098 405.7 119.846 402.805 119.672L386.237 118.677C387.874 117.022 390.053 116.085 392.046 114.882C394.691 113.285 396.448 110.604 398.371 108.187C401.334 104.648 404.557 101.336 408.015 98.2779C408.554 101.369 410.511 103.908 412.814 106.041C415.116 108.174 417.771 109.891 420.165 111.922C425.962 116.84 430.137 123.516 436.234 128.059C440.428 126.957 444.349 125.001 447.75 122.312L445.381 118.023C445.183 117.581 444.876 117.198 444.488 116.909C443.817 116.497 442.952 116.709 442.173 116.592C440.092 116.28 439.182 113.879 438.366 111.94C436.123 106.617 431.83 102.487 428.163 98.0236C425.456 94.7287 423.055 91.1944 420.99 87.4647C419.758 85.2403 418.63 82.9242 416.958 81.0077C415.287 79.0913 412.944 77.5846 410.4 77.5792C408.153 77.5745 406.08 78.7149 404.147 79.8621C398.261 83.3562 392.598 87.2123 387.19 91.408C384.36 93.6037 381.547 95.9237 378.227 97.2702C376.83 97.837 375.356 98.2244 374.015 98.9141C371.666 100.122 369.884 102.166 367.965 103.98C361.121 110.452 351.75 114.644 342.334 114.98Z" fill="#3F3D56"/>
<path d="M376.977 68.9198C376.9 70.8978 376.479 72.8474 375.733 74.6811C375.355 75.5957 374.792 76.4226 374.08 77.1102C373.368 77.7978 372.522 78.3314 371.594 78.6778C370.277 79.0304 368.896 79.0752 367.559 78.8086C366.393 78.6869 365.269 78.3044 364.271 77.6893C362.718 76.6219 361.943 74.7172 361.661 72.8532C361.379 70.9914 361.505 69.089 361.324 67.2137C361.148 65.699 360.86 64.1994 360.462 62.7274C360.34 62.2377 360.216 61.7502 360.094 61.2628C359.974 60.7753 359.857 60.2879 359.748 59.8004C359.649 59.3423 359.556 58.8819 359.477 58.4193C359.412 58.0289 359.353 57.6362 359.31 57.2413C359.271 56.0705 359.076 54.9102 358.73 53.7908C358.406 53.0649 357.999 52.3782 357.52 51.744C357.314 51.4506 357.115 51.1572 356.932 50.8526C356.403 50.0608 356.158 49.1137 356.235 48.1648C356.257 48.0182 356.292 47.8738 356.341 47.7338C356.359 47.6797 356.379 47.6255 356.402 47.5736C356.605 47.5185 356.792 47.4146 356.945 47.2711C357.099 47.1275 357.216 46.9486 357.285 46.7499C357.362 46.3229 357.326 45.8831 357.179 45.4748C357.01 44.9044 356.779 44.3542 356.49 43.8342C356.3 43.4912 355.657 42.8728 355.652 42.4802C355.643 41.6903 357.188 41.0539 357.813 40.7425C359.722 39.787 361.851 39.3556 363.982 39.4923C365.348 39.5848 366.83 40.0045 367.584 41.1487C368.261 42.18 368.171 43.516 368.46 44.7143C368.49 44.8885 368.564 45.0522 368.674 45.1905C368.822 45.3247 369.007 45.4098 369.205 45.4342C369.54 45.5007 369.883 45.5144 370.221 45.4748H370.224C370.313 45.4677 370.402 45.4549 370.49 45.4364C371.017 45.3392 371.516 45.1239 371.949 44.8068C372.229 44.7323 372.511 44.6714 372.795 44.624C372.807 44.6229 372.818 44.6206 372.829 44.6172C373.961 48.1851 374.107 52.0102 375.033 55.6435C375.492 57.4511 376.149 59.2362 376.241 61.0957C376.248 61.177 376.25 61.2604 376.253 61.3439C376.266 61.942 376.219 62.5445 376.244 63.1403C376.252 63.4086 376.282 63.6757 376.334 63.9392C376.435 64.3629 376.561 64.7803 376.711 65.1894L376.718 65.2097C376.761 65.3406 376.801 65.4737 376.835 65.6069C376.86 65.7039 376.883 65.7987 376.901 65.8957L376.903 65.9025C377.07 66.8997 377.095 67.9155 376.977 68.9198Z" fill="#FBBEBE"/>
<path d="M361.13 45.5854C368.488 45.5854 374.453 39.6243 374.453 32.2709C374.453 24.9174 368.488 18.9563 361.13 18.9563C353.772 18.9563 347.808 24.9174 347.808 32.2709C347.808 39.6243 353.772 45.5854 361.13 45.5854Z" fill="#FBBEBE"/>
<path d="M445.713 104.815C445.327 101.182 444.035 97.7047 441.956 94.7004C442.301 96.754 442.647 98.8069 442.994 100.859C442.563 100.984 442.105 100.98 441.675 100.848C441.246 100.716 440.865 100.462 440.578 100.117C440.017 99.4165 439.588 98.6205 439.311 97.7673C437.798 94.0121 435.819 90.4617 433.42 87.1992C424.939 86.4928 416.555 82.9791 409.096 78.8832C401.636 74.7895 394.654 69.8812 387.292 65.6138C386.016 64.8428 384.687 64.1641 383.314 63.5827C381.01 62.6597 378.425 62.1813 376.241 61.0958C376.094 61.0236 375.948 60.9469 375.803 60.8679C375.31 60.5998 374.843 60.2862 374.408 59.9314C374.173 59.7406 373.949 59.5356 373.739 59.3175C372.65 58.0508 371.786 56.6066 371.185 55.0479C370.014 52.4572 369.596 49.3316 368.426 46.7409C368.964 46.2388 369.568 45.8128 370.221 45.4749H370.224C370.318 45.4253 370.413 45.3779 370.51 45.3327C370.973 45.1149 371.454 44.9389 371.949 44.8069C372.229 44.7324 372.511 44.6715 372.795 44.6241C372.807 44.623 372.818 44.6207 372.829 44.6173C374.149 44.4025 375.501 44.5094 376.77 44.9288C378.626 45.5561 380.191 46.8086 381.751 47.9934C384.286 49.7781 386.717 51.7055 389.033 53.766C390.32 54.9982 391.495 56.3522 392.879 57.4715C394.029 58.3588 395.242 59.162 396.507 59.8749C403.997 64.3342 411.488 68.7927 418.98 73.2504C421.516 74.7602 424.054 76.2699 426.533 77.8676C430.299 80.2959 433.93 82.9272 437.559 85.5562C439.698 87.1043 441.835 88.6532 443.972 90.2028C444.673 90.6498 445.289 91.2184 445.79 91.8818C446.232 92.635 446.507 93.4748 446.596 94.3439C447.132 97.855 446.83 101.443 445.713 104.815Z" fill="#FBBEBE"/>
<path d="M380.281 78.9328C379.382 82.961 375.309 85.3961 373.179 88.9345C370.533 93.3261 371.612 98.4307 372.606 103.461C370.79 105.025 368.974 106.589 367.157 108.153C366.154 109.012 365.152 109.877 364.073 110.637C362.499 111.691 360.854 112.635 359.15 113.463C357.542 114.289 355.934 115.115 354.327 115.943C352.832 116.783 351.248 117.453 349.605 117.942C346.437 118.755 343.073 118.186 339.938 117.245C339.569 117.148 339.213 117.003 338.882 116.814C338.686 116.697 338.516 116.543 338.38 116.36C338.071 115.807 337.959 115.165 338.062 114.539C338.38 109.267 339.67 104.106 340.954 98.9836C341.641 95.9104 342.564 92.8947 343.716 89.9636C344.846 87.452 346.144 85.0197 347.602 82.6835C349.212 79.7439 351.118 76.9771 353.293 74.4262C354.351 73.4444 355.242 72.2964 355.93 71.0276C356.732 69.1996 356.422 67.1032 356.585 65.1127C356.709 63.6173 357.106 62.1572 357.757 60.8047V60.8024C358.105 60.0739 358.524 59.3815 359.008 58.7353C359.227 59.2453 359.446 59.7546 359.665 60.2631C359.809 60.5971 359.952 60.9303 360.094 61.2628C360.279 61.6916 360.463 62.1189 360.645 62.5446C361.171 63.7678 361.696 64.9902 362.221 66.2118C362.788 67.7505 363.596 69.1894 364.614 70.4747C365.08 71.1329 365.709 71.6592 366.439 72.0021C367.169 72.345 367.975 72.4928 368.779 72.4312C369.583 72.3696 370.358 72.1006 371.027 71.6505C371.696 71.2004 372.237 70.5846 372.597 69.8631C373.356 68.5165 373.905 67.0624 374.227 65.5506C374.673 63.7098 374.735 61.797 374.408 59.9314C373.864 56.3387 372.335 52.6693 371.224 49.3316C370.772 48.2188 370.51 47.0379 370.449 45.8383C370.452 45.7035 370.465 45.5691 370.49 45.4366C370.497 45.4027 370.504 45.3666 370.51 45.3328C370.973 45.1149 371.454 44.939 371.949 44.8069C372.229 44.7325 372.511 44.6715 372.795 44.6241C373.773 49.9139 374.752 55.2036 375.733 60.4933C375.756 60.6174 375.781 60.7415 375.803 60.8679C375.943 61.6262 376.085 62.3844 376.244 63.1404C376.386 63.8264 376.539 64.5102 376.711 65.1895L376.718 65.2098C376.776 65.44 376.837 65.6679 376.901 65.8959L376.903 65.9026C377.077 66.5255 377.271 67.1438 377.49 67.7531C378.818 71.4248 381.132 75.1212 380.281 78.9328Z" fill="#539BE0"/>
<path d="M434.349 135.542C434.307 136.318 434.458 137.092 434.787 137.796C435.621 139.319 437.621 139.666 439.352 139.808C449.465 140.639 459.64 140.329 469.683 138.884C470.228 138.847 470.757 138.683 471.227 138.406C472.655 137.405 471.775 134.967 470.215 134.186C468.656 133.405 466.806 133.594 465.095 133.256C463.395 132.828 461.777 132.126 460.303 131.178C456.833 129.186 453.414 127.109 450.046 124.948C448.04 123.66 445.674 122.287 443.415 123.05C437.297 125.118 434.309 128.947 434.349 135.542Z" fill="#3F3D56"/>
<path d="M359.8 59.5184V59.5206C359.785 59.6154 359.769 59.7079 359.748 59.8004C359.724 59.9539 359.694 60.1096 359.665 60.263C359.385 61.696 359.042 63.1223 358.646 64.5395C357.563 68.4549 356.111 72.3071 354.67 76.1029C350.804 86.2806 346.938 96.4591 343.07 106.638C342.095 109.202 341.122 111.768 340.013 114.28C339.643 115.117 339.261 115.961 338.882 116.814C337.522 119.867 336.217 123.02 335.783 126.269C335.379 128.408 335.333 130.599 335.646 132.753C336.079 134.883 337.373 136.964 339.399 137.751C340.388 138.137 341.803 138.654 341.533 139.681C341.386 140.245 340.744 140.52 340.169 140.615C339.408 140.736 338.631 140.689 337.891 140.476C337.151 140.263 336.467 139.89 335.887 139.383C334.806 138.424 333.975 136.932 332.536 136.772C331.541 136.664 330.624 137.26 329.712 137.677C325.99 139.376 321.655 138.187 317.746 136.98C318.053 135.398 319.643 134.355 321.221 134.039C322.8 133.721 324.432 133.947 326.042 133.904C326.558 133.931 327.069 133.8 327.508 133.527C327.901 133.167 328.176 132.696 328.298 132.177C329.335 129.106 330.106 125.952 330.603 122.749C331.123 119.402 331.34 116.004 332.08 112.698C332.656 110.118 333.546 107.62 334.309 105.088C335.785 99.8747 336.997 94.5903 337.94 89.2549C338.417 87.0383 338.758 84.7948 338.963 82.5367C339.092 80.6637 339.031 78.7816 339.211 76.9153C339.514 74.4872 340.021 72.0889 340.726 69.7457C341.417 67.1889 342.108 64.6335 342.797 62.0797C343.82 58.2997 344.917 54.3731 347.51 51.4348C348.41 50.4004 349.513 49.5618 350.751 48.971C351.989 48.3802 353.335 48.0498 354.706 48.0001C355.22 47.9995 355.733 48.0547 356.235 48.1649C356.318 48.1852 356.402 48.2055 356.485 48.228C357.033 48.371 357.558 48.5882 358.046 48.8735C358.845 48.3657 359.252 48.544 359.782 49.3271C360.247 50.1558 360.467 51.0998 360.414 52.0487C360.459 54.5528 360.253 57.0551 359.8 59.5184Z" fill="#FBBEBE"/>
<path d="M360.679 62.5107L360.645 62.5445L360.462 62.7273L358.646 64.5395L357.757 60.8046L354.706 48.0001C355.22 47.9994 355.733 48.0547 356.235 48.1648C356.257 48.0181 356.292 47.8738 356.341 47.7338L356.485 48.228L357.52 51.7439L359.477 58.4193L359.8 59.5183V59.5205L360.679 62.5107Z" fill="#6C63FF"/>
<path d="M372.199 21.6609C372.198 22.8466 371.962 24.0203 371.507 25.115C371.051 26.2097 370.384 27.2039 369.544 28.0408C369.239 28.3455 368.913 28.6274 368.568 28.8845C367.009 30.0585 365.111 30.6939 363.16 30.6948H352.327C349.933 30.6911 347.639 29.7381 345.947 28.0452C344.256 26.3522 343.306 24.0577 343.306 21.6653C343.306 19.273 344.256 16.9784 345.947 15.2855C347.639 13.5925 349.933 12.6396 352.327 12.6359H363.16C365.554 12.6421 367.848 13.5947 369.542 15.2856C371.235 16.9765 372.191 19.2684 372.199 21.6609Z" fill="#2F2E41"/>
<path d="M382.356 22.3414C387.469 22.3414 391.614 18.1989 391.614 13.0889C391.614 7.97891 387.469 3.83643 382.356 3.83643C377.243 3.83643 373.098 7.97891 373.098 13.0889C373.098 18.1989 377.243 22.3414 382.356 22.3414Z" fill="#2F2E41"/>
<path opacity="0.1" d="M382.13 3.83643C382.017 3.83643 381.904 3.84093 381.792 3.84498C384.187 3.932 386.454 4.944 388.118 6.66807C389.781 8.39213 390.711 10.6938 390.711 13.0889C390.711 15.484 389.781 17.7857 388.118 19.5098C386.454 21.2338 384.187 22.2458 381.792 22.3329C381.904 22.3369 382.017 22.3414 382.13 22.3414C384.586 22.3414 386.941 21.3666 388.677 19.6314C390.413 17.8962 391.388 15.5428 391.388 13.0889C391.388 10.635 390.413 8.2816 388.677 6.54642C386.941 4.81124 384.586 3.83643 382.13 3.83643Z" fill="black"/>
<path opacity="0.1" d="M338.098 3.83643C338.212 3.83643 338.324 3.84093 338.437 3.84498C336.042 3.932 333.774 4.944 332.11 6.66807C330.447 8.39213 329.517 10.6938 329.517 13.0889C329.517 15.484 330.447 17.7857 332.11 19.5098C333.774 21.2338 336.042 22.2458 338.437 22.3329C338.324 22.3369 338.212 22.3414 338.098 22.3414C335.644 22.3393 333.291 21.3635 331.557 19.6285C329.822 17.8936 328.848 15.5414 328.848 13.0889C328.848 10.6364 329.822 8.28424 331.557 6.5493C333.291 4.81435 335.644 3.83858 338.098 3.83643Z" fill="black"/>
<path opacity="0.1" d="M368.568 28.8845C367.009 30.0585 365.111 30.6939 363.16 30.6948H352.327C350.375 30.6939 348.477 30.0585 346.919 28.8845H368.568Z" fill="black"/>
<path d="M438.524 95.9274C438.524 95.9274 440.858 102.649 442.994 100.859L441.292 92.0736L438.524 95.9274Z" fill="#FBBEBE"/>
<path d="M722.541 300.893C724.715 301.683 727.042 301.958 729.34 301.695C731.638 301.432 733.844 300.64 735.783 299.38C737.723 298.12 739.343 296.427 740.516 294.435C741.689 292.443 742.383 290.205 742.543 287.899C742.703 285.593 742.325 283.281 741.439 281.146C740.553 279.011 739.183 277.111 737.436 275.595C735.69 274.079 733.615 272.99 731.375 272.412C729.135 271.835 726.792 271.785 724.53 272.267L724.903 279.95L721.267 273.366C717.697 275.042 714.939 278.066 713.6 281.773C713.124 283.071 712.835 284.431 712.741 285.81C712.511 289.048 713.344 292.271 715.112 294.993C716.88 297.715 719.488 299.786 722.541 300.893Z" fill="#57B894"/>
<path d="M740.537 389.999C739.253 383.465 744.816 377.673 750.311 373.908C755.806 370.143 762.227 366.443 764.102 360.054C766.797 350.871 758.77 342.462 752.523 335.209C747.888 329.828 743.908 323.916 740.665 317.597C739.366 315.064 738.171 312.416 737.829 309.589C737.337 305.519 738.645 301.468 739.963 297.586C744.355 284.652 749.05 271.826 754.049 259.109" stroke="#3F3D56" stroke-miterlimit="10"/>
<path d="M723.156 298.915C725.33 299.705 727.657 299.98 729.955 299.717C732.254 299.454 734.459 298.662 736.398 297.402C738.338 296.142 739.958 294.449 741.131 292.457C742.304 290.465 742.998 288.227 743.158 285.921C743.318 283.615 742.94 281.303 742.054 279.168C741.168 277.033 739.798 275.133 738.051 273.617C736.305 272.101 734.23 271.012 731.99 270.434C729.75 269.857 727.407 269.807 725.145 270.289L725.519 277.972L721.882 271.387C718.312 273.064 715.555 276.088 714.215 279.795C713.739 281.093 713.45 282.453 713.356 283.832C713.126 287.069 713.959 290.293 715.727 293.015C717.495 295.737 720.103 297.808 723.156 298.915V298.915Z" stroke="#3F3D56" stroke-miterlimit="10"/>
<path d="M738.711 256.456C739.564 254.103 740.996 252.003 742.875 250.349C744.753 248.695 747.018 247.54 749.461 246.991L750.691 254.294L752.971 246.624C756.136 246.67 759.205 247.722 761.734 249.625C764.262 251.529 766.12 254.186 767.04 257.214C767.959 260.241 767.891 263.483 766.847 266.469C765.803 269.456 763.836 272.034 761.23 273.831C758.624 275.628 755.514 276.55 752.35 276.466C749.185 276.381 746.129 275.293 743.623 273.36C741.117 271.426 739.291 268.747 738.408 265.709C737.525 262.67 737.631 259.43 738.711 256.456H738.711Z" fill="#57B894"/>
<path d="M739.531 253.819C740.385 251.466 741.816 249.366 743.695 247.712C745.574 246.058 747.839 244.903 750.281 244.353L751.511 251.657L753.791 243.986C756.956 244.033 760.025 245.084 762.554 246.988C765.082 248.891 766.941 251.549 767.86 254.576C768.779 257.604 768.711 260.845 767.667 263.832C766.623 266.819 764.656 269.397 762.05 271.194C759.444 272.99 756.334 273.913 753.17 273.828C750.005 273.744 746.949 272.656 744.443 270.723C741.937 268.789 740.111 266.11 739.228 263.071C738.345 260.033 738.451 256.793 739.531 253.819H739.531Z" stroke="#3F3D56" stroke-miterlimit="10"/>
<path d="M749.901 335.357C753.349 336.607 757.136 336.546 760.541 335.184C763.946 333.823 766.73 331.257 768.364 327.975C769.997 324.694 770.366 320.926 769.398 317.391C768.431 313.856 766.196 310.8 763.119 308.805L761.367 314.7L760.125 307.31C760.113 307.305 760.1 307.3 760.087 307.296C758.243 306.626 756.285 306.326 754.325 306.413C752.365 306.5 750.441 306.972 748.664 307.802C746.886 308.632 745.29 309.804 743.966 311.25C742.641 312.697 741.616 314.391 740.946 316.234C740.277 318.077 739.978 320.034 740.066 321.993C740.154 323.952 740.628 325.874 741.459 327.65C742.291 329.426 743.464 331.021 744.913 332.343C746.361 333.666 748.056 334.69 749.901 335.357H749.901Z" fill="#57B894"/>
<path d="M750.612 332.686C754.059 333.936 757.847 333.874 761.252 332.513C764.656 331.151 767.441 328.585 769.074 325.304C770.708 322.022 771.076 318.255 770.109 314.72C769.142 311.184 766.907 308.128 763.83 306.134L762.078 312.029L760.836 304.639C760.823 304.633 760.811 304.629 760.798 304.625C758.954 303.955 756.996 303.655 755.036 303.742C753.076 303.828 751.152 304.3 749.374 305.13C747.597 305.96 746 307.132 744.676 308.579C743.352 310.026 742.326 311.719 741.657 313.563C740.988 315.406 740.689 317.363 740.777 319.322C740.865 321.28 741.338 323.203 742.17 324.979C743.001 326.755 744.175 328.349 745.624 329.672C747.072 330.994 748.767 332.019 750.612 332.686H750.612Z" stroke="#3F3D56" stroke-miterlimit="10"/>
<path d="M734.353 360.145C734.945 363.516 736.68 366.581 739.265 368.825C741.851 371.07 745.13 372.358 748.552 372.473C751.975 372.588 755.333 371.524 758.064 369.458C760.794 367.392 762.731 364.451 763.55 361.128C764.368 357.804 764.018 354.301 762.558 351.205C761.099 348.109 758.618 345.608 755.533 344.123C752.448 342.637 748.945 342.257 745.613 343.047C742.281 343.836 739.321 345.746 737.231 348.457L743.885 358.466L734.793 353.154C734.088 355.415 733.937 357.813 734.353 360.145Z" fill="#57B894"/>
<path d="M734.968 358.167C735.561 361.538 737.295 364.603 739.88 366.847C742.466 369.092 745.745 370.38 749.167 370.495C752.59 370.61 755.948 369.546 758.679 367.48C761.409 365.414 763.346 362.473 764.165 359.15C764.983 355.826 764.633 352.323 763.173 349.227C761.714 346.131 759.233 343.63 756.148 342.145C753.063 340.659 749.56 340.279 746.228 341.069C742.896 341.858 739.936 343.768 737.846 346.479L744.5 356.488L735.408 351.176C734.703 353.437 734.552 355.835 734.968 358.167V358.167Z" stroke="#3F3D56" stroke-miterlimit="10"/>
<path d="M6.46391 337.254C7.89218 337.773 9.42152 337.953 10.9314 337.781C12.4413 337.608 13.8904 337.087 15.1646 336.26C16.4388 335.432 17.5032 334.32 18.2739 333.011C19.0446 331.702 19.5006 330.232 19.6059 328.717C19.7112 327.201 19.4629 325.683 18.8806 324.28C18.2983 322.877 17.3979 321.628 16.2504 320.632C15.1029 319.637 13.7397 318.921 12.2681 318.541C10.7966 318.162 9.25701 318.129 7.77069 318.446L8.01631 323.493L5.62674 319.168C3.28152 320.269 1.46974 322.256 0.58954 324.691C0.276946 325.545 0.0869113 326.438 0.0251065 327.344C-0.125724 329.471 0.421249 331.589 1.58314 333.377C2.74502 335.165 4.4585 336.526 6.46391 337.254Z" fill="#57B894"/>
<path d="M18.2875 395.798C17.444 391.505 21.0991 387.699 24.7096 385.226C28.32 382.752 32.5386 380.321 33.7705 376.123C35.5409 370.09 30.2673 364.565 26.1627 359.8C23.1175 356.264 20.5024 352.38 18.3721 348.229C17.4459 346.598 16.8151 344.817 16.5087 342.967C16.185 340.293 17.0447 337.632 17.9108 335.081C20.7961 326.583 23.8809 318.156 27.1654 309.801" stroke="#3F3D56" stroke-miterlimit="10"/>
<path d="M6.86797 335.955C8.29624 336.473 9.82558 336.654 11.3355 336.481C12.8453 336.309 14.2945 335.788 15.5687 334.96C16.8429 334.132 17.9073 333.02 18.678 331.711C19.4487 330.402 19.9046 328.932 20.0099 327.417C20.1152 325.902 19.8669 324.383 19.2846 322.98C18.7023 321.577 17.8019 320.329 16.6544 319.333C15.507 318.337 14.1437 317.621 12.6722 317.242C11.2007 316.862 9.66107 316.83 8.17475 317.146L8.42037 322.194L6.0308 317.868C3.68557 318.969 1.87379 320.956 0.993593 323.392C0.681002 324.245 0.49097 325.138 0.429162 326.045C0.278322 328.172 0.825291 330.29 1.98718 332.078C3.14907 333.866 4.86255 335.227 6.86797 335.955V335.955Z" stroke="#3F3D56" stroke-miterlimit="10"/>
<path d="M17.0882 308.058C17.6487 306.512 18.5894 305.132 19.8237 304.045C21.058 302.959 22.5461 302.2 24.151 301.839L24.9589 306.637L26.4569 301.598C28.5366 301.628 30.5528 302.319 32.2143 303.57C33.8758 304.82 35.0965 306.566 35.7004 308.556C36.3043 310.545 36.2599 312.674 35.5738 314.637C34.8877 316.599 33.5954 318.293 31.8833 319.473C30.1712 320.654 28.1281 321.26 26.0488 321.204C23.9696 321.149 21.9618 320.434 20.3154 319.164C18.6689 317.894 17.4691 316.133 16.889 314.137C16.3089 312.141 16.3787 310.012 17.0882 308.058Z" fill="#57B894"/>
<path d="M17.627 306.325C18.1875 304.779 19.1282 303.4 20.3625 302.313C21.5968 301.226 23.0849 300.467 24.6898 300.106L25.4977 304.905L26.9957 299.865C29.0754 299.896 31.0916 300.586 32.7531 301.837C34.4145 303.088 35.6353 304.834 36.2392 306.823C36.843 308.812 36.7987 310.942 36.1126 312.904C35.4265 314.866 34.1341 316.56 32.4221 317.741C30.71 318.921 28.6669 319.527 26.5876 319.472C24.5083 319.416 22.5006 318.702 20.8541 317.431C19.2077 316.161 18.0079 314.4 17.4278 312.404C16.8477 310.408 16.9175 308.279 17.627 306.325V306.325Z" stroke="#3F3D56" stroke-miterlimit="10"/>
<path d="M24.4402 359.897C26.7053 360.719 29.1935 360.678 31.4306 359.783C33.6677 358.889 35.4973 357.203 36.5705 355.047C37.6438 352.891 37.8857 350.416 37.2502 348.093C36.6147 345.77 35.1461 343.762 33.1245 342.452L31.9735 346.325L31.1574 341.47C31.1493 341.466 31.141 341.463 31.1324 341.461C29.9208 341.02 28.6343 340.823 27.3464 340.88C26.0584 340.936 24.7943 341.246 23.6263 341.792C22.4582 342.337 21.4092 343.107 20.5391 344.058C19.6689 345.008 18.9948 346.121 18.5551 347.332C18.1155 348.543 17.919 349.829 17.9769 351.116C18.0347 352.404 18.3458 353.667 18.8924 354.834C19.4389 356 20.2102 357.048 21.1621 357.917C22.114 358.786 23.228 359.459 24.4402 359.897Z" fill="#57B894"/>
<path d="M24.9071 358.142C27.1721 358.964 29.6604 358.923 31.8975 358.028C34.1346 357.134 35.9641 355.448 37.0374 353.292C38.1106 351.136 38.3525 348.661 37.717 346.338C37.0815 344.015 35.613 342.007 33.5914 340.697L32.4404 344.57L31.6242 339.715C31.6161 339.711 31.6078 339.708 31.5992 339.705C30.3879 339.266 29.1019 339.07 27.8147 339.127C26.5274 339.185 25.2641 339.495 24.0968 340.041C21.7395 341.143 19.9166 343.135 19.0291 345.58C18.1417 348.025 18.2624 350.722 19.3647 353.078C20.4671 355.434 22.4607 357.255 24.9071 358.142V358.142Z" stroke="#3F3D56" stroke-miterlimit="10"/>
<path d="M14.2246 376.183C14.6141 378.398 15.7537 380.412 17.4523 381.886C19.1509 383.361 21.3053 384.207 23.554 384.283C25.8028 384.359 28.0092 383.659 29.8032 382.302C31.5973 380.945 32.8698 379.013 33.4075 376.829C33.9452 374.645 33.7152 372.344 32.7563 370.309C31.7973 368.275 30.1676 366.632 28.1405 365.656C26.1134 364.68 23.8122 364.431 21.6228 364.949C19.4334 365.468 17.4889 366.723 16.1155 368.504L20.4874 375.08L14.5137 371.59C14.0506 373.076 13.9514 374.651 14.2246 376.183Z" fill="#57B894"/>
<path d="M14.6287 374.884C15.0181 377.099 16.1577 379.112 17.8564 380.587C19.555 382.062 21.7093 382.908 23.9581 382.983C26.2069 383.059 28.4133 382.36 30.2073 381.003C32.0014 379.645 33.2739 377.713 33.8116 375.529C34.3492 373.346 34.1193 371.044 33.1603 369.01C32.2014 366.976 30.5717 365.333 28.5446 364.357C26.5175 363.381 24.2163 363.131 22.0268 363.65C19.8374 364.168 17.893 365.423 16.5196 367.204L20.8915 373.781L14.9178 370.29C14.4546 371.776 14.3555 373.352 14.6287 374.884V374.884Z" stroke="#3F3D56" stroke-miterlimit="10"/>
<path d="M345.134 244.642C351.872 244.642 357.334 237.578 357.334 228.864C357.334 220.15 351.872 213.086 345.134 213.086C338.397 213.086 332.935 220.15 332.935 228.864C332.935 237.578 338.397 244.642 345.134 244.642Z" fill="#2F2E41"/>
<path d="M411.514 245C418.251 245 423.713 237.936 423.713 229.222C423.713 220.509 418.251 213.444 411.514 213.444C404.776 213.444 399.314 220.509 399.314 229.222C399.314 237.936 404.776 245 411.514 245Z" fill="#2F2E41"/>
<path d="M402.185 275.839C402.185 282.968 392.224 288.749 379.938 288.749C367.653 288.749 357.692 282.968 357.692 275.839C357.692 269.664 365.163 264.501 375.145 263.239C376.734 263.029 378.336 262.926 379.938 262.93C382.624 262.921 385.303 263.21 387.926 263.791C396.264 265.648 402.185 270.346 402.185 275.839Z" fill="#2F2E41"/>
<path d="M348.005 241.056C354.742 241.056 360.204 233.992 360.204 225.278C360.204 216.564 354.742 209.5 348.005 209.5C341.267 209.5 335.805 216.564 335.805 225.278C335.805 233.992 341.267 241.056 348.005 241.056Z" stroke="#3F3D56" stroke-miterlimit="10"/>
<path d="M414.384 241.415C421.122 241.415 426.583 234.351 426.583 225.637C426.583 216.923 421.122 209.859 414.384 209.859C407.646 209.859 402.185 216.923 402.185 225.637C402.185 234.351 407.646 241.415 414.384 241.415Z" stroke="#3F3D56" stroke-miterlimit="10"/>
<path d="M382.809 285.163C395.095 285.163 405.055 279.383 405.055 272.253C405.055 265.124 395.095 259.344 382.809 259.344C370.523 259.344 360.563 265.124 360.563 272.253C360.563 279.383 370.523 285.163 382.809 285.163Z" stroke="#3F3D56" stroke-miterlimit="10"/>
<path d="M388.191 264.866C388.197 265.768 387.858 266.638 387.244 267.299C386.954 267.616 386.601 267.869 386.208 268.042C385.816 268.216 385.391 268.307 384.962 268.309H377.786C376.901 268.278 376.065 267.899 375.46 267.254C374.855 266.609 374.53 265.75 374.556 264.866C374.553 264.167 374.758 263.483 375.145 262.9C376.733 262.677 378.335 262.567 379.938 262.571C382.628 262.563 385.309 262.871 387.926 263.489C388.103 263.927 388.193 264.395 388.191 264.866Z" fill="white"/>
<path d="M348.005 224.561C349.986 224.561 351.593 222.955 351.593 220.975C351.593 218.995 349.986 217.389 348.005 217.389C346.023 217.389 344.417 218.995 344.417 220.975C344.417 222.955 346.023 224.561 348.005 224.561Z" fill="white"/>
<path d="M414.743 224.561C416.724 224.561 418.331 222.955 418.331 220.975C418.331 218.995 416.724 217.389 414.743 217.389C412.761 217.389 411.155 218.995 411.155 220.975C411.155 222.955 412.761 224.561 414.743 224.561Z" fill="white"/>
<path opacity="0.3" d="M418.331 258.268C420.313 258.268 421.919 256.663 421.919 254.682C421.919 252.702 420.313 251.097 418.331 251.097C416.349 251.097 414.743 252.702 414.743 254.682C414.743 256.663 416.349 258.268 418.331 258.268Z" fill="#6C63FF"/>
<path opacity="0.3" d="M330.782 258.268C332.763 258.268 334.37 256.663 334.37 254.682C334.37 252.702 332.763 251.097 330.782 251.097C328.8 251.097 327.194 252.702 327.194 254.682C327.194 256.663 328.8 258.268 330.782 258.268Z" fill="#6C63FF"/>
</g>
<defs>
<clipPath id="clip0">
<rect width="771" height="419" fill="white"/>
</clipPath>
</defs>
</svg>
