<svg width="8" height="15" viewBox="0 0 8 15" fill="none" xmlns="http://www.w3.org/2000/svg">
<path d="M1.17 0.000700951C1.31939 0.000192642 1.467 0.033165 1.60198 0.0971937C1.73696 0.161222 1.85588 0.254682 1.95 0.370702L6.78 6.3707C6.92708 6.54963 7.00748 6.77408 7.00748 7.0057C7.00748 7.23733 6.92708 7.46177 6.78 7.6407L1.78 13.6407C1.61026 13.8449 1.36635 13.9733 1.10192 13.9977C0.837494 14.0221 0.574213 13.9404 0.369997 13.7707C0.16578 13.601 0.0373559 13.3571 0.0129762 13.0926C-0.0114036 12.8282 0.0702577 12.5649 0.239996 12.3607L4.71 7.0007L0.389997 1.6407C0.267714 1.49392 0.190037 1.31518 0.166157 1.12563C0.142278 0.936078 0.173194 0.743653 0.25525 0.571126C0.337306 0.398599 0.467066 0.253187 0.629177 0.152097C0.791287 0.0510063 0.978963 -0.00153065 1.17 0.000700951Z" fill="#616161"/>
</svg>
