<svg width="425" height="323" viewBox="0 0 425 323" fill="none" xmlns="http://www.w3.org/2000/svg">
<g clip-path="url(#clip0)">
<path d="M170.064 66.9828H168.513V24.5557C168.513 21.331 167.877 18.1379 166.642 15.1586C165.407 12.1794 163.596 9.4724 161.313 7.1922C159.031 4.91199 156.321 3.10324 153.338 1.8692C150.356 0.635157 147.159 2.73221e-06 143.931 0H53.9453C47.4256 -1.24152e-05 41.173 2.58708 36.5629 7.19214C31.9528 11.7972 29.3628 18.043 29.3628 24.5556V257.314C29.3628 260.539 29.9987 263.732 31.234 266.711C32.4694 269.69 34.2801 272.397 36.5628 274.677C38.8455 276.958 41.5555 278.766 44.5379 280C47.5204 281.234 50.717 281.87 53.9452 281.87H143.931C150.45 281.87 156.703 279.283 161.313 274.678C165.923 270.072 168.513 263.827 168.513 257.314V97.1831H170.064V66.9828Z" fill="#3F3D56"/>
<path d="M144.923 6.38867H133.177C133.717 7.71156 133.923 9.14684 133.777 10.5681C133.631 11.9893 133.137 13.3529 132.34 14.5387C131.542 15.7245 130.464 16.6961 129.202 17.368C127.94 18.0398 126.532 18.3913 125.101 18.3914H73.5498C72.1196 18.3913 70.7113 18.0398 69.4491 17.368C68.1868 16.6961 67.1093 15.7245 66.3115 14.5387C65.5138 13.3529 65.0202 11.9893 64.8742 10.5681C64.7283 9.14685 64.9345 7.71156 65.4747 6.38867H54.5038C52.093 6.38867 49.7058 6.86299 47.4785 7.78456C45.2512 8.70612 43.2275 10.0569 41.5228 11.7597C39.8181 13.4625 38.4659 15.4841 37.5433 17.7089C36.6207 19.9338 36.1459 22.3184 36.1459 24.7265V257.143C36.1459 259.552 36.6207 261.936 37.5433 264.161C38.4659 266.386 39.8181 268.407 41.5228 270.11C43.2275 271.813 45.2512 273.164 47.4785 274.085C49.7058 275.007 52.093 275.481 54.5037 275.481H144.923C147.333 275.481 149.721 275.007 151.948 274.085C154.175 273.164 156.199 271.813 157.904 270.11C159.608 268.407 160.961 266.386 161.883 264.161C162.806 261.936 163.281 259.552 163.281 257.143V24.7265C163.281 22.3184 162.806 19.9338 161.883 17.7089C160.961 15.4841 159.608 13.4625 157.904 11.7597C156.199 10.0569 154.175 8.70612 151.948 7.78456C149.721 6.863 147.333 6.38867 144.923 6.38867Z" fill="white"/>
<path d="M198.906 281.909H0.520696C0.382599 281.909 0.250157 281.855 0.152508 281.757C0.0548585 281.66 0 281.527 0 281.389C0 281.251 0.0548585 281.119 0.152508 281.021C0.250157 280.924 0.382599 280.869 0.520696 280.869H198.906C199.044 280.869 199.176 280.924 199.274 281.021C199.372 281.119 199.427 281.251 199.427 281.389C199.427 281.527 199.372 281.66 199.274 281.757C199.176 281.855 199.044 281.909 198.906 281.909Z" fill="#CBCBCB"/>
<path d="M99.7132 179.799C123.998 179.799 143.684 160.134 143.684 135.876C143.684 111.618 123.998 91.9531 99.7132 91.9531C75.4289 91.9531 55.7425 111.618 55.7425 135.876C55.7425 160.134 75.4289 179.799 99.7132 179.799Z" fill="#6C63FF"/>
<path d="M95.356 152.63C94.3668 152.632 93.4039 152.312 92.6124 151.719L92.5633 151.683L82.2296 143.786C81.751 143.42 81.3494 142.963 81.0476 142.441C80.7459 141.919 80.5499 141.344 80.4709 140.746C80.392 140.149 80.4315 139.542 80.5874 138.96C80.7432 138.378 81.0122 137.833 81.3792 137.355C81.7461 136.877 82.2037 136.475 82.7258 136.174C83.2479 135.873 83.8244 135.677 84.4223 135.598C85.0201 135.519 85.6277 135.559 86.2103 135.714C86.7929 135.87 87.339 136.139 87.8176 136.505L94.511 141.632L110.328 121.02C110.695 120.542 111.152 120.141 111.674 119.84C112.196 119.539 112.772 119.343 113.37 119.264C113.967 119.185 114.575 119.225 115.157 119.38C115.739 119.536 116.285 119.805 116.764 120.171L116.765 120.172L116.667 120.308L116.768 120.172C117.733 120.913 118.364 122.006 118.523 123.212C118.683 124.417 118.356 125.636 117.617 126.602L99.0127 150.836C98.5823 151.394 98.0289 151.846 97.3954 152.156C96.762 152.466 96.0655 152.627 95.36 152.625L95.356 152.63Z" fill="white"/>
<path d="M361.49 286.226C362.025 285.362 362.655 284.561 363.368 283.836C363.662 283.532 363.972 283.245 364.292 282.965C366.236 281.237 368.606 280.057 371.158 279.546C373.71 279.036 376.352 279.214 378.813 280.062C381.273 280.91 383.463 282.397 385.158 284.37C386.852 286.344 387.989 288.733 388.453 291.291C390.601 283.358 385.01 275.544 379.39 269.542C373.767 263.542 367.339 256.959 367.372 248.737C367.387 244.163 369.628 240.081 373.01 237.055C373.115 236.964 373.219 236.872 373.326 236.784C377.414 233.283 382.674 231.452 388.055 231.656C398.052 232.191 406.781 238.902 412.842 246.863C422.6 259.673 426.875 277.653 420.045 292.235C414.036 305.059 401.222 312.675 388.144 318.797C386.318 319.652 384.495 320.482 382.676 321.285C382.665 321.288 382.651 321.297 382.639 321.3C382.552 321.338 382.464 321.377 382.382 321.416C382.007 321.582 381.631 321.747 381.259 321.911L381.431 322.023L381.969 322.371C381.783 322.258 381.598 322.149 381.412 322.036C381.356 322.002 381.298 321.97 381.242 321.936C374.819 318.086 368.307 314.013 363.869 308.003C359.267 301.762 357.417 292.823 361.49 286.226Z" fill="#F1F1F1"/>
<path d="M404.345 271.734C405.768 274.966 406.711 278.388 407.144 281.892C407.486 285.017 407.357 288.174 406.764 291.261C405.488 297.604 402.706 303.548 398.653 308.593C395.594 312.423 392.063 315.852 388.144 318.798C386.318 319.653 384.495 320.482 382.676 321.286C382.664 321.289 382.651 321.298 382.639 321.301C382.552 321.339 382.464 321.378 382.382 321.417C382.007 321.583 381.631 321.748 381.259 321.911L381.431 322.024L381.969 322.372C381.783 322.259 381.598 322.15 381.412 322.037C381.356 322.003 381.298 321.971 381.243 321.936C382.656 316.997 382.864 311.792 381.848 306.756C380.833 301.72 378.624 297 375.407 292.993C372.172 289.036 368.047 285.899 363.368 283.837C363.662 283.532 363.972 283.245 364.292 282.966C366.094 283.793 367.82 284.777 369.448 285.907C375.274 289.929 379.648 295.718 381.924 302.416C383.955 308.493 384.209 315.023 382.655 321.239C382.977 321.028 383.301 320.812 383.616 320.597C389.6 316.566 395.114 311.725 399.268 305.789C402.851 300.771 405.144 294.951 405.945 288.841C406.741 282.165 405.069 275.601 402.085 269.645C398.791 263.273 394.639 257.381 389.747 252.132C384.832 246.739 379.276 241.966 373.201 237.921C373.064 237.829 372.968 237.688 372.932 237.527C372.897 237.366 372.925 237.197 373.01 237.056C373.075 236.927 373.189 236.83 373.326 236.784C373.395 236.767 373.468 236.765 373.538 236.779C373.608 236.793 373.674 236.823 373.731 236.866C374.481 237.366 375.225 237.87 375.959 238.39C382.077 242.717 387.633 247.786 392.499 253.482C397.202 258.972 401.481 265.071 404.345 271.734Z" fill="white"/>
<path d="M273.387 20.3943C278.544 20.3943 282.725 16.218 282.725 11.0663C282.725 5.91458 278.544 1.73828 273.387 1.73828C268.23 1.73828 264.049 5.91458 264.049 11.0663C264.049 16.218 268.23 20.3943 273.387 20.3943Z" fill="#F1F1F1"/>
<path d="M389.502 145.226C392.647 145.226 395.196 142.68 395.196 139.539C395.196 136.398 392.647 133.852 389.502 133.852C386.358 133.852 383.809 136.398 383.809 139.539C383.809 142.68 386.358 145.226 389.502 145.226Z" fill="#F1F1F1"/>
<path d="M222.88 160.829C226.024 160.829 228.573 158.283 228.573 155.142C228.573 152.001 226.024 149.455 222.88 149.455C219.735 149.455 217.186 152.001 217.186 155.142C217.186 158.283 219.735 160.829 222.88 160.829Z" fill="#F1F1F1"/>
<path d="M226.094 322.999H424.479C424.617 322.999 424.75 322.944 424.847 322.847C424.945 322.749 425 322.617 425 322.479C425 322.341 424.945 322.209 424.847 322.111C424.75 322.014 424.617 321.959 424.479 321.959H226.094C225.956 321.959 225.824 322.014 225.726 322.111C225.628 322.209 225.573 322.341 225.573 322.479C225.573 322.617 225.628 322.749 225.726 322.847C225.824 322.944 225.956 322.999 226.094 322.999Z" fill="#CBCBCB"/>
<path d="M402.586 50.262C402.847 48.4146 402.42 46.5359 401.386 44.9819C400.353 43.4279 398.784 42.3066 396.978 41.8305C395.173 41.3544 393.255 41.5565 391.588 42.3986C389.921 43.2407 388.622 44.6642 387.936 46.3994L371.837 64.835L376.561 78.0134L392.751 56.4721C393.807 56.8102 394.925 56.9127 396.025 56.7726C397.126 56.6324 398.182 56.2529 399.12 55.6608C400.058 55.0687 400.854 54.2785 401.453 53.3457C402.052 52.4129 402.439 51.3603 402.586 50.262Z" fill="#FFB7B7"/>
<path d="M335.856 121.996L389.294 65.0271L382.086 53.5801L315.061 110.203L335.856 121.996Z" fill="#3F3D56"/>
<path d="M323.929 87.3809C334.282 87.3809 342.674 78.9976 342.674 68.6563C342.674 58.3149 334.282 49.9316 323.929 49.9316C313.576 49.9316 305.184 58.3149 305.184 68.6563C305.184 78.9976 313.576 87.3809 323.929 87.3809Z" fill="#2F2E41"/>
<path d="M325.436 58.08C329.469 53.994 334.351 50.841 339.736 48.8429C343.192 47.5637 346.955 46.7733 350.569 47.4998C354.183 48.2262 357.6 50.7236 358.608 54.2655C359.433 57.1618 358.582 60.2801 357.302 63.0065C356.023 65.7329 354.315 68.2611 353.28 71.0893C352.224 73.975 351.907 77.0783 352.356 80.1177C352.806 83.157 354.008 86.0361 355.854 88.4935C357.7 90.951 360.131 92.909 362.927 94.1898C365.723 95.4706 368.794 96.0336 371.863 95.8278C368.312 96.3034 365.039 97.9702 361.569 98.8575C358.098 99.7447 354.001 99.6845 351.422 97.2007C348.693 94.5728 348.639 90.3001 348.771 86.516C348.967 80.8908 349.163 75.2656 349.359 69.6404C349.459 66.7717 349.544 63.811 348.509 61.1335C347.473 58.4559 345.012 56.1113 342.138 56.1356C339.96 56.1541 338.033 57.472 336.286 58.7716C334.54 60.0713 332.691 61.458 330.522 61.6513C328.353 61.8446 325.876 60.241 326.038 58.0715L325.436 58.08Z" fill="#2F2E41"/>
<path d="M252.734 194.384C250.934 194.883 249.014 194.706 247.336 193.885C245.659 193.065 244.341 191.658 243.633 189.932C242.924 188.206 242.874 186.28 243.492 184.519C244.11 182.759 245.353 181.286 246.986 180.379L263.18 162.027L276.877 164.983L257.612 183.832C258.086 184.834 258.334 185.927 258.338 187.036C258.343 188.144 258.104 189.239 257.639 190.245C257.174 191.251 256.494 192.143 255.646 192.858C254.799 193.573 253.805 194.094 252.734 194.384H252.734Z" fill="#FFB7B7"/>
<path d="M306.012 128.683L265.65 179.291L253.347 173.649L300.788 99.8711L306.012 128.683Z" fill="#3F3D56"/>
<path d="M273.807 281.498L264.188 281.348L265.345 314.098H273.805L273.807 281.498Z" fill="#FFB7B7"/>
<path d="M275.964 311.341L259.301 311.34H259.3C256.484 311.34 253.783 312.458 251.792 314.447C249.8 316.436 248.681 319.134 248.681 321.947V322.292L275.963 322.293L275.964 311.341Z" fill="#2F2E41"/>
<path d="M337.497 272.812L326.989 279.551L348.008 304.811L355.128 300.245L337.497 272.812Z" fill="#FFB7B7"/>
<path d="M355.452 296.76L341.43 305.752L341.429 305.752C339.06 307.272 337.391 309.671 336.792 312.419C336.192 315.168 336.709 318.042 338.231 320.409L338.417 320.699L361.375 305.976L355.452 296.76Z" fill="#2F2E41"/>
<path d="M341.24 172.808C341.24 172.808 317.893 95.3465 310.389 94.2997C302.886 93.253 290.797 114.175 290.797 114.175C275.122 134.153 258.959 198.863 258.959 198.863C258.959 198.863 285.903 200.547 305.6 211.015C325.296 221.483 348.54 210.485 348.54 210.485L341.24 172.808Z" fill="#3F3D56"/>
<path opacity="0.1" d="M341.24 172.808C341.24 172.808 317.893 95.3461 310.389 94.2994C302.886 93.2526 293.867 114.387 293.867 114.387C286.057 146.635 258.959 198.863 258.959 198.863C258.959 198.863 285.903 200.547 305.6 211.015C325.296 221.483 348.54 210.485 348.54 210.485L341.24 172.808Z" fill="black"/>
<path d="M322.085 149.632V188.556L326.671 244.94L349.582 287.591L338.647 295.393L307.405 254.823L295.049 214.539L275.643 303.715L261.063 302.675L271.189 179.034L290.403 144.232L322.085 149.632Z" fill="#2F2E41"/>
<path d="M298.545 111.983C291.255 119.265 298.024 127.067 298.024 127.067L289.693 145.792L322.497 154.634L333.961 103.464L326.15 95.1423C310.529 94.6222 310.521 94.2988 310.521 94.2988C307.784 96.9743 298.545 111.983 298.545 111.983Z" fill="#6C63FF"/>
<path d="M335.282 98.1646C333.792 97.0661 332.099 96.2737 330.3 95.8334C328.501 95.3932 326.633 95.3138 324.804 95.5998C322.974 95.8859 321.22 96.5317 319.642 97.4999C318.064 98.4681 316.694 99.7394 315.611 101.24C307.365 112.71 299.739 131.231 310.246 154.331C327.116 191.421 341.796 210.408 347.765 210.406C348.025 210.408 348.284 210.368 348.532 210.286C352.205 209.041 357.517 202.831 358.478 197.359C358.822 195.401 358.741 192.672 356.396 190.799C349.66 185.418 337.568 168.662 333.796 146.607C331.712 134.42 335.754 123.32 339.513 116.154C341.1 113.188 341.565 109.751 340.821 106.471C340.077 103.192 338.175 100.29 335.463 98.298L335.282 98.1646Z" fill="#3F3D56"/>
<path d="M324.893 85.5422C331.58 81.8908 334.037 73.516 330.382 66.8365C326.727 60.1569 318.343 57.7021 311.656 61.3535C304.969 65.0048 302.511 73.3797 306.167 80.0592C309.822 86.7388 318.206 89.1936 324.893 85.5422Z" fill="#FFB7B7"/>
<path d="M298.869 72.4061H318.794L318.998 69.5486L320.02 72.4061H323.088L323.492 66.7427L325.517 72.4061H331.454V72.1255C331.449 68.1827 329.879 64.4026 327.088 61.6146C324.297 58.8266 320.513 57.2584 316.566 57.2539H313.757C309.81 57.2584 306.025 58.8266 303.234 61.6146C300.443 64.4026 298.873 68.1827 298.869 72.1255V72.4061Z" fill="#2F2E41"/>
<path d="M328.444 82.677L336.946 79.9209V59.2949H320.886L321.283 59.6915C326.816 65.2105 332.968 84.7914 328.444 82.677Z" fill="#2F2E41"/>
</g>
<defs>
<clipPath id="clip0">
<rect width="425" height="323" fill="white"/>
</clipPath>
</defs>
</svg>
