<svg width="515" height="384" viewBox="0 0 515 384" fill="none" xmlns="http://www.w3.org/2000/svg">
<g clip-path="url(#clip0)">
<path d="M470.927 377.703C446.586 377.703 426.854 376.197 426.854 374.34C426.854 372.483 446.586 370.978 470.927 370.978C495.268 370.978 515 372.483 515 374.34C515 376.197 495.268 377.703 470.927 377.703Z" fill="#E6E6E6"/>
<path d="M375.856 384C351.515 384 331.783 382.495 331.783 380.638C331.783 378.781 351.515 377.275 375.856 377.275C400.196 377.275 419.928 378.781 419.928 380.638C419.928 382.495 400.196 384 375.856 384Z" fill="#E6E6E6"/>
<path d="M40.7291 0H263.125C264.422 0.00158 265.665 0.517583 266.582 1.43483C267.499 2.35208 268.015 3.59568 268.016 4.89286V377.403C268.016 378.7 267.5 379.944 266.583 380.862C265.666 381.779 264.422 382.295 263.125 382.296H40.7291C39.5644 382.296 38.4377 381.881 37.5526 381.123C36.6675 380.366 36.0824 379.317 35.9029 378.166C35.858 377.914 35.8362 377.659 35.8377 377.403V4.89286C35.8393 3.59568 36.3551 2.35208 37.2721 1.43483C38.1891 0.517583 39.4323 0.00157833 40.7291 0ZM37.7943 377.403C37.7943 378.181 38.1036 378.928 38.6539 379.478C39.2043 380.029 39.9508 380.338 40.7291 380.338H263.125C263.903 380.338 264.65 380.029 265.2 379.478C265.75 378.928 266.06 378.181 266.06 377.403V4.89286C266.058 4.11462 265.749 3.36859 265.199 2.81829C264.649 2.26799 263.903 1.95831 263.125 1.95714H40.7291C39.9511 1.95831 39.2053 2.26799 38.6552 2.81829C38.105 3.36859 37.7954 4.11462 37.7943 4.89286V377.403Z" fill="#E6E6E6"/>
<path d="M245.516 27.4785C246.034 27.4791 246.532 27.6855 246.899 28.0524C247.265 28.4193 247.472 28.9168 247.472 29.4357V110.331C247.472 110.85 247.265 111.347 246.899 111.714C246.532 112.081 246.034 112.288 245.516 112.288H58.3381C57.8193 112.288 57.322 112.081 56.9552 111.714C56.5884 111.347 56.3821 110.85 56.3815 110.331V29.4357C56.3821 28.9168 56.5884 28.4193 56.9552 28.0524C57.322 27.6855 57.8193 27.4791 58.3381 27.4785L245.516 27.4785Z" fill="#E6E6E6"/>
<path d="M323.698 90.7734C324.199 90.774 324.679 90.9732 325.033 91.3274C325.387 91.6816 325.586 92.1619 325.587 92.6628V170.758C325.586 171.259 325.387 171.739 325.033 172.094C324.679 172.448 324.199 172.647 323.698 172.648H142.999C142.498 172.647 142.018 172.448 141.664 172.094C141.31 171.739 141.111 171.259 141.11 170.758V92.6628C141.111 92.1619 141.31 91.6816 141.664 91.3274C142.018 90.9732 142.498 90.774 142.999 90.7734H323.698Z" fill="#6C63FF"/>
<path d="M415.673 272.169C415.436 278.018 419.171 283.202 422.668 287.862C424.263 290.045 439.084 304.836 443.561 311.301C444.645 312.868 471.259 343.597 472.623 346.445C472.944 347.119 473.208 347.819 473.413 348.537C474.211 351.265 474.246 354.204 474.176 357.115V359.151C474.036 363.593 473.833 368.057 472.777 372.36C472.623 372.99 472.448 373.627 472.357 374.263C472.64 374.078 472.906 373.87 473.154 373.641L487.619 362.901L488.521 362.229C489.445 359.556 490.319 356.856 491.305 354.218C491.893 352.651 491.263 350.86 490.228 349.551C489.107 348.313 487.87 347.184 486.535 346.179C485.51 345.118 484.596 343.955 483.807 342.709C473.826 328.177 445.715 276.031 443.666 265.536C440.964 265.032 438.196 264.997 435.482 265.431L421.052 267.348C419.492 267.558 417.786 267.845 416.772 269.041C416.079 269.939 415.694 271.035 415.673 272.169Z" fill="#EFB7B9"/>
<path d="M354.08 284.09C354.387 286.271 355.157 288.361 356.339 290.219C357.822 292.479 374.853 336.299 380.148 354.392C381.12 357.716 380.61 360.927 380.715 362.04C380.799 362.963 380.876 363.887 380.946 364.803C381.043 365.944 381.12 367.084 381.204 368.218C381.421 371.219 381.61 374.375 380.344 377.103C379.847 378.181 379.099 379.111 378.77 380.189C379.264 379.935 379.72 379.615 380.127 379.237L394.592 368.498C395.771 365.154 396.681 361.722 397.313 358.233C397.676 356.253 397.851 353.98 396.613 352.461C396.542 352.368 396.465 352.279 396.382 352.195C395.979 351.816 395.527 351.492 395.04 351.23C394.592 350.984 394.162 350.709 393.753 350.404C393.445 350.163 393.168 349.886 392.927 349.579C391.738 348.109 391.311 346.045 390.955 344.107C389.556 336.173 377.707 287.491 377.931 286.287C378.176 285.105 384.904 273.763 389.521 271.244C384.731 267.231 379.268 264.1 373.384 261.995C372.348 261.512 371.2 261.316 370.062 261.428C369.453 261.562 368.871 261.799 368.341 262.128C365.173 263.905 362.746 266.704 360.424 269.502C356.961 273.714 353.499 278.668 354.08 284.09Z" fill="#EFB7B9"/>
<path d="M360.391 267.234C360.839 271.466 372.724 275.21 387.753 277.54C391.634 278.142 401.171 254.644 405.329 255.041C410.328 255.518 409.979 279.841 414.924 279.972C431.757 280.417 442.635 278.691 446.151 273.699C448.054 273.237 450.348 272.146 450.257 270.201C450.194 269.088 449.313 268.102 449.32 267.01C449.32 265.107 443.801 244.271 440.549 234.385C439.737 231.929 439.15 229.411 438.234 226.983C434.275 216.04 432.575 207.644 425.343 198.534C424.236 197.256 423.326 195.82 422.643 194.274C422.022 192.417 421.699 190.473 421.684 188.515L421.286 181.666C410.563 181.162 400.148 181.365 389.656 183.632C389.087 183.615 388.535 183.825 388.12 184.216C387.706 184.606 387.463 185.146 387.447 185.715L387.446 185.731C387.041 188.235 386.756 190.752 386.593 193.28C386.588 193.839 386.508 194.394 386.355 194.931C386.08 195.611 385.697 196.241 385.222 196.799C379.151 204.761 375.43 214.291 372.492 223.834C369.554 233.378 367.218 243.187 363.525 252.52C362.252 255.739 360.587 259.356 360.251 262.805C358.922 263.792 359.216 266.024 360.391 267.234Z" fill="#2F2E41"/>
<path d="M350.2 152.503C348.354 150.943 346.507 149.376 344.815 147.655C342.426 145.123 340.22 142.424 338.212 139.581C336.071 136.663 333.945 133.676 332.616 130.303C331.112 126.441 330.651 122.047 328.035 118.843C327.739 118.426 327.328 118.105 326.853 117.919C325.363 117.45 324.251 119.318 323.964 120.865C322.565 128.435 325.901 135.991 329.147 142.974C330.217 145.276 331.336 147.641 333.19 149.383C334.207 150.252 335.269 151.068 336.372 151.825C338.011 153.157 339.519 154.643 340.877 156.261C343.208 158.91 345.425 161.655 347.528 164.496C350.137 167.994 352.585 171.66 355.677 174.746C358.769 177.831 362.637 180.343 366.966 180.952C365.728 180.784 366.134 173.514 366.267 172.598C366.456 171.268 367.365 169.701 367.393 168.4C367.428 166.805 366.777 166.574 365.462 165.454L350.2 152.503Z" fill="#EFB7B9"/>
<path d="M402.114 106.718C402.114 106.718 406.31 127.708 411.207 131.206C416.103 134.704 384.627 138.902 384.627 138.902C384.627 138.902 383.928 122.11 375.535 114.414C367.141 106.718 402.114 106.718 402.114 106.718Z" fill="#EFB7B9"/>
<path d="M373.912 190.068C372.874 190.393 371.788 190.535 370.701 190.488C367.029 190.448 363.41 189.605 360.098 188.018C359.787 187.898 359.513 187.7 359.3 187.444C359.177 187.176 359.11 186.886 359.104 186.591C359.098 186.296 359.153 186.003 359.265 185.73C361.238 177.754 357.433 168.707 361.21 161.417C365.315 162.753 369.82 164.215 373.926 165.517C374.555 165.772 375.233 165.887 375.912 165.852C376.726 165.683 377.47 165.277 378.053 164.684C382.501 160.836 385.306 155.477 387.845 150.18C390.384 144.884 392.874 139.419 396.875 135.109C400.876 130.799 404.618 128.519 410.465 129.141C412.541 129.425 414.446 130.443 415.837 132.01C419.138 135.564 419.796 140.973 418.635 145.688C417.474 150.404 414.809 154.581 412.039 158.562C408.43 163.754 404.548 168.868 399.533 172.723C396.82 174.689 394.004 176.508 391.097 178.174" fill="#E6E6E6"/>
<path d="M385.677 122.46C374.088 122.46 364.693 113.063 364.693 101.47C364.693 89.8779 374.088 80.4805 385.677 80.4805C397.266 80.4805 406.66 89.8779 406.66 101.47C406.66 113.063 397.266 122.46 385.677 122.46Z" fill="#EFB7B9"/>
<path d="M377.283 161.879C383.591 169.319 384.924 178.825 386.215 188.207C392.552 186.059 399.575 189.662 406.136 188.347C409.431 187.249 412.917 186.845 416.376 187.158C418.803 186.926 421.209 185.401 423.524 186.178C427.373 188.617 423.625 173.51 423.853 169.12C425.871 95.0593 365.818 131.088 377.283 161.879Z" fill="#E6E6E6"/>
<path d="M341.807 155.301C339.96 153.741 338.114 152.174 336.421 150.453C334.033 147.92 331.826 145.222 329.818 142.379C327.678 139.461 325.552 136.473 324.223 133.101C322.719 129.239 322.257 124.845 319.641 121.641C319.345 121.224 318.935 120.903 318.459 120.717C316.969 120.248 315.857 122.116 315.57 123.663C314.172 131.233 317.508 138.789 320.753 145.772C321.824 148.074 322.943 150.439 324.796 152.181C325.813 153.05 326.876 153.865 327.979 154.623C329.617 155.955 331.126 157.44 332.483 159.058C334.815 161.708 337.032 164.453 339.135 167.294C341.744 170.792 344.192 174.458 347.284 177.544C350.375 180.629 354.243 183.141 358.573 183.75C357.335 183.582 357.74 176.312 357.873 175.396C358.062 174.066 358.971 172.499 358.999 171.198C359.034 169.602 358.384 169.372 357.069 168.252L341.807 155.301Z" fill="#EFB7B9"/>
<path opacity="0.1" d="M379.382 162.578L379.43 162.669C380.641 164.915 382.452 166.804 383.697 169.043C385.096 171.576 385.747 174.466 386.306 177.313C386.693 179.226 387.05 181.14 387.376 183.058C389.888 181.616 392.317 180.035 394.651 178.321C399.666 174.466 403.548 169.351 407.157 164.153C409.955 160.172 412.613 155.995 413.753 151.286C414.893 146.577 414.228 141.162 410.955 137.607C409.564 136.039 407.659 135.019 405.583 134.732C399.736 134.109 396.042 136.369 392.042 140.672C388.041 144.975 385.565 150.467 383.012 155.743C381.879 158.031 380.717 160.374 379.382 162.578Z" fill="black"/>
<path d="M402.072 131.94C404.147 132.224 406.053 133.242 407.444 134.809C410.745 138.363 411.402 143.771 410.241 148.487C409.08 153.203 406.415 157.38 403.646 161.361C400.036 166.552 396.154 171.667 391.139 175.522C388.426 177.487 385.61 179.307 382.704 180.972C377.874 183.948 373.232 183.022 368.806 186.57C367.835 187.449 366.724 188.158 365.518 188.669C364.481 188.994 363.394 189.136 362.308 189.088C358.635 189.049 355.016 186.806 351.704 185.219C351.394 185.099 351.119 184.902 350.907 184.646C350.783 184.378 350.716 184.087 350.71 183.792C350.704 183.497 350.759 183.204 350.872 182.931C352.844 174.955 349.039 171.506 352.816 164.215C356.922 165.552 361.426 167.014 365.532 168.315C366.162 168.571 366.84 168.686 367.519 168.651C368.332 168.482 369.077 168.076 369.659 167.483C374.108 163.635 376.912 158.275 379.451 152.979C381.99 147.682 384.48 142.218 388.481 137.908C392.482 133.598 396.224 131.317 402.072 131.94Z" fill="#E6E6E6"/>
<path d="M372.853 380.441C373.788 381.392 375.004 382.017 376.322 382.224C377.639 382.43 378.988 382.208 380.169 381.589C380.663 381.335 381.119 381.015 381.526 380.637L395.991 369.897L401.726 365.636C402.33 365.075 402.812 364.397 403.145 363.643C403.478 362.889 403.654 362.076 403.663 361.252C403.671 360.427 403.512 359.61 403.195 358.85C402.878 358.089 402.409 357.401 401.817 356.828L398.012 353.861L396.438 352.63L394.326 350.978L392.48 349.537L380.631 356.184L380.428 356.576L371.461 373.871C371.042 374.985 370.951 376.196 371.197 377.36C371.444 378.524 372.018 379.593 372.853 380.441Z" fill="#2F2E41"/>
<path d="M465.88 374.844C466.815 375.794 468.031 376.419 469.349 376.626C470.666 376.832 472.015 376.61 473.196 375.991C473.385 375.893 473.574 375.781 473.756 375.662C474.038 375.477 474.305 375.269 474.553 375.039L489.018 364.3L489.92 363.628L494.754 360.039C495.357 359.477 495.84 358.799 496.173 358.045C496.506 357.292 496.682 356.478 496.69 355.654C496.699 354.83 496.539 354.013 496.222 353.252C495.905 352.491 495.436 351.803 494.844 351.23L491.039 348.263L489.466 347.032L487.353 345.381L485.507 343.939L485.206 344.107L474.812 349.936L473.658 350.586L473.455 350.978L464.488 368.274C464.069 369.387 463.978 370.598 464.224 371.762C464.471 372.926 465.046 373.995 465.88 374.844Z" fill="#2F2E41"/>
<path d="M365.92 83.5771C374.045 74.3684 383.206 69.9641 394.191 74.008C411.815 68.0908 434.982 108.756 420.716 123.504L396.558 125.519L389.16 112.195L391.778 125.996L372.454 127.926C382.312 112.593 379.15 97.8555 365.92 83.5771Z" fill="#2F2E41"/>
<path d="M274.907 150.051C264.78 150.051 256.572 141.84 256.572 131.711C256.572 121.581 264.78 113.37 274.907 113.37C285.033 113.37 293.242 121.581 293.242 131.711C293.242 141.84 285.033 150.051 274.907 150.051Z" fill="white"/>
<path d="M233.525 129.27C234.088 129.279 234.624 129.509 235.018 129.91C235.413 130.311 235.634 130.851 235.634 131.414C235.634 131.977 235.413 132.517 235.018 132.918C234.624 133.319 234.088 133.549 233.525 133.559H175.635C175.066 133.568 174.517 133.351 174.109 132.955C173.7 132.56 173.465 132.018 173.456 131.449C173.447 130.881 173.664 130.332 174.059 129.923C174.454 129.514 174.996 129.279 175.564 129.27C175.588 129.269 175.611 129.269 175.635 129.27H233.525Z" fill="white"/>
<path d="M233.525 116.846C234.088 116.855 234.624 117.085 235.018 117.486C235.413 117.888 235.634 118.428 235.634 118.99C235.634 119.553 235.413 120.093 235.018 120.494C234.624 120.895 234.088 121.125 233.525 121.135H204.616C204.048 121.144 203.499 120.926 203.091 120.531C202.683 120.135 202.448 119.594 202.439 119.026C202.43 118.457 202.646 117.908 203.041 117.5C203.436 117.091 203.977 116.856 204.546 116.846C204.569 116.846 204.593 116.846 204.616 116.846H233.525Z" fill="white"/>
<path d="M233.525 142.285C234.088 142.295 234.624 142.525 235.018 142.926C235.413 143.327 235.634 143.867 235.634 144.43C235.634 144.993 235.413 145.533 235.018 145.934C234.624 146.335 234.088 146.565 233.525 146.574H175.635C175.353 146.579 175.073 146.528 174.811 146.425C174.549 146.322 174.31 146.168 174.108 145.972C173.905 145.776 173.743 145.542 173.631 145.283C173.519 145.025 173.459 144.747 173.454 144.465C173.45 144.183 173.501 143.903 173.604 143.641C173.708 143.379 173.862 143.14 174.058 142.938C174.254 142.735 174.488 142.574 174.746 142.462C175.005 142.35 175.283 142.29 175.564 142.285C175.588 142.285 175.611 142.285 175.635 142.285H233.525Z" fill="white"/>
<path d="M215.975 202.969C213.454 202.969 211.41 200.925 211.41 198.403C211.41 195.88 213.454 193.836 215.975 193.836C218.496 193.836 220.54 195.88 220.54 198.403C220.54 200.925 218.496 202.969 215.975 202.969Z" fill="#E6E6E6"/>
<path d="M197.161 196.037C197.781 196.048 198.372 196.302 198.807 196.744C199.241 197.186 199.485 197.782 199.485 198.402C199.485 199.022 199.241 199.618 198.807 200.06C198.372 200.502 197.781 200.756 197.161 200.767H85.7164C85.0912 200.774 84.4884 200.534 84.04 200.098C83.5916 199.662 83.3341 199.066 83.3238 198.441C83.3135 197.815 83.5514 197.211 83.9852 196.761C84.4191 196.31 85.0137 196.05 85.6388 196.037C85.6647 196.037 85.6906 196.037 85.7164 196.037H197.161Z" fill="#E6E6E6"/>
<path d="M215.975 225.15C213.454 225.15 211.41 223.105 211.41 220.583C211.41 218.061 213.454 216.017 215.975 216.017C218.496 216.017 220.54 218.061 220.54 220.583C220.54 223.105 218.496 225.15 215.975 225.15Z" fill="#E6E6E6"/>
<path d="M197.161 218.219C197.781 218.23 198.372 218.483 198.807 218.926C199.241 219.368 199.485 219.963 199.485 220.584C199.485 221.204 199.241 221.799 198.807 222.242C198.372 222.684 197.781 222.938 197.161 222.948H85.7165C85.0911 222.956 84.4881 222.716 84.0395 222.28C83.591 221.844 83.3333 221.248 83.3231 220.622C83.3128 219.997 83.5507 219.393 83.9848 218.942C84.4188 218.492 85.0136 218.232 85.6388 218.219C85.6647 218.219 85.6906 218.219 85.7165 218.219H197.161Z" fill="#E6E6E6"/>
<path d="M215.975 247.331C213.454 247.331 211.41 245.286 211.41 242.764C211.41 240.242 213.454 238.197 215.975 238.197C218.496 238.197 220.54 240.242 220.54 242.764C220.54 245.286 218.496 247.331 215.975 247.331Z" fill="#E6E6E6"/>
<path d="M197.161 240.4C197.781 240.41 198.372 240.664 198.807 241.106C199.241 241.549 199.485 242.144 199.485 242.764C199.485 243.385 199.241 243.98 198.807 244.422C198.372 244.865 197.781 245.118 197.161 245.129H85.7165C85.0911 245.137 84.4881 244.896 84.0395 244.46C83.591 244.024 83.3333 243.428 83.3231 242.803C83.3128 242.177 83.5507 241.573 83.9848 241.123C84.4188 240.672 85.0136 240.412 85.6388 240.4C85.6647 240.399 85.6906 240.399 85.7165 240.4H197.161Z" fill="#E6E6E6"/>
<path d="M215.975 269.512C213.454 269.512 211.41 267.468 211.41 264.946C211.41 262.423 213.454 260.379 215.975 260.379C218.496 260.379 220.54 262.423 220.54 264.946C220.54 267.468 218.496 269.512 215.975 269.512Z" fill="#E6E6E6"/>
<path d="M197.161 262.58C197.781 262.591 198.372 262.845 198.807 263.287C199.241 263.729 199.485 264.325 199.485 264.945C199.485 265.565 199.241 266.161 198.807 266.603C198.372 267.045 197.781 267.299 197.161 267.31H85.7164C85.4052 267.316 85.0957 267.261 84.8058 267.147C84.5159 267.034 84.2513 266.864 84.0271 266.648C83.8029 266.432 83.6236 266.174 83.4995 265.888C83.3753 265.603 83.3088 265.295 83.3037 264.984C83.2985 264.673 83.355 264.363 83.4697 264.074C83.5844 263.784 83.7551 263.52 83.9721 263.297C84.189 263.074 84.448 262.895 84.734 262.772C85.02 262.649 85.3275 262.584 85.6388 262.58C85.6647 262.58 85.6906 262.58 85.7164 262.58H197.161Z" fill="#E6E6E6"/>
<path d="M215.975 291.693C213.454 291.693 211.41 289.648 211.41 287.126C211.41 284.604 213.454 282.56 215.975 282.56C218.496 282.56 220.54 284.604 220.54 287.126C220.54 289.648 218.496 291.693 215.975 291.693Z" fill="#E6E6E6"/>
<path d="M197.161 284.762C197.781 284.773 198.372 285.026 198.807 285.469C199.241 285.911 199.485 286.506 199.485 287.127C199.485 287.747 199.241 288.342 198.807 288.785C198.372 289.227 197.781 289.481 197.161 289.491H85.7164C85.0912 289.499 84.4884 289.258 84.04 288.822C83.5916 288.386 83.3341 287.791 83.3238 287.165C83.3135 286.54 83.5514 285.936 83.9852 285.486C84.4191 285.035 85.0137 284.775 85.6388 284.762C85.6647 284.762 85.6906 284.762 85.7164 284.762H197.161Z" fill="#E6E6E6"/>
<path d="M215.975 313.874C213.454 313.874 211.41 311.829 211.41 309.307C211.41 306.785 213.454 304.74 215.975 304.74C218.496 304.74 220.54 306.785 220.54 309.307C220.54 311.829 218.496 313.874 215.975 313.874Z" fill="#E6E6E6"/>
<path d="M197.161 306.943C197.781 306.953 198.372 307.207 198.807 307.649C199.241 308.092 199.485 308.687 199.485 309.307C199.485 309.928 199.241 310.523 198.807 310.965C198.372 311.408 197.781 311.661 197.161 311.672H85.7164C85.0912 311.679 84.4884 311.439 84.04 311.003C83.5916 310.567 83.3341 309.971 83.3238 309.346C83.3135 308.721 83.5514 308.117 83.9852 307.666C84.4191 307.216 85.0137 306.956 85.6388 306.943C85.6647 306.942 85.6906 306.942 85.7164 306.943H197.161Z" fill="#E6E6E6"/>
<path d="M215.975 336.054C213.454 336.054 211.41 334.01 211.41 331.488C211.41 328.965 213.454 326.921 215.975 326.921C218.496 326.921 220.54 328.965 220.54 331.488C220.54 334.01 218.496 336.054 215.975 336.054Z" fill="#E6E6E6"/>
<path d="M197.161 329.123C197.781 329.134 198.372 329.388 198.807 329.83C199.241 330.272 199.485 330.868 199.485 331.488C199.485 332.108 199.241 332.704 198.807 333.146C198.372 333.588 197.781 333.842 197.161 333.852H85.7165C85.0911 333.86 84.4881 333.62 84.0395 333.184C83.591 332.748 83.3333 332.152 83.3231 331.527C83.3128 330.901 83.5507 330.297 83.9848 329.847C84.4188 329.396 85.0136 329.136 85.6388 329.123C85.6647 329.123 85.6906 329.123 85.7165 329.123H197.161Z" fill="#E6E6E6"/>
<path d="M6.10352e-05 298.915C0.0979004 301.322 2.53053 351.014 35.9029 378.166C37.2986 379.301 38.7486 380.395 40.253 381.448L41.3878 380.339H40.7291C39.9507 380.338 39.2043 380.029 38.6539 379.479C38.1035 378.928 37.7943 378.181 37.7942 377.403V279.454C37.0964 275.696 36.4377 272.004 35.8377 268.409C32.5833 248.871 31.0767 232.365 33.5159 225.509C32.4594 228.157 11.2503 282.331 22.7679 337.529C11.3611 321.905 0.534859 305.504 6.10352e-05 298.915Z" fill="#E6E6E6"/>
</g>
<defs>
<clipPath id="clip0">
<rect width="515" height="384" fill="white" transform="matrix(-1 0 0 1 515 0)"/>
</clipPath>
</defs>
</svg>
