<svg width="60" height="60" viewBox="0 0 60 60" fill="none" xmlns="http://www.w3.org/2000/svg">
<path d="M51.245 38.75H8.75V51.25H51.245V38.75ZM54.8625 36.18L54.915 36.335L54.9725 36.585L54.9975 36.835V53.125C54.9973 53.5789 54.8325 54.0172 54.5337 54.3588C54.2349 54.7004 53.8223 54.922 53.3725 54.9825L53.1225 55H6.875C6.42191 55 5.98414 54.8359 5.64267 54.5381C5.3012 54.2403 5.07912 53.8289 5.0175 53.38L5 53.125V36.875L5.005 36.745L5.03 36.53C5.05537 36.3987 5.09477 36.2705 5.1475 36.1475L12.0475 21.1C12.1776 20.8156 12.3769 20.5682 12.6271 20.3804C12.8773 20.1927 13.1705 20.0705 13.48 20.025L13.75 20.0075L20.1 20.005L18.125 23.43L17.9575 23.755H14.95L9.795 35H50.175L45.1075 24.135L47.2625 20.3925C47.43 20.5175 47.575 20.675 47.6925 20.8525L47.825 21.09L54.8625 36.18ZM33.4125 5.14002L33.6425 5.25252L46.6125 12.76C47.4325 13.235 47.7575 14.2375 47.41 15.0925L47.2975 15.3225L40.28 27.5H43.125C43.6034 27.4952 44.0656 27.6734 44.417 27.9982C44.7683 28.323 44.9821 28.7699 45.0147 29.2472C45.0473 29.7246 44.8962 30.1963 44.5923 30.5659C44.2884 30.9354 43.8547 31.1748 43.38 31.235L43.125 31.2525L38.12 31.25V31.2575H27.9225L27.915 31.25H16.875C16.4029 31.2456 15.9499 31.0632 15.6064 30.7394C15.2628 30.4155 15.0541 29.974 15.0219 29.503C14.9897 29.032 15.1364 28.5662 15.4326 28.1986C15.7289 27.831 16.1529 27.5887 16.62 27.52L16.875 27.5025L21.4325 27.5L20.9775 27.2375C20.5864 27.0096 20.2906 26.6482 20.1445 26.2197C19.9985 25.7912 20.012 25.3244 20.1825 24.905L20.2925 24.675L31.085 5.93502C31.56 5.11252 32.56 4.78502 33.4125 5.13502V5.14002ZM33.3875 9.44002L24.4725 24.925L28.9175 27.5H35.96L43.1225 15.0675L33.3925 9.43502L33.3875 9.44002Z" fill="#539BE0"/>
</svg>
