<svg width="15" height="15" viewBox="0 0 15 15" fill="none" xmlns="http://www.w3.org/2000/svg">
<path d="M7.49198 1.24323C7.35955 1.2453 7.23334 1.29983 7.14107 1.39485C7.04879 1.48987 6.99798 1.61762 6.9998 1.75006V2.00006H4.2498C4.18357 1.99916 4.11781 2.01143 4.05636 2.03615C3.99491 2.06088 3.93899 2.09757 3.89183 2.14408C3.84468 2.1906 3.80723 2.24603 3.78168 2.30714C3.75612 2.36824 3.74296 2.43382 3.74296 2.50006H2.9998C2.93354 2.49912 2.86776 2.51136 2.80628 2.53607C2.74479 2.56078 2.68883 2.59746 2.64165 2.64398C2.59446 2.6905 2.55699 2.74594 2.53142 2.80707C2.50585 2.8682 2.49268 2.9338 2.49268 3.00006C2.49268 3.06632 2.50585 3.13193 2.53142 3.19305C2.55699 3.25418 2.59446 3.30962 2.64165 3.35614C2.68883 3.40266 2.74479 3.43934 2.80628 3.46405C2.86776 3.48876 2.93354 3.501 2.9998 3.50006H11.9998C12.0661 3.501 12.1318 3.48876 12.1933 3.46405C12.2548 3.43934 12.3108 3.40266 12.3579 3.35614C12.4051 3.30962 12.4426 3.25418 12.4682 3.19305C12.4937 3.13193 12.5069 3.06632 12.5069 3.00006C12.5069 2.9338 12.4937 2.8682 12.4682 2.80707C12.4426 2.74594 12.4051 2.6905 12.3579 2.64398C12.3108 2.59746 12.2548 2.56078 12.1933 2.53607C12.1318 2.51136 12.0661 2.49912 11.9998 2.50006H11.2566C11.2566 2.43382 11.2435 2.36824 11.2179 2.30714C11.1924 2.24603 11.1549 2.1906 11.1078 2.14408C11.0606 2.09757 11.0047 2.06088 10.9432 2.03615C10.8818 2.01143 10.816 1.99916 10.7498 2.00006H7.9998V1.75006C8.00071 1.68317 7.9882 1.61677 7.96299 1.5548C7.93778 1.49283 7.90039 1.43655 7.85304 1.38929C7.80569 1.34202 7.74934 1.30475 7.68732 1.27966C7.6253 1.25457 7.55888 1.24218 7.49198 1.24323ZM2.9998 4.50006L3.89628 12.1172C3.95528 12.6207 4.38147 13.0001 4.88847 13.0001H10.1111C10.6181 13.0001 11.0438 12.6207 11.1033 12.1172L11.9998 4.50006H2.9998Z" fill="#1E6599"/>
</svg>
