<svg width="24" height="24" viewBox="0 0 24 24" fill="none" xmlns="http://www.w3.org/2000/svg">
<path d="M20.498 15.4996H3.5V20.4996H20.498V15.4996ZM21.945 14.4716L21.966 14.5336L21.989 14.6336L21.999 14.7336V21.2496C21.9989 21.4312 21.933 21.6065 21.8135 21.7431C21.6939 21.8798 21.5289 21.9684 21.349 21.9926L21.249 21.9996H2.75C2.56876 21.9996 2.39366 21.934 2.25707 21.8149C2.12048 21.6957 2.03165 21.5312 2.007 21.3516L2 21.2496V14.7496L2.002 14.6976L2.012 14.6116C2.02215 14.5591 2.03791 14.5078 2.059 14.4586L4.819 8.43962C4.87106 8.32584 4.95076 8.22688 5.05084 8.15178C5.15092 8.07668 5.2682 8.02781 5.392 8.00962L5.5 8.00262L8.04 8.00162L7.25 9.37162L7.183 9.50162H5.98L3.918 13.9996H20.07L18.043 9.65362L18.905 8.15662C18.972 8.20662 19.03 8.26962 19.077 8.34062L19.13 8.43562L21.945 14.4716ZM13.365 2.05562L13.457 2.10062L18.645 5.10362C18.973 5.29362 19.103 5.69462 18.964 6.03662L18.919 6.12862L16.112 10.9996H17.25C17.4414 10.9977 17.6263 11.069 17.7668 11.1989C17.9073 11.3288 17.9928 11.5076 18.0059 11.6985C18.0189 11.8894 17.9585 12.0781 17.8369 12.226C17.7153 12.3738 17.5419 12.4695 17.352 12.4936L17.25 12.5006L15.248 12.4996V12.5026H11.169L11.166 12.4996H6.75C6.56116 12.4978 6.37995 12.4249 6.24254 12.2954C6.10513 12.1658 6.02166 11.9892 6.00877 11.8008C5.99589 11.6124 6.05456 11.4261 6.17306 11.279C6.29156 11.132 6.46116 11.0351 6.648 11.0076L6.75 11.0006L8.573 10.9996L8.391 10.8946C8.23454 10.8035 8.11624 10.6589 8.05782 10.4875C7.9994 10.3161 8.00479 10.1294 8.073 9.96162L8.117 9.86962L12.434 2.37362C12.624 2.04462 13.024 1.91362 13.365 2.05362V2.05562ZM13.355 3.77562L9.789 9.96962L11.567 10.9996H14.384L17.249 6.02662L13.357 3.77362L13.355 3.77562Z" fill="#1E6599"/>
</svg>
