<svg width="18" height="18" viewBox="0 0 18 18" fill="none" xmlns="http://www.w3.org/2000/svg">
<path fill-rule="evenodd" clip-rule="evenodd" d="M9.00005 3C6.3878 3 4.45505 4.18275 3.14255 5.4465C2.22318 6.33915 1.46211 7.38147 0.891799 8.529C0.820497 8.67564 0.783447 8.83657 0.783447 8.99963C0.783447 9.16268 0.820497 9.32361 0.891799 9.47025C1.46182 10.618 2.22264 11.6606 3.1418 12.5535C4.45505 13.8173 6.38855 15 9.00005 15C11.6123 15 13.545 13.8173 14.8575 12.5535C15.7769 11.6609 16.538 10.6185 17.1083 9.471C17.1796 9.32436 17.2167 9.16343 17.2167 9.00037C17.2167 8.83732 17.1796 8.67639 17.1083 8.52975C16.5383 7.382 15.7775 6.33942 14.8583 5.4465C13.5451 4.18275 11.6123 3 9.00005 3ZM9.00005 6C8.2044 6 7.44134 6.31607 6.87873 6.87868C6.31612 7.44129 6.00005 8.20435 6.00005 9C6.00005 9.79565 6.31612 10.5587 6.87873 11.1213C7.44134 11.6839 8.2044 12 9.00005 12C9.7957 12 10.5588 11.6839 11.1214 11.1213C11.684 10.5587 12 9.79565 12 9C12 8.20435 11.684 7.44129 11.1214 6.87868C10.5588 6.31607 9.7957 6 9.00005 6ZM9.00005 10.5C9.39787 10.5 9.77941 10.342 10.0607 10.0607C10.342 9.77936 10.5 9.39782 10.5 9C10.5 8.60218 10.342 8.22064 10.0607 7.93934C9.77941 7.65804 9.39787 7.5 9.00005 7.5C8.60222 7.5 8.22069 7.65804 7.93939 7.93934C7.65809 8.22064 7.50005 8.60218 7.50005 9C7.50005 9.39782 7.65809 9.77936 7.93939 10.0607C8.22069 10.342 8.60222 10.5 9.00005 10.5Z" fill="#BDE0FF"/>
</svg>
