<svg width="18" height="18" viewBox="0 0 18 18" fill="none" xmlns="http://www.w3.org/2000/svg">
<path d="M12.75 9C13.1478 9 13.5294 9.15804 13.8107 9.43934C14.092 9.72064 14.25 10.1022 14.25 10.5V15C14.25 15.3978 14.092 15.7794 13.8107 16.0607C13.5294 16.342 13.1478 16.5 12.75 16.5H5.25C4.85218 16.5 4.47064 16.342 4.18934 16.0607C3.90804 15.7794 3.75 15.3978 3.75 15V10.5C3.75 10.1022 3.90804 9.72064 4.18934 9.43934C4.47064 9.15804 4.85218 9 5.25 9V5.25C5.25 4.25544 5.64509 3.30161 6.34835 2.59835C7.05161 1.89509 8.00544 1.5 9 1.5C9.99456 1.5 10.9484 1.89509 11.6517 2.59835C12.3549 3.30161 12.75 4.25544 12.75 5.25V9ZM9 14.25C9.39782 14.25 9.77936 14.092 10.0607 13.8107C10.342 13.5294 10.5 13.1478 10.5 12.75C10.5 12.3522 10.342 11.9706 10.0607 11.6893C9.77936 11.408 9.39782 11.25 9 11.25C8.60218 11.25 8.22064 11.408 7.93934 11.6893C7.65804 11.9706 7.5 12.3522 7.5 12.75C7.5 13.1478 7.65804 13.5294 7.93934 13.8107C8.22064 14.092 8.60218 14.25 9 14.25ZM11.25 9V5.25C11.25 4.65326 11.0129 4.08097 10.591 3.65901C10.169 3.23705 9.59674 3 9 3C8.40326 3 7.83097 3.23705 7.40901 3.65901C6.98705 4.08097 6.75 4.65326 6.75 5.25V9H11.25Z" fill="#C4C4C4"/>
</svg>
